<?xml version="1.0" encoding="utf-8"?>
<!-- Generator: Adobe Illustrator 27.9.0, SVG Export Plug-In . SVG Version: 6.00 Build 0)  -->
<svg version="1.1" id="Слой_1" xmlns="http://www.w3.org/2000/svg" xmlns:xlink="http://www.w3.org/1999/xlink" x="0px" y="0px"
	 width="500px" height="300.1px" viewBox="0 0 500 300.1" style="enable-background:new 0 0 500 300.1;" xml:space="preserve">
<style type="text/css">
	.st0{fill:#FE1320;}
</style>
<g>
	<path class="st0" d="M13.9,0h118.2L0,300.1L0.2,13.7C0.2,6.2,6.3,0,13.9,0"/>
	<path d="M120.9,211.1l-23.6,58.3H55.7L157.6,37.9h53.8l5.9,231.5h-43.5l0.6-58.3H120.9z M174.5,175.1c0.6-44.3,0.5-76.7,1.4-98.8
		h-1c-7.3,21.3-21.9,56.1-39.3,98.8H174.5z"/>
	<path d="M214.5,269.4l0.5-2.3c8.3-38.3,30.2-65.2,72.3-103.6c32.1-29.6,40-37.9,44.7-60.5c3.5-16.8,2.4-28.7-14.2-28.7
		c-17.4,0-24.8,14.2-30.3,36.8h-39.4c7.7-35.4,29.9-69.4,77.7-69.4c43.5,0,55.6,25.4,47.8,62.7c-5.6,26.6-15.3,41.2-50.6,71.9
		c-25.6,22.4-45.7,42.3-54,58.1h83.4l-12.7,35H214.5z"/>
	<path d="M415.5,269.4l11.1-53.5h-79.4l7-33.5l93.6-138.1H500l-28.9,138.3h20.6l-10.5,33.2h-17l-11.2,53.5H415.5z M443.2,136.5
		c5-24,9.4-42.2,14-61c-12.5,24.1-45.2,75.4-65.3,107.1h41.7L443.2,136.5z"/>
</g>
</svg>
