<svg data-name="Capa 2" viewBox="0 0 201.33 136.92" xmlns="http://www.w3.org/2000/svg"><defs><style>.cls-1{fill:#f64c1e}.cls-2{fill:#00243a}</style></defs><g data-name="Capa 1"><path class="cls-2" d="M47.14 30.31 41.29 1.29H22.51L0 114.65h14.74l4.86-26.72h24.29l2.07 11.77 9.62-9.62 3-3-11.44-56.77Zm-6.5 44.83H21.87l2.87-15.9 1.44-7.95 5.57-30.88 3.82 21.49 5.9 33.24h-.82Z"/><path class="cls-1" d="M87 0h-1.13c-3.45 0-6.6.32-9.42 1-8.13 1.95-13.51 6.84-15.4 15.4-.5 2.26-.76 4.78-.76 7.56V36.1H74.7V25.9c0-9.88 4.53-13.12 10.85-13.12h1.46c6.32 0 10.85 3.24 10.85 13.12v12.14c0 8.58-4.05 11.66-11.82 11.66H74.71v12.63h12.95c6.32 0 10.2 3.08 10.2 10.04v17.65c0 4.58-.98 7.72-2.66 9.78-1.94 2.39-4.8 3.33-8.19 3.33h-1.13c-6.32 0-10.85-3.24-10.85-13.12v-7.8L61.38 95.86l-.81.81c.06.47.14.91.22 1.36l.39 1.93c2.26 9.52 8.94 15.06 20.16 15.86.94.07 1.91.11 2.92.11h4.37c7.52 0 13.25-1.89 17.22-5.47 4.5-4.07 6.74-10.32 6.74-18.49V72.05c0-6.15-1.13-14.41-11.5-16.35 9.88-1.46 11.5-10.69 11.5-17.81V23.96c0-17-9.56-23.97-25.59-23.97"/><path class="cls-2" d="m161.32 54.73-14.74-8.1c-6.48-3.72-8.91-6.15-8.91-12.95v-7.77c0-8.23 3.61-11.92 10.1-12.53.66-.06 1.33-.1 2.05-.1 7.77 0 12.14 3.56 12.14 12.63v15.38h14.9V23.31C176.86 6.96 165.52 0 149.98 0h-.32c-4.87 0-9.32.68-13.15 2.12-8.39 3.16-13.73 9.96-13.73 21.2v14.25c0 10.85 5.51 15.71 15.87 21.7l14.57 8.1c3.97 2.23 6.43 4.17 7.76 6.83l11.26-11.26c-2.71-3.09-6.43-5.64-10.93-8.19m-23.64 34.98V73.05h-14.9v19.27c0 6.79 1.55 11.91 4.49 15.61l11.55-11.55c-.75-1.81-1.14-4.01-1.14-6.65"/><path class="cls-1" d="m114.63 134.87 84.65-84.65 2.05 2.05-84.65 84.65-2.05-2.05z"/></g></svg>