<?xml version="1.0" encoding="UTF-8" standalone="no"?>
<!-- Created with Inkscape (http://www.inkscape.org/) -->

<svg
   xmlns:dc="http://purl.org/dc/elements/1.1/"
   xmlns:cc="http://creativecommons.org/ns#"
   xmlns:rdf="http://www.w3.org/1999/02/22-rdf-syntax-ns#"
   xmlns:svg="http://www.w3.org/2000/svg"
   xmlns="http://www.w3.org/2000/svg"
   xmlns:sodipodi="http://sodipodi.sourceforge.net/DTD/sodipodi-0.dtd"
   xmlns:inkscape="http://www.inkscape.org/namespaces/inkscape"
   width="264.58334mm"
   height="280.58508mm"
   viewBox="0 0 264.58334 280.58508"
   version="1.1"
   id="svg1077"
   inkscape:version="0.92.2 (5c3e80d, 2017-08-06)"
   sodipodi:docname="América TV logo.svg">
  <defs
     id="defs1071">
    <inkscape:path-effect
       effect="spiro"
       id="path-effect1126"
       is_visible="true" />
  </defs>
  <sodipodi:namedview
     id="base"
     pagecolor="#ffffff"
     bordercolor="#666666"
     borderopacity="1.0"
     inkscape:pageopacity="0.0"
     inkscape:pageshadow="2"
     inkscape:zoom="0.35"
     inkscape:cx="436.14329"
     inkscape:cy="496.60605"
     inkscape:document-units="mm"
     inkscape:current-layer="layer1"
     showgrid="false"
     showguides="true"
     inkscape:guide-bbox="true"
     fit-margin-top="0"
     fit-margin-left="0"
     fit-margin-right="0"
     fit-margin-bottom="0"
     inkscape:window-width="1366"
     inkscape:window-height="705"
     inkscape:window-x="-8"
     inkscape:window-y="-8"
     inkscape:window-maximized="1" />
  <metadata
     id="metadata1074">
    <rdf:RDF>
      <cc:Work
         rdf:about="">
        <dc:format>image/svg+xml</dc:format>
        <dc:type
           rdf:resource="http://purl.org/dc/dcmitype/StillImage" />
        <dc:title></dc:title>
      </cc:Work>
    </rdf:RDF>
  </metadata>
  <g
     inkscape:label="Layer 1"
     inkscape:groupmode="layer"
     id="layer1"
     transform="translate(-22.635206,12.60607)">
    <g
       id="g1243"
       transform="matrix(1.4642587,0,0,1.4642587,-10.50859,-124.41157)"
       style="stroke-width:0.68293947">
      <g
         id="g1218"
         style="stroke-width:0.68293947">
        <rect
           style="opacity:1;fill:#4467f1;fill-opacity:1;stroke:none;stroke-width:0.11268501;stroke-linecap:butt;stroke-linejoin:miter;stroke-miterlimit:4;stroke-dasharray:none;stroke-opacity:0.40816327"
           id="rect1162"
           width="63.41127"
           height="63.783482"
           x="51.020996"
           y="76.356384" />
        <g
           transform="matrix(1.0014947,0,0,1,-64.434043,0)"
           id="g1102"
           style="fill:#000000;fill-opacity:0.40306121;stroke-width:0.68242961">
          <rect
             y="76.356384"
             x="115.28273"
             height="63.783485"
             width="63.216522"
             id="rect1100"
             style="opacity:1;fill:#000000;fill-opacity:0;stroke:none;stroke-width:2.20629501;stroke-linecap:butt;stroke-linejoin:miter;stroke-miterlimit:4;stroke-dasharray:none;stroke-opacity:0.40816327" />
        </g>
        <g
           style="fill:#448ff1;fill-opacity:1;stroke-width:0.68242961"
           id="g1153"
           transform="matrix(1.0014947,0,0,1,-64.434043,0)">
          <path
             style="opacity:1;fill:#448ff1;fill-opacity:1;stroke:none;stroke-width:8.34498215;stroke-linecap:butt;stroke-linejoin:miter;stroke-miterlimit:4;stroke-dasharray:none;stroke-opacity:0.40816327"
             d="m 192.83594,288.5918 v 39.39557 c 69.41225,40.75667 122.72296,63.69514 239.28515,73.35833 V 288.5918 Z"
             transform="matrix(0.26418845,0,0,0.26458333,64.337877,0)"
             id="rect1151"
             inkscape:connector-curvature="0"
             sodipodi:nodetypes="ccccc" />
        </g>
        <rect
           y="76.356384"
           x="114.43209"
           height="63.783482"
           width="63.41127"
           id="rect1164"
           style="opacity:1;fill:#20e62f;fill-opacity:1;stroke:none;stroke-width:0.11268501;stroke-linecap:butt;stroke-linejoin:miter;stroke-miterlimit:4;stroke-dasharray:none;stroke-opacity:0.40816327" />
        <g
           transform="matrix(1.0014947,0,0,1,-1.0229488,0)"
           id="g1168"
           style="fill:#2be55e;fill-opacity:1;stroke-width:0.68242961">
          <path
             sodipodi:nodetypes="ccccc"
             inkscape:connector-curvature="0"
             id="path1166"
             transform="matrix(0.26418845,0,0,0.26458333,64.337877,0)"
             d="m 192.83594,288.5918 v 39.39557 c 69.41225,40.75667 122.72296,63.69514 239.28515,73.35833 V 288.5918 Z"
             style="opacity:1;fill:#2be55e;fill-opacity:1;stroke:none;stroke-width:8.34498215;stroke-linecap:butt;stroke-linejoin:miter;stroke-miterlimit:4;stroke-dasharray:none;stroke-opacity:0.40816327" />
        </g>
        <rect
           y="140.13986"
           x="50.920742"
           height="63.783482"
           width="63.41127"
           id="rect1170"
           style="opacity:1;fill:#fce93a;fill-opacity:1;stroke:none;stroke-width:0.11268501;stroke-linecap:butt;stroke-linejoin:miter;stroke-miterlimit:4;stroke-dasharray:none;stroke-opacity:0.40816327" />
        <g
           transform="matrix(1.0014947,0,0,1,-64.534297,63.783478)"
           id="g1174"
           style="fill:#fbf46b;fill-opacity:1;stroke-width:0.68242961">
          <path
             sodipodi:nodetypes="ccccc"
             inkscape:connector-curvature="0"
             id="path1172"
             transform="matrix(0.26418845,0,0,0.26458333,64.337877,0)"
             d="m 192.83594,288.5918 v 39.39557 c 69.41225,40.75667 122.72296,63.69514 239.28515,73.35833 V 288.5918 Z"
             style="opacity:1;fill:#fbf46b;fill-opacity:1;stroke:none;stroke-width:8.34498215;stroke-linecap:butt;stroke-linejoin:miter;stroke-miterlimit:4;stroke-dasharray:none;stroke-opacity:0.40816327" />
        </g>
        <rect
           style="opacity:1;fill:#fa014c;fill-opacity:1;stroke:none;stroke-width:0.11268501;stroke-linecap:butt;stroke-linejoin:miter;stroke-miterlimit:4;stroke-dasharray:none;stroke-opacity:0.40816327"
           id="rect1176"
           width="63.41127"
           height="63.783482"
           x="114.33183"
           y="140.13986" />
        <g
           style="fill:#fb325f;fill-opacity:1;stroke-width:0.68242961"
           id="g1180"
           transform="matrix(1.0014947,0,0,1,-1.1232029,63.783478)">
          <path
             style="opacity:1;fill:#fb325f;fill-opacity:1;stroke:none;stroke-width:8.34498215;stroke-linecap:butt;stroke-linejoin:miter;stroke-miterlimit:4;stroke-dasharray:none;stroke-opacity:0.40816327"
             d="m 192.83594,288.5918 v 39.39557 c 69.41225,40.75667 122.72296,63.69514 239.28515,73.35833 V 288.5918 Z"
             transform="matrix(0.26418845,0,0,0.26458333,64.337877,0)"
             id="path1178"
             inkscape:connector-curvature="0"
             sodipodi:nodetypes="ccccc" />
        </g>
      </g>
      <g
         id="text1184"
         style="font-style:normal;font-weight:normal;font-size:45.88117218px;line-height:1.25;font-family:sans-serif;letter-spacing:0px;word-spacing:0px;fill:#494a47;fill-opacity:1;stroke:none;stroke-width:0.18069439"
         aria-label="america">
        <path
           id="path1186"
           style="font-style:normal;font-variant:normal;font-weight:normal;font-stretch:normal;font-family:Gotham;-inkscape-font-specification:Gotham;fill:#494a47;fill-opacity:1;stroke-width:0.18069439"
           d="m 31.07734,267.88725 c 3.395207,0 5.735147,-1.23879 7.43275,-3.11992 v 2.66111 h 6.744532 v -14.26905 c 0,-3.30344 -0.825861,-6.01043 -2.661108,-7.84568 -1.743484,-1.74348 -4.496354,-2.75287 -8.304492,-2.75287 -4.175186,0 -6.836294,0.77998 -9.543284,1.97289 l 1.743485,5.32222 c 2.248177,-0.82586 4.129306,-1.33056 6.790414,-1.33056 3.486969,0 5.276334,1.60584 5.276334,4.49636 v 0.41293 c -1.743484,-0.59646 -3.53285,-1.00939 -6.010433,-1.00939 -5.826909,0 -9.910333,2.47759 -9.910333,7.84568 v 0.0918 c 0,4.8634 3.808137,7.52451 8.442135,7.52451 z m 2.110534,-4.81753 c -2.248177,0 -3.808137,-1.10114 -3.808137,-2.98227 v -0.0918 c 0,-2.2023 1.835247,-3.39521 4.817523,-3.39521 1.697603,0 3.257563,0.36705 4.450474,0.91762 v 1.23879 c 0,2.52347 -2.202297,4.31283 -5.45986,4.31283 z"
           inkscape:connector-curvature="0" />
        <path
           id="path1188"
           style="font-style:normal;font-variant:normal;font-weight:normal;font-stretch:normal;font-family:Gotham;-inkscape-font-specification:Gotham;fill:#494a47;fill-opacity:1;stroke-width:0.18069439"
           d="m 51.255736,267.42844 h 6.973938 v -13.71847 c 0,-3.30345 1.605841,-5.00105 4.221068,-5.00105 2.615227,0 4.083425,1.6976 4.083425,5.00105 v 13.71847 h 6.973938 v -13.71847 c 0,-3.30345 1.605841,-5.00105 4.221068,-5.00105 2.615226,0 4.083424,1.6976 4.083424,5.00105 v 13.71847 h 6.973938 v -16.01253 c 0,-5.91867 -3.11992,-9.03859 -8.304492,-9.03859 -3.349326,0 -5.918671,1.37643 -8.075086,3.8999 -1.284673,-2.47759 -3.716375,-3.8999 -6.928057,-3.8999 -3.532851,0 -5.643385,1.88112 -7.249226,3.94578 v -3.48697 h -6.973938 z"
           inkscape:connector-curvature="0" />
        <path
           sodipodi:nodetypes="cccccssssccsccsssccs"
           inkscape:connector-curvature="0"
           id="path1190"
           transform="scale(0.26458333)"
           d="M 409.39004,878.05604 390,906.98438 h 19.82227 l 21.38781,-20.17969 z m -9.61856,38.01623 c -27.05183,0 -45.95507,21.84925 -45.95507,48.38085 v 0.34766 c 0,28.43909 20.63579,48.03322 48.55468,48.03322 16.82068,0 29.3061,-6.5904 37.97657,-17.34181 l -15.08594,-13.35157 c -7.28319,6.76298 -13.6991,9.53711 -22.54297,9.53711 -11.79182,0 -20.11565,-6.24176 -22.7168,-18.20703 h 64.68164 c 0.17348,-2.4277 0.34766,-4.8566 0.34766,-6.9375 0,-26.3582 -14.21953,-50.46093 -45.25977,-50.46093 z m -0.002,21.15625 c 11.09817,0 18.03502,7.97575 19.5957,19.76757 H 379.6543 c 2.08093,-11.96522 9.19043,-19.76757 20.11523,-19.76757 z"
           style="font-style:normal;font-variant:normal;font-weight:normal;font-stretch:normal;font-family:Gotham;-inkscape-font-specification:Gotham;fill:#494a47;fill-opacity:1;stroke-width:0.68293941" />
        <path
           id="path1192"
           style="font-style:normal;font-variant:normal;font-weight:normal;font-stretch:normal;font-family:Gotham;-inkscape-font-specification:Gotham;fill:#494a47;fill-opacity:1;stroke-width:0.18069439"
           d="m 122.94507,267.42844 h 6.97394 v -9.08448 c 0,-5.87279 2.84463,-8.67154 7.47863,-8.67154 h 0.36705 v -7.2951 c -4.12931,-0.18353 -6.42337,2.01877 -7.84568,5.41397 v -4.95516 h -6.97394 z"
           inkscape:connector-curvature="0" />
        <path
           id="path1194"
           style="font-style:normal;font-variant:normal;font-weight:normal;font-stretch:normal;font-family:Gotham;-inkscape-font-specification:Gotham;fill:#494a47;fill-opacity:1;stroke-width:0.18069439"
           d="m 142.25961,240.12914 h 7.34099 v -6.19396 h -7.34099 z m 0.18352,27.2993 h 6.97394 v -24.59231 h -6.97394 z"
           inkscape:connector-curvature="0" />
        <path
           id="path1196"
           style="font-style:normal;font-variant:normal;font-weight:normal;font-stretch:normal;font-family:Gotham;-inkscape-font-specification:Gotham;fill:#494a47;fill-opacity:1;stroke-width:0.18069439"
           d="m 167.61971,267.97901 c 4.90929,0 7.66216,-1.88113 10.04798,-4.49635 l -4.08343,-4.12931 c -1.6976,1.60584 -3.30344,2.61523 -5.64338,2.61523 -3.80814,0 -6.23984,-3.02816 -6.23984,-6.79042 v -0.0918 c 0,-3.62461 2.47758,-6.69865 5.96455,-6.69865 2.47758,0 4.03754,1.05527 5.5975,2.70699 l 4.26695,-4.58812 c -2.29406,-2.56934 -5.18457,-4.1293 -9.81857,-4.1293 -7.52451,0 -12.89261,5.78102 -12.89261,12.80084 v 0.0918 c 0,7.01981 5.41398,12.70908 12.80085,12.70908 z"
           inkscape:connector-curvature="0" />
        <path
           id="path1198"
           style="font-style:normal;font-variant:normal;font-weight:normal;font-stretch:normal;font-family:Gotham;-inkscape-font-specification:Gotham;fill:#494a47;fill-opacity:1;stroke-width:0.18069439"
           d="m 189.15232,267.88725 c 3.39521,0 5.73515,-1.23879 7.43275,-3.11992 v 2.66111 h 6.74453 v -14.26905 c 0,-3.30344 -0.82586,-6.01043 -2.6611,-7.84568 -1.74349,-1.74348 -4.49636,-2.75287 -8.3045,-2.75287 -4.17518,0 -6.83629,0.77998 -9.54328,1.97289 l 1.74348,5.32222 c 2.24818,-0.82586 4.12931,-1.33056 6.79042,-1.33056 3.48697,0 5.27633,1.60584 5.27633,4.49636 v 0.41293 c -1.74348,-0.59646 -3.53285,-1.00939 -6.01043,-1.00939 -5.82691,0 -9.91033,2.47759 -9.91033,7.84568 v 0.0918 c 0,4.8634 3.80813,7.52451 8.44213,7.52451 z m 2.11054,-4.81753 c -2.24818,0 -3.80814,-1.10114 -3.80814,-2.98227 v -0.0918 c 0,-2.2023 1.83525,-3.39521 4.81752,-3.39521 1.69761,0 3.25756,0.36705 4.45048,0.91762 v 1.23879 c 0,2.52347 -2.2023,4.31283 -5.45986,4.31283 z"
           inkscape:connector-curvature="0" />
      </g>
    </g>
  </g>
</svg>
