<?xml version="1.0" encoding="UTF-8" standalone="no"?>
<!-- Generator: Adobe Illustrator 18.1.0, SVG Export Plug-In . SVG Version: 6.00 Build 0)  -->

<svg
   xmlns:dc="http://purl.org/dc/elements/1.1/"
   xmlns:cc="http://creativecommons.org/ns#"
   xmlns:rdf="http://www.w3.org/1999/02/22-rdf-syntax-ns#"
   xmlns:svg="http://www.w3.org/2000/svg"
   xmlns="http://www.w3.org/2000/svg"
   xmlns:sodipodi="http://sodipodi.sourceforge.net/DTD/sodipodi-0.dtd"
   xmlns:inkscape="http://www.inkscape.org/namespaces/inkscape"
   version="1.1"
   id="Layer_1"
   x="0px"
   y="0px"
   viewBox="115 -9.6 1000 184.26101"
   enable-background="new 115 -9.6 257.8 47.6"
   xml:space="preserve"
   inkscape:version="0.91 r13725"
   sodipodi:docname="Bloomberg 2015.svg"
   width="1000"
   height="184.261"><metadata
   id="metadata9518"><rdf:RDF><cc:Work
       rdf:about=""><dc:format>image/svg+xml</dc:format><dc:type
         rdf:resource="http://purl.org/dc/dcmitype/StillImage" /><dc:title></dc:title></cc:Work></rdf:RDF></metadata><defs
   id="defs9516" /><sodipodi:namedview
   pagecolor="#ffffff"
   bordercolor="#666666"
   borderopacity="1"
   objecttolerance="10"
   gridtolerance="10"
   guidetolerance="10"
   inkscape:pageopacity="0"
   inkscape:pageshadow="2"
   inkscape:window-width="1366"
   inkscape:window-height="705"
   id="namedview9514"
   showgrid="false"
   inkscape:zoom="0.56633052"
   inkscape:cx="120.74804"
   inkscape:cy="22.035177"
   inkscape:window-x="-8"
   inkscape:window-y="-8"
   inkscape:window-maximized="1"
   inkscape:current-layer="Layer_1" />
<g
   id="g9494"
   transform="matrix(3.878976,0,0,3.878976,-331.08223,27.63842)">
	<path
   d="m 115,-9.6 18.9,0 c 3.6,0 6.3,0.9 8.3,2.4 2.2,1.8 3.4,4.4 3.4,7.6 0,3.7 -1.5,6 -4.5,7.4 l 0,0.2 c 4,1.3 6.3,4.9 6.3,9.2 0,4.1 -1.6,7.3 -4.2,9.3 -2.2,1.6 -5,2.3 -8.8,2.3 l -19.4,0 0,-38.4 z m 17,15 c 2,0 3.5,-1.1 3.5,-3.4 0,-2.2 -1.5,-3.3 -3.6,-3.3 l -6.5,0 0,6.6 6.6,0 z m 0.9,14.9 c 2.3,0 4,-1.4 4,-3.9 0,-2.7 -1.8,-3.9 -4,-3.9 l -7.4,0 0,7.9 7.4,0 z"
   id="path9496"
   inkscape:connector-curvature="0"
   style="fill:#000000" />
	<path
   d="m 149.1,-9.6 9.9,0 0,38.5 -9.9,0 0,-38.5 z"
   id="path9498"
   inkscape:connector-curvature="0"
   style="fill:#000000" />
	<path
   d="m 161,15.2 c 0,-8.7 5.6,-14.5 14.3,-14.5 8.7,0 14.2,5.9 14.2,14.5 0,8.7 -5.5,14.5 -14.2,14.5 -8.7,0 -14.3,-5.8 -14.3,-14.5 z m 18.6,0 c 0,-4.8 -1.5,-7.8 -4.5,-7.8 -3,0 -4.4,3 -4.4,7.8 0,4.8 1.4,7.9 4.4,7.9 3,-0.1 4.5,-3.1 4.5,-7.9 z"
   id="path9500"
   inkscape:connector-curvature="0"
   style="fill:#000000" />
	<path
   d="m 190.6,15.2 c 0,-8.7 5.6,-14.5 14.3,-14.5 8.7,0 14.1,5.8 14.1,14.5 0,8.7 -5.5,14.5 -14.2,14.5 -8.6,0 -14.2,-5.8 -14.2,-14.5 z m 18.6,0 c 0,-4.8 -1.5,-7.8 -4.5,-7.8 -3,0 -4.4,3 -4.4,7.8 0,4.8 1.4,7.9 4.4,7.9 3,-0.1 4.5,-3.1 4.5,-7.9 z"
   id="path9502"
   inkscape:connector-curvature="0"
   style="fill:#000000" />
	<path
   d="m 221,1.4 9.2,0 0,4.1 0.2,0 c 1.8,-3.2 4.3,-4.9 8.3,-4.9 3.5,0 6.1,1.7 7.4,4.7 l 0.2,0 c 2.2,-3.6 5.1,-4.7 8.5,-4.7 6.4,0 9.1,4.7 9.1,11 l 0,17.2 -9.6,0 0,-15.5 c 0,-2.8 -0.9,-4.6 -3.3,-4.6 -2.4,0 -3.6,2.2 -3.6,5.2 l 0,14.9 -9.6,0 0,-15.5 c 0,-2.8 -0.9,-4.6 -3.3,-4.6 -2.4,0 -3.6,2.2 -3.6,5.2 l 0,14.9 -9.9,0 c 0,0 0,-27.4 0,-27.4 z"
   id="path9504"
   inkscape:connector-curvature="0"
   style="fill:#000000" />
	<path
   d="m 276,25.2 -0.1,0 0,3.6 -9.2,0 0,-38.4 9.6,0 0,13.8 0.2,0 c 1.8,-2.4 4.3,-3.7 7.8,-3.7 6.9,0 10.9,6.2 10.9,14.5 0,9.3 -4.3,14.7 -11.5,14.7 -3,0 -6.1,-1.4 -7.7,-4.5 z m 9.3,-10.3 c 0,-4.4 -1.6,-7.3 -4.5,-7.3 -3,0 -4.8,2.9 -4.8,7.3 0,4.4 1.9,7.3 4.8,7.3 2.9,0 4.5,-2.8 4.5,-7.3 z"
   id="path9506"
   inkscape:connector-curvature="0"
   style="fill:#000000" />
	<path
   d="m 296.3,15.1 c 0,-8.6 5.7,-14.5 13.9,-14.5 4.1,0 7.2,1.3 9.6,3.6 3.2,3.1 4.6,7.9 4.5,13.5 l -18.4,0 c 0.4,3.4 2,5.2 4.9,5.2 1.7,0 3.2,-0.8 3.8,-2.6 l 9.3,0 c -1.6,6.3 -6.5,9.4 -13.4,9.4 -8.5,-0.1 -14.2,-5.9 -14.2,-14.6 z m 9.6,-2.9 8.8,0 c -0.2,-3.3 -2,-5 -4.3,-5 -2.7,-0.1 -4.2,1.8 -4.5,5 z"
   id="path9508"
   inkscape:connector-curvature="0"
   style="fill:#000000" />
	<path
   d="m 335.2,6.1 0.2,0 c 2,-3.8 4.6,-5.3 7.9,-5.3 0.8,0 1.3,0.1 1.6,0.3 l 0,8.4 -0.2,0 c -5.7,-1 -9,1.7 -9,7.9 l 0,11.5 -9.7,0 0,-27.5 9.2,0 0,4.7 z"
   id="path9510"
   inkscape:connector-curvature="0"
   style="fill:#000000" />
	<path
   d="m 345.9,28.9 9.3,0 c 0.4,1.2 1.6,2.3 3.9,2.3 3.1,0 4.2,-1.9 4.2,-4.8 l 0,-2 -0.2,0 c -1.5,1.8 -3.6,3.1 -6.6,3.1 -5.9,0 -11.1,-4.4 -11.1,-13 0,-7.9 4.2,-14 10.6,-14 3.7,0 5.9,1.5 7.4,3.8 l 0.2,0 0,-3 9.2,0 0,23.8 c 0,4.4 -1.5,7.8 -3.8,9.8 -2.4,2.1 -5.8,3 -9.7,3 -7.4,0.1 -12.5,-2.9 -13.4,-9 z m 17.8,-14.8 c 0,-3.4 -1.6,-6.2 -4.4,-6.2 -2.7,0 -4.4,2.4 -4.4,6.2 0,3.7 1.7,6.3 4.4,6.3 2.7,0 4.4,-2.7 4.4,-6.3 z"
   id="path9512"
   inkscape:connector-curvature="0"
   style="fill:#000000" />
</g>
</svg>