<?xml version="1.0" encoding="utf-8"?>
<!-- Generator: Adobe Illustrator 27.9.0, SVG Export Plug-In . SVG Version: 6.00 Build 0)  -->
<svg version="1.1" id="Слой_1" xmlns="http://www.w3.org/2000/svg" xmlns:xlink="http://www.w3.org/1999/xlink" x="0px" y="0px"
	 width="500px" height="500px" viewBox="0 0 500 500" style="enable-background:new 0 0 500 500;" xml:space="preserve">
<style type="text/css">
	.st0{fill:#481B52;}
</style>
<path class="st0" d="M250,0C111.9,0,0,111.9,0,250c0,138.1,111.9,250,250,250s250-111.9,250-250C500,111.9,388.1,0,250,0
	 M156.2,403.5c-40.3,8.6-61.2-11.1-61.3-53.6L94.5,212c-0.1-42.4,20.7-71.2,61-79.7c40.3-8.6,61.2,11.2,61.3,53.6l0.1,25.8
	l-38.8,8.3l-0.1-28.4c0-19-8.3-24.4-21.3-21.6c-13.1,2.8-21.2,11.8-21.2,30.7l0.3,143.2c0.1,19,8.3,24,21.3,21.2
	c13-2.8,21.2-11.4,21.2-30.3l-0.1-37.9l38.8-8.3l0.1,35.2C217.3,366.2,196.4,395,156.2,403.5 M360.6,355.8l-0.5-190.2l-27.9,196.3
	l-38.8,8.3l-31-181.1l0.5,187.6l-35.8,7.7l-0.7-265.2l57-12.2l30.6,181.9l27.5-194.3l57-12.2l0.7,265.3L360.6,355.8z"/>
</svg>
