<?xml version="1.0" encoding="UTF-8" standalone="no"?>
<svg
   viewBox="0 0 1000 1000.0054"
   version="1.1"
   id="svg12"
   sodipodi:docname="CNN ES.svg"
   xml:space="preserve"
   inkscape:version="1.2 (dc2aedaf03, 2022-05-15)"
   width="1000"
   height="1000.0054"
   xmlns:inkscape="http://www.inkscape.org/namespaces/inkscape"
   xmlns:sodipodi="http://sodipodi.sourceforge.net/DTD/sodipodi-0.dtd"
   xmlns="http://www.w3.org/2000/svg"
   xmlns:svg="http://www.w3.org/2000/svg"><defs
     id="defs16"><style
   id="style2">.cls-1{fill:#fff;}</style>
	
	
	
</defs><sodipodi:namedview
     id="namedview14"
     pagecolor="#ffffff"
     bordercolor="#999999"
     borderopacity="1"
     inkscape:showpageshadow="0"
     inkscape:pageopacity="0"
     inkscape:pagecheckerboard="0"
     inkscape:deskcolor="#d1d1d1"
     showgrid="false"
     inkscape:zoom="0.37543594"
     inkscape:cx="685.86933"
     inkscape:cy="257.03453"
     inkscape:current-layer="svg12" /><rect
     fill="#cc0000"
     width="1000"
     height="1000.0054"
     id="rect12355"
     x="0"
     y="0" /><g
     id="g15296"><path
       fill="#ffffff"
       d="m 159.5182,500.11755 c 0,65.79139 53.51926,119.32166 119.316,119.32166 h 112.61389 c 6.26999,0 11.31442,-6.17682 11.31442,-11.28168 V 387.24118 c 0,-14.64075 11.90515,-26.54623 26.55161,-26.54623 9.3779,0 18.12637,4.97863 22.81515,12.99945 0.56903,0.96307 34.65988,59.74582 70.74799,121.9808 34.47424,59.43894 70.11889,120.9025 70.71533,121.92038 1.58685,2.70819 4.69446,4.45337 7.9223,4.45337 5.12122,0 9.27936,-4.16351 9.27936,-9.28442 V 387.24118 c 0,-14.64075 11.9162,-26.54623 26.55164,-26.54623 9.38324,0 18.12603,4.97863 22.82586,12.99945 0.55799,0.96307 34.62177,59.75116 70.68824,121.9808 34.44647,59.42825 70.05871,120.88083 70.6712,121.92038 1.57013,2.70819 4.68909,4.45337 7.92224,4.45337 5.11591,0 9.27411,-4.16351 9.27411,-9.28442 V 320.3775 h -43.14618 v 174.04477 c 0,0 -80.42114,-138.42715 -83.03088,-142.87518 -11.73584,-20.06854 -34.00367,-32.74509 -57.68842,-32.74509 -37.11664,0 -67.21399,30.108 -67.21399,67.22464 v 108.39563 c 0,0 -80.42111,-138.42715 -83.03082,-142.87518 -11.73587,-20.06854 -34.00372,-32.74509 -57.69379,-32.74509 -37.11133,0 -67.20862,30.108 -67.20862,67.22464 v 178.11514 c 0.0167,6.48334 -4.85846,12.12952 -11.94357,12.14624 h -68.45554 c -42.06291,0 -76.17012,-34.10223 -76.17012,-76.17581 0,-42.06793 34.10721,-76.16479 76.17012,-76.16479 h 57.3328 V 380.79053 H 278.8342 c -65.79674,0 -119.316,53.53061 -119.316,119.32702"
       id="path12357" /><path
       fill="#ffffff"
       d="m 836.00201,320.37451 v 292.38696 c 0,14.64075 -11.9168,26.55164 -26.55188,26.55164 -9.3836,0 -18.12603,-4.98401 -22.82586,-13.00482 -0.56372,-0.96308 -34.62714,-59.74017 -70.68793,-121.98081 -34.44684,-59.42257 -70.05878,-120.87515 -70.67151,-121.9147 -1.57049,-2.70822 -4.68915,-4.45904 -7.92267,-4.45904 -5.12091,0 -9.27337,4.16885 -9.27337,9.28442 v 225.52331 c 0,14.64075 -11.91651,26.55164 -26.55194,26.55164 -9.38324,0 -18.12604,-4.98401 -22.82581,-13.00482 -0.56372,-0.95777 -34.64923,-59.74017 -70.74271,-121.97513 -34.46853,-59.43927 -70.11352,-120.9082 -70.71527,-121.92038 -1.58685,-2.70822 -4.69449,-4.45904 -7.9223,-4.45904 -5.12125,0 -9.2901,4.16885 -9.2901,9.28442 v 220.92206 c 0,15.2044 -13.35544,28.53778 -28.57623,28.53778 H 278.83621 c -75.30591,0 -136.57782,-61.27222 -136.57782,-136.58313 0,-75.31659 61.27191,-136.58884 136.57782,-136.58884 h 57.814 v -43.15152 h -57.76493 c -99.26947,0 -179.734676,80.47055 -179.734676,179.74036 0,99.26947 80.465206,179.74005 179.734676,179.74005 h 113.69187 c 43.06369,0.0274 70.75336,-25.21149 70.69891,-71.75482 V 505.58609 c 0,0 81.00116,139.40091 83.02551,142.86948 11.74653,20.06854 34.01435,32.75079 57.6991,32.75079 37.11664,0 67.21399,-30.11371 67.21399,-67.22498 V 505.58609 c 0,0 80.41577,138.42148 83.02551,142.86948 11.74115,20.06854 34.00904,32.75079 57.69379,32.75079 37.11627,0 67.21393,-30.11371 67.21393,-67.22498 V 320.37451 Z"
       id="path12359" /><g
       id="g779"
       transform="matrix(3.0549796,0,0,3.0549796,1388.7501,-251.08995)"
       style="opacity:1;fill:#ffffff;fill-opacity:1"><path
         sodipodi:nodetypes="cccccccccc"
         inkscape:connector-curvature="0"
         id="path8454"
         d="m -172.16847,139.67191 h 5.61152 c -6.56802,23.17661 -25.82952,37.52592 -50.96225,37.52592 -28.51443,0 -51.31188,-19.15588 -71.47651,-19.15588 -12.17593,0 -20.30627,4.48983 -26.02514,16.74182 h -5.77181 c 4.77341,-14.55513 16.58443,-25.2621 36.78117,-25.2621 25.93757,0 45.21716,18.61057 71.67316,18.61057 11.1558,0 20.63428,-2.66323 29.3675,-10.74545 5.35364,-5.24063 8.7351,-11.27456 10.80236,-17.71488 z"
         style="fill:#ffffff;fill-opacity:1;stroke:none;stroke-width:0.313493" /><path
         style="fill:#ffffff;fill-opacity:1;stroke:none;stroke-width:0.313493"
         d="m -323.99921,174.78377 h -5.6115 c 6.568,-23.17661 25.82952,-37.52593 50.96229,-37.52593 27.85998,0 51.31185,19.15588 71.47647,19.15588 12.17595,0 20.30628,-4.48983 26.02514,-16.74181 h 5.77181 c -4.77339,14.55513 -16.58442,25.4666 -36.78116,25.4666 -25.61036,0 -45.76251,-18.71867 -71.67315,-18.71867 -10.30743,0 -20.63428,2.56681 -29.36751,10.64905 -5.35364,5.24062 -8.73506,11.27454 -10.80239,17.71488 z"
         id="path8452"
         inkscape:connector-curvature="0"
         sodipodi:nodetypes="cccccccccc" /></g></g></svg>
