<svg xmlns="http://www.w3.org/2000/svg" viewBox="0 0 99 22" style="fill-rule:evenodd;clip-rule:evenodd;stroke-linejoin:round;stroke-miterlimit:2;"><rect id="deportv" x="0" y="-0" width="99" height="22" style="fill:none;"/><path id="iso" d="M87.666,5.822l0,-5.822c6.063,0.009 10.983,4.934 10.983,11c0,6.066 -4.92,10.991 -10.983,11l0,-5.824c2.849,-0.01 5.159,-2.325 5.159,-5.176c-0,-2.851 -2.31,-5.166 -5.159,-5.176l0,10.305l-5.807,-0l-0,-10.307l5.807,0Z" style="fill:#2b94fc;"/><path id="logo" d="M19.841,13.816l-0,-9.081l5.527,-0c2.073,0.004 3.797,1.431 4.151,3.308c1.13,-2.135 3.454,-3.6 6.135,-3.6c3.411,-0 6.245,2.373 6.776,5.478l-0,-5.186l5.43,-0c1.534,0.003 2.877,0.785 3.614,1.952l0,-1.929l14.122,-0l2.251,6.899l2.255,-6.899l3.85,-0l-4.065,12.438l-4.41,-0l-3.875,-11.871l0,2.631l-2.974,-0l-0.755,-0.006l0.755,0.449l-0,8.797l-4.179,-0l-0,-9.24l-2.456,-0c0.055,0.258 0.084,0.526 0.084,0.8c-0,1.256 -0.606,2.378 -1.555,3.115l3.609,5.325l-4.571,-0c0,-0 -2.465,-3.637 -2.922,-4.312c-0.046,-0.067 -0.121,-0.107 -0.202,-0.107c-0.028,0 -0.05,0 -0.05,0l0,4.395l-3.956,0l-0,-5.139c-0.531,3.105 -3.365,5.478 -6.776,5.478c-3.745,-0 -6.793,-2.86 -6.864,-6.407c-0.766,1.011 -2.013,1.671 -3.422,1.673l-1.57,0l-0,4.395l-0.007,0l-0,0.024l-12.379,-0l0,-4.743c-0.663,2.721 -3.118,4.743 -6.042,4.743c-0.358,-0 -0.58,-0.01 -0.951,-0.014l-0.145,0.003l-0,-3.614l-3.937,0l0,-8.813l5.041,-0c2.92,0.004 5.371,2.024 6.034,4.742l0,-4.742l7.812,-0l-0,3.38l-3.633,0l-0,1.149l2.851,-0l-0,3.38l-2.851,-0l-0,1.149l4.25,-0Zm15.813,-5.761c1.444,0 2.617,1.282 2.617,2.86c-0,1.578 -1.173,2.859 -2.617,2.859c-1.445,0 -2.617,-1.281 -2.617,-2.859c-0,-1.578 1.172,-2.86 2.617,-2.86Zm-31.334,0.707l0,4.836c0.131,0.02 0.264,0.03 0.4,0.03c1.463,-0 2.651,-1.188 2.651,-2.651c-0,-1.437 -1.145,-2.608 -2.571,-2.65l0,-0.003l-1.234,-0.011l0.754,0.449Zm19.359,-0.498l0,1.58l1.25,-0l-0,-0.002c0.549,-0.037 0.985,-0.49 0.985,-1.044c-0,-0.553 -0.436,-1.007 -0.985,-1.043l-0,-0.002l-1.243,-0l-0.88,-0.008l0.873,0.519Zm22.616,-0.048l0,1.628l1.18,-0l0,-0.002c0.519,-0.037 0.93,-0.49 0.93,-1.044c0,-0.553 -0.411,-1.007 -0.93,-1.043l0,-0.002l-1.093,-0l-0.879,-0.008l0.792,0.471Z" style="fill:#2b94fc;"/></svg>