<?xml version="1.0" encoding="utf-8"?>
<!-- Generator: Adobe Illustrator 27.9.0, SVG Export Plug-In . SVG Version: 6.00 Build 0)  -->
<svg version="1.1" id="Слой_1" xmlns="http://www.w3.org/2000/svg" xmlns:xlink="http://www.w3.org/1999/xlink" x="0px" y="0px"
	 width="500px" height="221px" viewBox="0 0 500 221" style="enable-background:new 0 0 500 221;" xml:space="preserve">
<style type="text/css">
	
		.st0{clip-path:url(#SVGID_00000034770840742432936400000012391356640336169626_);fill:url(#SVGID_00000044163854645915159280000008449768020042324903_);}
	.st1{fill:#FFFFFF;}
</style>
<g>
	<defs>
		<path id="SVGID_1_" d="M76.3,0c-12,0-23.8,9-26.9,20.5L0.8,197.6c-1.6,6-0.6,11.9,2.8,16.4c3.4,4.4,8.9,7,15.1,7h405.1
			c12,0,23.8-9,26.9-20.5l48.6-177.1c1.6-6,0.6-11.9-2.7-16.4c-3.4-4.4-8.9-7-15.1-7H76.3z"/>
	</defs>
	<clipPath id="SVGID_00000092451926978307883940000014535808603648191933_">
		<use xlink:href="#SVGID_1_"  style="overflow:visible;"/>
	</clipPath>
	
		<linearGradient id="SVGID_00000061437889989510897130000007438425710684251524_" gradientUnits="userSpaceOnUse" x1="-66.645" y1="596.2949" x2="-39.2573" y2="596.2949" gradientTransform="matrix(18.2564 0 0 -18.2564 1216.7065 10996.7197)">
		<stop  offset="0" style="stop-color:#CC7DF6"/>
		<stop  offset="0.181" style="stop-color:#AD6FEA"/>
		<stop  offset="0.5681" style="stop-color:#6F54D3"/>
		<stop  offset="0.8519" style="stop-color:#4843C5"/>
		<stop  offset="1" style="stop-color:#393CBF"/>
		<stop  offset="1" style="stop-color:#393CBF"/>
	</linearGradient>
	
		<rect x="-0.9" y="0" style="clip-path:url(#SVGID_00000092451926978307883940000014535808603648191933_);fill:url(#SVGID_00000061437889989510897130000007438425710684251524_);" width="501.7" height="221"/>
</g>
<g>
	<path class="st1" d="M119.6,45.8H79.3v129.4h40.2c42.2,0,70.6-26,70.6-64.7C190.2,71.8,161.8,45.8,119.6,45.8 M118.4,144.3h-4.1
		V76.7h4.1c22.2,0,36.6,13.3,36.6,33.8C155,131,140.7,144.3,118.4,144.3"/>
	<polygon class="st1" points="274.5,94.6 233.6,94.6 233.6,45.8 198.6,45.8 198.6,175.1 233.6,175.1 233.6,125.7 274.5,125.7 
		274.5,175.1 309.3,175.1 309.3,45.8 274.5,45.8 	"/>
	<polygon class="st1" points="354.9,147.7 354.9,123.5 414.5,123.5 414.5,97.7 354.9,97.7 354.9,73.4 420.1,73.4 420.1,46 320.1,46 
		320.1,175.1 420.7,175.1 420.7,147.7 	"/>
</g>
</svg>
