<?xml version="1.0" standalone="no"?>
<!DOCTYPE svg PUBLIC "-//W3C//DTD SVG 20010904//EN"
 "http://www.w3.org/TR/2001/REC-SVG-20010904/DTD/svg10.dtd">
<svg version="1.0" xmlns="http://www.w3.org/2000/svg"
 width="170.000000pt" height="177.000000pt" viewBox="0 0 170.000000 177.000000"
 preserveAspectRatio="xMidYMid meet">

<g transform="translate(0.000000,177.000000) scale(0.100000,-0.100000)"
fill="#000000" stroke="none">
<path d="M472 1750 c-119 -31 -205 -83 -307 -185 -139 -138 -179 -239 -150
-378 49 -236 289 -497 473 -514 165 -15 419 114 623 317 168 167 200 257 139
386 -47 98 -214 237 -390 325 -142 71 -251 85 -388 49z m391 -102 c74 -31 209
-120 261 -172 49 -49 65 -103 49 -166 -8 -30 -14 -36 -44 -40 l-34 -5 -3 -120
c-2 -97 -6 -122 -19 -132 -11 -9 -21 -9 -34 -2 -17 9 -19 23 -19 138 l0 129
-32 13 c-83 34 -268 256 -268 321 0 26 36 58 66 58 14 0 49 -10 77 -22z m113
-373 c20 -30 2 -48 -52 -54 -35 -5 -52 -12 -67 -33 -34 -45 -1 -109 64 -122
35 -7 48 -32 27 -52 -25 -26 -87 -8 -130 38 -34 34 -38 45 -38 89 0 79 27 119
97 145 49 18 82 14 99 -11z m-302 9 c19 -7 22 -53 4 -55 -7 -1 -24 -2 -38 -3
-43 -2 -29 -30 22 -46 68 -22 88 -42 88 -90 0 -69 -63 -103 -148 -80 -44 11
-66 37 -52 60 7 12 17 12 57 2 94 -24 117 21 25 48 -56 16 -92 48 -92 82 0 29
27 76 47 81 28 7 70 8 87 1z"/>
<path d="M570 445 c0 -11 7 -13 29 -9 21 5 34 1 50 -15 12 -12 21 -25 21 -31
0 -17 -39 -50 -59 -50 -11 0 -23 -4 -26 -10 -14 -22 56 -9 80 15 33 32 32 68
-1 94 -32 25 -94 29 -94 6z"/>
<path d="M762 418 c-19 -19 -14 -37 13 -50 33 -15 32 -32 0 -25 -16 3 -24 0
-22 -7 2 -6 17 -11 33 -11 40 0 47 39 10 57 -33 15 -34 32 -1 24 27 -7 35 8 9
18 -22 8 -28 8 -42 -6z"/>
<path d="M862 414 c-49 -34 -14 -104 45 -89 31 7 22 19 -15 20 -17 0 -28 6
-30 18 -6 29 17 48 47 40 23 -6 25 -5 12 10 -17 21 -30 21 -59 1z"/>
<path d="M962 414 c-41 -28 -16 -94 36 -94 21 0 52 34 52 57 0 17 -36 53 -53
53 -7 0 -23 -7 -35 -16z m52 -20 c19 -19 4 -57 -21 -52 -26 5 -39 34 -24 52
17 20 26 20 45 0z"/>
<path d="M1182 414 c-43 -30 -16 -98 37 -92 30 3 27 22 -4 22 -37 1 -31 21 8
24 42 4 46 13 17 42 -24 24 -29 24 -58 4z m46 -22 c2 -7 -7 -12 -22 -12 -27 0
-35 15 -13 23 17 7 30 3 35 -11z"/>
<path d="M555 409 c-5 -8 -4 -10 3 -5 8 5 12 -1 12 -17 0 -26 -20 -40 -43 -31
-8 3 -14 -2 -14 -11 0 -17 22 -21 32 -5 3 5 12 7 20 4 21 -9 32 44 12 63 -11
12 -16 12 -22 2z"/>
<path d="M702 373 c4 -66 28 -70 28 -4 0 39 -4 51 -16 51 -12 0 -14 -10 -12
-47z"/>
<path d="M1072 370 c11 -27 25 -50 30 -50 5 0 18 21 28 46 23 53 23 54 10 54
-5 0 -16 -15 -24 -32 l-14 -33 -12 33 c-7 17 -18 32 -25 32 -11 0 -9 -12 7
-50z"/>
<path d="M1280 368 c0 -26 5 -48 10 -48 6 0 10 15 10 34 0 24 7 38 23 49 22
15 22 15 -10 15 -33 -1 -33 -2 -33 -50z"/>
<path d="M1355 403 c4 -10 13 -35 19 -56 9 -34 8 -41 -9 -54 -19 -14 -19 -14
4 -11 22 3 40 34 65 116 11 35 -11 26 -23 -10 -9 -26 -14 -30 -21 -18 -5 8
-10 23 -10 33 0 9 -7 17 -16 17 -12 0 -14 -5 -9 -17z"/>
</g>
</svg>
