<svg id="Capa_1" data-name="Capa 1" xmlns="http://www.w3.org/2000/svg" viewBox="0 0 1438.81 1425.04"><title>Canal 13 2016</title><path d="M-630-238.2v2.14c-2.72.78-5.44,1.65-8-.49,1.56-.49,3.11-.87,4.67-1.36C-632.31-239.17-631.24-239.27-630-238.2Z" transform="translate(704.34 968)" fill="#aca519"/><path d="M199.72-246.56c.78,1.65,1.56,3.21,2.33,4.86-3.79,1.85-5.35-1.46-7.68-3.21-10-7.39-18-17.2-28.09-24.49-19.44-17.49-38.1-35.77-58-52.68-4.37-3.69-8.84-4.67-14.58-3.79-14.29,2-28.57,4.67-42.86,6.32-25.07,2.92-42.37,16.72-55.88,36.74-1.94,2.82-3,6.12-1.85,9.52,1.94,5.73,0,10.5-3.4,14.77-6.61,8.26-11,18.08-18.37,25.76C-41-219.93-57-215.85-73.87-213.91c-18.27,2-36.45,4.37-54.23,9.33-10.4,2.92-18.47,10.2-28.38,13.9-17.4,6.51-34.11,15-53.65,13.8a118.19,118.19,0,0,1-28.57-5.64c-14.87-4.57-29.25-10.69-44.12-15.36-3.21-1-6.41-2.14-8.16-5.35-1.56-5.54-.19-10.2,4.18-13.9,4.86-2.14,9.23.1,13.8,1.26,20.8,5.05,41.5,10.79,63.17,10.5,23.42-.29,44-8.46,63.27-20.9,1-.58-.19.19.68-.49,4.28-3.6,9.91-7,8.46-13.31-1.46-6-8-6.12-13-7.19-7.09-1.56-14.38-1.56-21.58-1.65-5.05,0-10.69-.1-12.25-6.32S-187-268-180-272.41a3.15,3.15,0,0,0,1.65-3.3c-4.57-2.72-9.52.39-14.29-.1-13.22,3.4-24.88.29-36.35-7.19-8.75-5.73-19.54-8-29.16-12.54-3.79-1.85-12.15-2.33-6.12-7.68,12.63,3.4,16.52,3.5,32.27,5.73,11.76.58,18.47.19,27.12,1.46,11.57,1.65,23.13,2.92,34.11,7.19,3.5,1.36,7.09,2.14,10.59,1.07,10.11-3,20.12,1.26,30.23.29,2.33,4-1.36,4.76-3.5,5.93a14.77,14.77,0,0,1-8,1.94A145.41,145.41,0,0,0-119.06-284a526.89,526.89,0,0,0,84-30c9.91-4.47,19.83-8.36,28.77-14.87,18.08-13,27.12-32.07,36-51.32,3.69-8.07,7.87-15.94,11.27-24.2,1.07-2.62,2.53-5,5.44-5.93,12.83-.49,24.1,5.44,36.25,8,6,2.14,12.54,3.11,18.56,5.15,2.62,1.26,5.93,1.26,7.29,4.47-4.57,17.3.78,32.46,11.08,46.07,19.54,25.66,40.63,50.05,61.13,74.93,6.61,8.16,12.63,16.81,19,25.17Z" transform="translate(704.34 968)" fill="#f2911a"/><path d="M-637.76-721.53c-.19-.49-.29-1.07-.49-1.56,12.63-.87,25.27-2.82,37.71,1.36,3.4,1.17,7.19,1.07,10.79,1,24-.58,47.72,2.43,71.63,4.37,15.26,1.26,30.61,1.75,45.78-1.07a38.69,38.69,0,0,1,7.39-1.07c3.3-.1,7.48-.68,8.16,3.69.49,3.89-3.11,5.73-6.41,6.61-10.59,2.72-21.77,1.75-32.27,4.28-20.31,5-39.65-.68-58.22-3.79,5.64,2.33,12.63,3.3,19.92,4,12.15,1.07,19.44,9.43,23.91,19.73,5.54,12.63,13.22,23.81,21.38,34.79a44.43,44.43,0,0,0,8.65,8.94c7.48,5.44,13,5.35,20.51-.1,12.15-8.65,21.87-19.73,31.39-31,7.58-9,6.9-11.76-2-19.15a136.47,136.47,0,0,1-13.41-12.54c-2.24-2.43-5-4.67-4.37-8.55,16-14.19,20.9-32.07,18.27-52.77-4.08-33.92-15.06-66.19-23.52-99-2.82-11-7.39-21.67-6.51-33.34,4.37-1.56,5.05,2.33,6.51,4.67,10.11,16.43,17.3,34.31,26.82,51a317,317,0,0,1,33.43,85.24,38.13,38.13,0,0,0,3.5,9.43c3.4,6.22,8.36,9.43,15.74,8.46,21.28-2.92,42.08-8.16,63.08-12.73,8.94-1.94,17.2-6,25.27-10.69,19.24-11.27,39.65-18.85,62.59-17.79a114.9,114.9,0,0,1,27.12,4.76c17.69,5,34.89,11.37,52.39,17.11,2.24,2.43,1.17,5.05.39,7.68-1,2-1.65,4.18-3.69,5.54-3.11,1.26-6,0-8.94-.78-9.91-2.62-19.83-5.73-29.74-8.36-27.8-7.19-55.11-6.12-81.83,5.15-21.09,8.94-43.05,15.06-64.63,22.65-24.88,8.75-45.58,22.55-60.65,44.8-13.8,20.51-29.64,39.65-42.47,61-10.69,17.79-14.48,37.13-15.16,57.44-.39,12.63-.78,13.31-12.83,16.43-15.06-1.46-29.64-5-43.44-11.57-2.43-4.28-3.5-8.75-2.33-13.61,5.83-24.78-1.75-46.65-14.19-67.64-9.82-16.52-23.13-28.57-40.14-37.81-23.42-12.83-45.87-27.5-69.3-40.33-2.14-1.36-3.6-3.5-5.73-4.86Z" transform="translate(704.34 968)" fill="#b22f89"/><path d="M-144.62-749.91c.39-2.24.87-4.47,1.26-6.71-1.26-2.43-.19-4.18,1.56-5.73,7.39-2.43,14.19,1.26,21.38,1.85,17.49,1.46,34.7,4.57,50.83,12.44a95.48,95.48,0,0,1,25.27,17.49c13.41,13,24.49,28.09,35,43.54,5.83,8.55,14.29,14,22,20.31,13.9,11.57,27.7,23.42,41.89,34.6,10.69,8.46,14.68,8.75,26.14,1,8.16-5.64,16-10,26.92-8.26,8.07,1.26,14.29-5.35,19.92-10.79,14.68-14.48,29.35-29,43.74-43.74,7.58-7.78,16.33-14.38,24.1-22,1.75-1.65,3.5-3.79,6.51-2.24-1.17,2.14-2.43,4.37-3.6,6.51-25.07,34-51.61,67-78.63,99.42-8.46,10.11-12.44,20.22-6,32.75a12.45,12.45,0,0,1,.29,11.27c-6.32,5.73-14.77,5.93-22.35,8.26-10.2,3.21-11.37,5-6.71,14.68,5.35,11.27,13.22,19.54,25.56,23.62,14.29,4.67,26.82,13.61,41.5,17.49,25.85,6.9,52.58,9.33,78.82,14.19,13.31,2.43,27.12,2.92,39.65,9,.39.29.78.49,1.17.78-.68.39-1.46.78-2.14,1.17-12.73,4.47-26,5.54-39.26,7-22.94,2.72-45.78,6.41-68.62,9.52-16.81,2.24-32.07,9.43-46.46,17.88-12.54,7.39-20.9,19-25.37,33.14-1.26,4.08-1.75,8.94-6.61,11-12.15-2.92-24.39-5.73-36.54-8.65-1.56-.68-3.69-.1-4.57-2.14-1.65-5.54,1.46-9.91,4.18-13.9,14.58-21.48,16.62-44.71,12.25-69.68-3.5-20-9.52-39.56-12-59.77-.87-7.48-1.07-15-1.85-22.45-2.43-24.49-13.9-44.51-30.42-61.81-20.41-21.38-41.4-42-60.55-64.63-16.52-19.54-39-31.2-64.63-35.86-8.46-1.56-17-3.21-25.37-5.15-3.5-.68-7.78-.39-8.26-5.44Z" transform="translate(704.34 968)" fill="#da0b1e"/><path d="M20.5-899c2.14-1.17,4.18-2.33,6.32-3.5a43.53,43.53,0,0,1,1.07,7c-.19,51.8.19,103.6-1,155.41-.29,14.09,3.6,17.11,17.2,16.72,51.8-1.26,103.6-1.07,155.41-1.26,2.24,0,10.5-2.92,4,5-5.83,1.17-9.23,5.93-13.9,8.94-25.07,16.52-49.76,33.82-74.93,50.25-10.89,7.09-23.23,11.86-34.21,19-10.69,6.9-22,4.08-31.3-2.82-14.58-11.08-29.93-21.19-44.42-32.46-12.25-9.52-20.41-22.74-29.64-34.79-11-14.48-22.55-28.28-36-40.53-15-13.7-13.7-24.78-1.46-38.1,11.18-12.15,20.9-25.27,30.81-38.29C-15-850.21,1-872.37,17.78-893.84,19-895.4,20.31-897,20.5-899Z" transform="translate(704.34 968)" fill="#e4122e"/><path d="M20.5-899c3.69,3.79-.19,6-1.94,8.36C-1.37-864-21.29-837.38-41.51-811c-7.29,9.43-15.84,17.88-23,27.31s-6.8,18.66,2.62,27.21c22.55,20.41,39.65,45.39,58.51,69,7.19,9,17.88,15.65,27.89,22,11.66,7.39,20.9,18.17,34.11,23.42,8.84,3.5,16.13,1.26,23.62-2.82,38.68-20.8,73.77-47,110.5-70.75,3.3-2.14,6.32-4.57,10.59-4L201.66-718c-25.85,20.9-47.82,45.68-71.63,68.71-8.46,8.16-16.91,15.65-30.71,12-7.19-1.94-12.73,5.05-18.08,9-10.4,7.87-19,6.32-28.48-1.56C35-644.84,16-658.65-1-674.39c-10.59-9.82-19.44-22.06-27.6-34.11-22.06-32.66-53.84-46.46-91.65-49.66-7.19-.58-14.19-2.14-21.28-3.3a3.89,3.89,0,0,1-1.36-2.14c-.68-4.47,2.14-8.26,2.43-12.54,2.33-9.33,4.47-18.66,7.29-27.89.87-2.82,1.46-5.93,4.08-7.87,7.39-2.92,15.45-1.36,22.84-3.79,13.12-4.28,24.49-11.76,35.57-19.63,19.34-13.51,38.1-27.8,57.15-41.69,5.73-4.28,12.44-7.09,17.3-12.54,5.83-3.21,11.27-6.32,16.72-9.43Z" transform="translate(704.34 968)" fill="#e30623"/><path d="M-141.51-763.42l.29,1.75-2,5c-13.31-.58-25.37-6.22-37.42-10.89-39.07-15.06-74.64-9.91-110.31,11.86-22.26,13.51-49.76,14.38-75.32,18.85-20.51,3.69-25.07-.49-30.61-24.39-11.47-49.57-38.49-91.84-62-136a3.05,3.05,0,0,1-1.46-1.65c.87-3.21,3-1.46,4.76-1.36,14.19,16.33,25.95,34.6,39.36,51.61,5.35,6.71,9.82,14.09,15.45,20.7,10.3,12.05,16,26.53,22,40.92,8,19.34,21.58,27.41,42.47,25.07,9.62-1.07,19.44-.58,29-2.82,8.94-2,10.3-4.37,8.65-13.41-1.26-6.9-6-13.31-3.4-20.9a7.76,7.76,0,0,1,2.72-1.94c21.28-7.39,32.95-23.23,40-43.83,10.79-31.3,20.6-62.88,30.42-94.57,2.14-6.9,4.76-13.61,7.29-20.41.78-1.46,1.46-2.82,2.24-4.28,5.64,2.53,3.69,7.48,3.3,11.47-2.82,27.12-7.58,54-10.2,81.15-1.56,15.74-5.35,31.2-6.12,47.14-.49,11.47,4.67,18.27,14,23.33,8.36,4.47,17.11,8.16,25.76,12.05,15,6.71,29.35,14.77,44.9,20.22,2.62,1.26,5.15,2.43,6.32,5.35Z" transform="translate(704.34 968)" fill="#b6358b"/><path d="M-209.64-3.59l-6.41,11.08c-1.17-1.65-2.33-3.3-3.6-4.86C-229.86-29.15-235.4-62.1-244-94.27c-2.24-8.46-5.25-16.43-10.59-23.42-7.58-9.91-15.16-19.92-22.06-30.32-5.73-8.55-15.36-11.66-23.42-17a5.26,5.26,0,0,1-1.46-2.14,9.26,9.26,0,0,1-.58-4,9.08,9.08,0,0,1,.87-3.89,7.22,7.22,0,0,1,4.76-4.28A65.88,65.88,0,0,1-263.78-164c8.65,7.48,17.4,14.77,26.14,22.06a63.42,63.42,0,0,0,25.85,13.12c17.59,4.18,33.34-1.85,43.35-17,6.12-9.23,12.93-18.47,23.33-22.84,2-.87,3.89-1.46,5.05-3.3,9-14.68,24.59-12.25,38.1-10.4C-82-179.69-63.57-171-44.62-164.73c10.11,3.4,17.69,10.4,22.84,19.83,12.54,22.65,27.12,44,39.75,66.67C20.11-74.44,23.51-71,21.47-66c-3.79,1.56-5.73-1.26-7.58-3.5-17.4-21.28-35.38-42.18-53.07-63.37-8.55-10.3-18.37-18.37-31-23.23a220.49,220.49,0,0,1-21.38-9.52c-9.82-5.05-20.31-5.44-30.91-4.76-3.89.19-7,1.65-8.36,5.64a10.87,10.87,0,0,1-3,5c-11.18,9.43-19,21.58-27.89,32.85-9.14,11.47-16.52,23.23-20.9,37.42-9,28.67-18.17,57.24-27,85.92Z" transform="translate(704.34 968)" fill="#c26c16"/><path d="M21.19-66c-10.79-24.49-28.67-45.1-39.46-69.3-13.31-29.84-42.28-31.49-67-40.72-9.52-3.6-19.73-7-30.81-4.67a73.08,73.08,0,0,0-45.87,31.49c-22.35,34.21-56.18,26.73-79.11,7.39-17.11-14.38-32.56-31.2-55.69-36.35a4.63,4.63,0,0,1-1.36-3.79c.29-2.53,1.46-4.47,4-5.25,10.59.68,19.63,5.73,28.67,10.59,14.48,7.78,27.41,18.08,42.76,24.39,12,4.86,23.71,5.15,35.47-.39a118.61,118.61,0,0,0,19.92-12.15,92.44,92.44,0,0,1,20.12-11.76c2.33-1,5.05-1.75,6.41-3.79,7.09-11.18,18.66-11.08,29.64-11.66,17.11-1,33.82,2.14,50.34,6.12a146.21,146.21,0,0,0,35.57,3.89C-17-182-10-184.07-3.79-189.71c6-5.44,10.11-4.28,12.83,3.6,2.92,8.46,3.3,17.49,4.76,26.24,3.3,20.8,5.93,41.79,11.18,62.2,2.14,8.84,1.26,18,3,26.92V-59c-4.18-.78-7.19-2.24-6.8-7Z" transform="translate(704.34 968)" fill="#d67810"/><path d="M-447.27-711.42c7.58,7.29,15,14.87,22.84,21.77,5.54,4.86,6.9,9.23,2,15.55-11.27,14.58-23.42,28.48-38.78,38.39-12.63,8.16-21.58-2-28.57-11.08-8.75-11.37-16.91-23.23-22.55-36.74-4.57-11.08-12.93-19.34-26.92-18-8.75.78-15.36-5.25-25.07-7.87,15.94-1.36,29.35,4.67,42.86,4.37,19.73-.39,39.36-3.6,59-5.83,1.85-.19,5-1.36,3.89-4.28-.39-1-3.5-1.65-5.05-1.26-45,9.62-89.61-2.92-134.41-3-12.63,0-26.63-2.92-40.14-3.69,2.53-.58,5-1.65,7.48-1.65,53.65.29,107.3.58,160.95,1.26,7.48.1,9.91-1.94,9.82-9.72-.49-29.45-.19-58.9-.19-88.35,5.35,1.94,4.08,6.71,4.08,10.59.19,27.89.19,55.69,0,83.58a9.76,9.76,0,0,0,.39,4.08c2.43,4.08,7.29,6.61,8.36,11.86Z" transform="translate(704.34 968)" fill="#b7368c"/><path d="M-301.78-798.4c.78,3.21,1.46,6.51,2.33,9.72,6.9,24,7,24.49-17.4,28.28-16.13,2.53-32.56,2.24-48.21-3.21-5.64-1.94-9.72-6.8-11.66-12.44-14.68-43.06-46.46-74.84-71.53-111.09-2.82-4.08-5-8.55-7.48-12.83,4.47,2.53,9,5.15,13.51,7.68,31.3,23.62,61.91,48.21,93.59,71.24,13.61,9.91,28.77,16.81,46.17,17.2,2.24,1.56,2.24,3.4.68,5.44Z" transform="translate(704.34 968)" fill="#bb3d8f"/><path d="M-141.51-763.42c-25.37-11.27-50.83-22.35-76.1-34-17-7.87-20.12-17.69-17-38.39,6-39.65,11-79.4,16.23-119.15.39-2.82-.68-5.93-1.17-8.84,1.07-1.36,2.14-2.72,3.21-4.18,1.07,1.75,2.14,3.6,3.21,5.35,11.18,34.5,17.59,70.17,27.8,104.87,4.57,15.65,8.36,31.1,5.05,47.53-1.07,5.15,1.75,9.52,5.05,13.61,9.62,11.86,23.13,16.91,36.83,21.67-1,3.89-2,7.78-3.11,11.57Z" transform="translate(704.34 968)" fill="#bb3e8f"/><path d="M270.28-480.79C229.85-488.37,188.15-490.31,149-503c-22-7.09-46.55-12.34-61.81-32.95-3.6-4.76-5.93-10.59-8.16-16.23-2.14-5.44,2-7.29,6.32-8.65,9.23-2.82,18.47-5.64,27.6-8.46a2.83,2.83,0,0,1,3.79-.19q71.58,41,143.16,82C263.38-485.36,266.78-483,270.28-480.79Z" transform="translate(704.34 968)" fill="#e41332"/><path d="M-138.31-774.88c-13.31,3.3-46.36-18.56-44.22-31.39,4.76-29.55-8.07-55.4-13.7-82.71-5.05-24.69-13.9-48.4-16.81-73.57q42.57,74.5,85.24,148.89.87.58.58,1.17t-.58.58c-3.4,12.34-7,24.69-10.5,37Z" transform="translate(704.34 968)" fill="#c64e97"/><path d="M-702-478.84c-.78-.39-1.56-.68-2.33-1.07.29-.29.68-.58,1-.87,2.62-1.07,5.44-1.26,8.07-2,26.14-3.11,52.48-5.05,78.63-8.16,8.55-1,17.2-.68,25.85-.39,5.15.19,9.72,2.43,13.7,5.54,22,17.59,43.44,35.77,57.15,61,4,7.39,8.65,15.06,6,24.3a15.49,15.49,0,0,1-2.43,3.21c-2.62,2.43-2.62,5.73-1.85,8.55,2.82,11.08.19,21.48-3.3,31.68a40.46,40.46,0,0,0-.29,25.37c3.3,11.37.1,19.54-9.91,25.37-2.14,1.26-3.79,3.3-5.54,5.05-14.19,11.57-30.71,19.73-45.68,30.23-2.72,1.94-5.25,4-8,5.93s-5.44,4.28-8.94,1.56c-.39-4.37,3-6.32,5.73-8.55,12.05-9.82,24.39-19.34,37.22-28.09,11.18-7.58,17.69-16.52,13.51-30.81-2.62-8.84.49-17.11,4.28-24.88,6.32-12.93,11.37-25.95,8.94-40.72,1.85-6.32-1.36-11.76-4.76-16-7.87-9.91-16.33-19.44-29.55-22.65-1.94-.49-3.69-1.17-4.76-3-5.05-20-9.91-24.3-31.49-27.5-27.21-4-54.62-5.73-81.83-9.14-6.71-.58-13-2.43-19.44-3.89Z" transform="translate(704.34 968)" fill="#d7ce01"/><path d="M-694.81-481.1c-2.92,0-5.73-.1-8.65-.1,12.73-7.19,25.37-14.48,38.1-21.67,12.93-5.05,24.69-12.63,37.13-18.56,20-9.52,40.14-19.15,59.67-29.64,5.44-2.92,11-5.64,14.77-10.59,4.18-5.35,9.23-7.78,15.94-7a18.19,18.19,0,0,1,3.89.39c3.11,1.07,7.09.68,8.46,4.86-8,11-18.08,18.85-30.42,25.07-17.69,8.94-20.12,25.85-7.58,42,8.55,11,18.76,20.51,27.6,31.3,13.41,16.33,24.39,33.92,30.42,54.23,2.14,7.19.68,8.84-6.12,9.82-6.8-27.5-23-48.69-43.83-67.06-7.68-6.8-14.77-14.29-22-21.67-6.71-6.9-14.38-9.82-24.1-7.68-29.64,6.22-59.58,10.79-89.51,14.87a7.06,7.06,0,0,0-3.79,1.46Z" transform="translate(704.34 968)" fill="#e4da06"/><path d="M-300.22-166.38c12.15,3.6,20.51,11.66,29.06,21,33.43,36.45,36.83,83.58,47.72,128.1,1.56,6.41,5.73,12.63,3.79,19.83C-247-41.88-269.22-89.11-294.3-134.79c-2.82-5.25-7.09-9.72-10.69-14.48a3.49,3.49,0,0,1-1.36-3.11c.1-1.56.58-3.11.78-4.57.39-1.94,1.07-3.79,1.46-5.73.87-1.65,1.07-4.08,3.89-3.69Z" transform="translate(704.34 968)" fill="#9d5718"/><path d="M21-66c2.24,2.24,4.37,4.47,6.61,6.71-5.44,2.14-8-3-11.76-4.86C4.08-75.12-8.07-85.62-20.22-96.21c-12.93-11.37-26-22.55-38.49-34.41-15.65-14.87-35.18-22-54.23-30.32-8.16-3.6-12.63-1-15.36,7.29a9.09,9.09,0,0,1-2.14,3.6c-11.47,6.61-17.2,17.88-23,28.77a732.47,732.47,0,0,0-31.88,68.62c-4.86,12.05-12.15,22.84-16.33,35.18-2.62,4.67-5.35,9.23-8,13.9.29-15.36,7.39-29,11-43.44,9-36.15,22.35-70.17,46.65-99,7-8.26,14.38-16.81,21.67-23.81,8.65-8.36,24.3-3.11,37.32.58,42.86,12.05,65.89,46.94,92.23,78.14C6.41-82.6,13.7-74.34,21-66Z" transform="translate(704.34 968)" fill="#b96617"/><path d="M-637.76-721.53c26.34,11.37,49,29.25,74.45,41.79,28.87,14.29,44.71,38,55.4,66.48,4.67,12.63,5.25,25.85,2.53,39.26-1,4.86-.58,9.91-.78,14.87a4.07,4.07,0,0,1-2.14,1.26,33.55,33.55,0,0,1-14.77-3,5,5,0,0,1-1.65-1.85A19,19,0,0,1-525.9-575c1.94-8.46.78-16.43-2-24.59-8-22.55-21.09-41.21-39.36-56.86-20.9-17.88-41-36.74-61.62-54.91-1.65-.87-2.14-3.11-4.28-3.3-1.65-2.14-3.11-4.57-4.57-6.9Z" transform="translate(704.34 968)" fill="#a42682"/><path d="M82.8-400.32c11.27-45.39,45.87-59.87,87.18-65.41,33-4.47,66.19-8.75,99.33-13.12l-8.46,5c-36.06,13-72.6,24.69-108.76,37.42-15.16,5.35-27.7,15.16-39.94,25.27-2.92,2.43-4.47,5.64-5.73,9-1.07,2.82-1.75,6-5.25,7.09-6.22-1.75-12.25-3.5-18.37-5.25Z" transform="translate(704.34 968)" fill="#c1161a"/><path d="M-620.46-268.23q35.57-61.08,71-122.17c1.65-6.51-4.37-7.09-7.68-8.94-9.23-5.05-19-9-28.28-14.19-6.51-3.6-12.93-7.48-19.92-10.3l-93.59-53.36c2.24-2,4.67-1,7-.29a759.17,759.17,0,0,1,100,34.41,105.65,105.65,0,0,1,21.48,12.63c6.22,4.57,12.63,9,19,13.41,7.87,5.44,14.87,12.34,16.23,22.84-6.51,4.37-10.3,10.5-12.34,18-1.36,5.15-4,9.72-6.8,14.19-17.88,28.77-37.13,56.66-55.59,85.14-2.24,3.79-3.69,9.91-10.5,8.65Z" transform="translate(704.34 968)" fill="#a19a1e"/><path d="M-536-393.8c-6.71-19.34-24.88-27.12-39.94-36.93-30.71-20-66.28-29-100.79-39.75-7.29-2.33-14-7.09-22.16-6.51a32.76,32.76,0,0,1-3.11-1.85c37.32,4.08,74.74,7.29,111.87,12.63,14.58,2.14,24.88,11.76,22.55,29.06,9.52,12,22.94,20.12,31.88,32.75,1.75,2.43,4.28,4.37,4.76,7.68a55.69,55.69,0,0,1-7.87,29.35c-2.14,3.6-4.37,7.29-5.44,11.27-5.93,23.71-22.06,40.72-37.81,58-9.72,10.69-18.66,22.06-28.48,32.66-4.57,4.86-7.78,11.76-15.74,12.44-1.56-6.32,4.08-9.23,6.9-13.12,22.16-30.91,46.46-60.26,66.57-92.62,4.18-6.71,6-14.29,7.87-21.87,1.36-5.54,3.4-10.59,8.94-13.22Z" transform="translate(704.34 968)" fill="#c2ba0b"/><path d="M168.13-270Q185-255.84,202.05-241.7c1.26,1.65,2.62,3.3,3.89,5,.1.1-.19.58-.39.68a1.1,1.1,0,0,1-.78-.1,14.8,14.8,0,0,1-6.12-1.36c-28.18-17.79-57.24-34-85.82-51.22a37.08,37.08,0,0,0-21.48-5.54c-22.55,1.46-45.58.19-66.09,13A196.8,196.8,0,0,0,.87-262.69c-8.75-3.5-10.5-9.33-4.37-16.62,10.69-12.93,24.78-21.38,39.94-27.89,15.36-6.51,31.78-7.68,48.11-8.75,1.65-.1,3.4.19,5-.29,17.49-5.05,30.23,2.62,42.37,14.48A377,377,0,0,0,168.13-270Z" transform="translate(704.34 968)" fill="#e98509"/><path d="M-300.13-171.34c-.1,1.07-.1,2.14-.19,3.3-3.21,2.92-7.29,2.62-11.08,2.43-10-.58-19.24,2-28,6.61a94,94,0,0,1-25.76,9.33c-11.86,2.33-20.7,8.84-28.28,17.79-17.79,21-35.38,42-53.07,63.08C-448.83-66-451.84-64-454-61.12c-2,1.07-4,2.14-6,3.3-.1-2.14-.19-4.18-.29-6.32a6.18,6.18,0,0,0,1.36-2.14c4.86-18.47,15.06-34.7,22.26-52.19a384.36,384.36,0,0,1,17-36.25c6-11.27,9.91-13.41,22.16-10.89,20.9,4.18,40.82,1.75,60.55-6.22,12-5.05,24.59-6.22,36.83.49Z" transform="translate(704.34 968)" fill="#bfb70d"/><path d="M-131.21-151.22c4.86-15.45,8.46-15.26,25.37-9.43C-69.4-148.11-45-119.92-17-96.31-7.88-88.63,1.06-80.76,9.71-72.59c2.43,2.33,7.29,3.5,6,8.55Q-22.6-86.49-61-109c-20.12-12.44-38.88-27.21-60.74-36.64-1.85-.78-3.79-2.72-6-.49-2.33,3.89-4.67,7.78-7.09,11.66-7.78-.49-4.57-5.35-3.3-8.84s5.25-4.76,7-7.87Z" transform="translate(704.34 968)" fill="#915017"/><path d="M-626.2-253.27c40.24-42.08,82.9-82.51,93.69-143.84a2.24,2.24,0,0,1,3.3,0c5.73,15.06-1,28.09-7.29,41.11-4.37,8.94-7.19,18.17-4.18,27.89,4.18,13.61-3.11,21.28-12.73,28.57-15.65,11.76-32.36,22.06-46.07,36.35.78,4.67-3.79,5.35-5.83,8-8.65,6.8-18.76,11.37-27.31,18.47-1.65,1.36-3.3,1.65-5.05.19.19-6.22,4.86-10.2,7.68-15.06,1.26-.68,1.85-2.72,3.79-1.65Z" transform="translate(704.34 968)" fill="#cdc403"/><path d="M-633.29-714.43c2.24-2.33,2.82,0,3.79,1.26,7.58,6.22,13.7,13.8,20,21.19,18.17,21.38,37.61,41.79,54.33,64.44,12.25,16.62,22.74,34.5,21.87,56.47-.1,1.65.19,3.3-.78,4.86-1.07,0-2,0-3.11.1-3.79-1.75-8.75.49-11.86-3.5q-42.28-72.45-84.26-144.81Z" transform="translate(704.34 968)" fill="#75205d"/><path d="M-447.75-711.42c-2.82-2.82-5.64-5.54-8.36-8.36-.39-2.53-.87-5.25.68-7.29,9.33-12.25,7.39-26.63,6.22-40.14-3.5-41.11-9.91-81.93-11.66-123.24v-8.36c.49.58,1,1.07,1.46,1.65,9.72,37.13,19.73,74.25,28.87,111.48,5.93,24.1,8,48.11-9,69.59-2.24,2.92-4.37,5-8.16,4.67Z" transform="translate(704.34 968)" fill="#9a247b"/><path d="M199.72-246.56c-19-22.35-38.29-44.42-56.66-67.26-14-17.4-31.49-32.66-37-55.5-1.75-7.39-5.35-15.94,2.24-22.84a6.28,6.28,0,0,1,5-1.75c1.75.29,3.69.49,4.18,2.72q26.1,45.63,52.09,91.16c10,17.69,20.12,35.57,30.23,53.45Z" transform="translate(704.34 968)" fill="#f8b11f"/><path d="M199.91-238.32c1.56.68,3.11,1.46,4.76,2.14h-44.8c7.29-5.54,15.45-1.75,23-2-29-5.05-57.54-11-86-17.3-21.38-4.67-42.57-3.89-63.85-.1-6.51,1.17-10.2,6.71-16.13,8.46-5.15-.19-7.87-3-8.65-8,8.46-13.9,21.58-19.92,37.13-22.26,25-3.69,49.18-2.24,72.89,7.68,23.33,9.72,48,16.13,71.24,26.24,3.6,1.46,6.8,3.6,10.4,5.15Z" transform="translate(704.34 968)" fill="#c26c16"/><path d="M-301.78-798.4c-.58-1.65-1.17-3.3-1.65-5-1.46-1.36-1.56-3-1.17-4.86a14.51,14.51,0,0,1,5.73-7c12.05-8.46,18.66-21,25-33.72,12-23.81,22.65-48.11,33-72.6,3.3-7.87,8.26-15.06,10.89-23.23,2.72-5,5.54-9.82,8.26-14.77-10,42.18-23.81,83.19-38.78,123.82C-267.76-816-281.08-803.26-301.78-798.4Z" transform="translate(704.34 968)" fill="#aa2985"/><path d="M-303.63-808.32c0,1.65.1,3.21.1,4.86-9.72,5.54-19-.58-25.76-4.47C-370.59-831.16-407-861-442.22-892.48q61.67,35.86,123.53,71.73c4.28,2.53,8.84,4.67,13.31,7,2.24,1.36,1.94,3.4,1.75,5.44Z" transform="translate(704.34 968)" fill="#c95098"/><path d="M-454.08-61.22c15.06-23,34.31-42.67,51.7-63.76,26.44-32,63.37-39.65,102-43.05,0,.58.1,1.17.1,1.75l-1.75,5a5.69,5.69,0,0,1-2.82,1.65c-13.8,1-25.66,7.68-38.2,12.73-16.43,6.61-29.55,17.59-42.57,28.77-19,16.23-37.13,33.43-56.56,49.18-1.65,2.33-4.47,3.11-6.8,4.67-1.65,1-3.3,2-5.05,3.11Z" transform="translate(704.34 968)" fill="#afa719"/><path d="M-484-240c-48.5,2-97,4.76-145.49,4a2.6,2.6,0,0,1-.19-2.53,5.35,5.35,0,0,1,2.24-1.36c5-.39,9.82-1.75,14.77-2.24,28-2.62,55.69-7,83.39-11.27,18.85-2.92,37.71-2.72,56.56-2.33,6,.1,10.59,2.92,15.16,6.12,1.85,1.26,3.3,3.3,2.43,5.73-.78,2.14-2.92,2-4.86,2.53-8,1.56-16.13-.29-24,1.36Z" transform="translate(704.34 968)" fill="#847f23"/><path d="M112.93-392.05c-1.56-.1-3.11-.1-4.76-.19-2.43-1-4.76-1.85-7.19-2.82,8.16-26.63,31.49-36.15,53.94-44.9,32-12.44,64.92-22.45,97.58-33.34,2.53-.87,5.44-.39,8.26-.58-2.43,1.46-5,2.92-7.39,4.37C238.21-463.59,224-455.42,209-449c-17.3,7.39-34.41,15.45-51.51,23.42-14.68,6.8-29.16,14-38,28.57-1.46,2.53-4.18,3.4-6.51,5Z" transform="translate(704.34 968)" fill="#a51917"/><path d="M27.9-70.94c-1.65-8.94-3.3-17.88-5-26.73-5.25-33.72-9.52-67.55-12.63-101.47-1.36-14.38.58-28.38,9.82-40.33a4.19,4.19,0,0,1,4.08-.78A5.47,5.47,0,0,1,28-236.36v147c.1,6.12,0,12.25-.1,18.37Z" transform="translate(704.34 968)" fill="#ec870c"/><path d="M-459.13-64.43c-.49,0-.87.1-1.36.1.1-19.54.1-39.17.19-58.7.87-19.63.19-39.36.39-59,.1-7.19,0-14.29,1.56-21.48A98.92,98.92,0,0,0-457.09-239c1.07-3.6,2.43-6.71,7.09-6,7,9,6.8,20.31,8.07,30.71,2.33,19.15-1.46,38-3.79,57-2.14,18.08-5.35,36.15-6,54.43a153.21,153.21,0,0,1-7.39,38.49Z" transform="translate(704.34 968)" fill="#9d9720"/><path d="M-460.39-890.35c3.3,25.76,6.71,51.41,9.72,77.17,2,17,3.4,34.11,5.05,51.22,1.46,15.26-.49,29.64-10.11,42.28-4.47-2.43-3.11-6.71-3.21-10.4-.49-30.42-1-60.94-1.46-91.36.1-23,0-46,0-68.91Z" transform="translate(704.34 968)" fill="#74215d"/><path d="M116.72-569.43c-1.26.1-2.53.1-3.79.19-.49-3.21-.19-6.9-1.65-9.62-6.61-12.34-3.4-22.74,4.86-32.85,25.66-31.49,51-63.17,76.59-94.76,1.56-1.94,3.69-3.3,5.54-5-3.89,6.71-7.78,13.41-11.76,20-14.87,23.42-29.84,46.94-45.39,70a112.66,112.66,0,0,0-16.62,37l-7.78,15Z" transform="translate(704.34 968)" fill="#c5161a"/><path d="M27.79-236.36c-1.17-.68-2.24-1.26-3.4-1.94-2.14-5.25,2.43-6,5.35-7.58C42-252.3,55.2-253.95,68.61-252.3c33,4,66.38,5.44,99.23,10.89,6.8,1.17,13.61,1.94,20.31,3.21.58,0,1.26-.1,1.65.19,2.92,2.24-.29,1.26-.78,1.36l-29.25.58q-65.89-.29-132-.29Z" transform="translate(704.34 968)" fill="#764213"/><path d="M-127.71-811.91a12.4,12.4,0,0,0-.1-1.85q60.06-34.7,120.32-69.49c3.89-2.24,7.78-4.28,11.66-6.51-10.3,12.93-24.88,20.7-37.81,30.42-18.17,13.61-36.06,27.5-55.88,38.88a63.19,63.19,0,0,1-38.2,8.55Z" transform="translate(704.34 968)" fill="#c9151c"/><path d="M-131.21-151.22c.49,5.93-12.15,9-3.69,16.72Q-168.29-75.9-201.67-17.39c1.07-14.09,9.82-25.17,15-37.61,11.76-28.38,23.91-56.56,40.24-82.71a34.14,34.14,0,0,1,15.26-13.51Z" transform="translate(704.34 968)" fill="#9d5618"/><path d="M-450.67-244.91c-1.65,1.65-3.3,3.4-5,5.05-1.26,1.17-2.53,1-4,.29-8.16-.19-16.33-.29-24.49-.49,7.87-1.07,15.74-2,23.52-3.21,1.46-.19,2.72-1.26,4.08-1.94-1.07-1.17-2-2.62-3.4-3.3-18.17-9.33-37.52-5.15-56.18-3.5-32.95,2.92-65.7,8-98.55,12.15,0-4.18,3.5-3.69,6-4.28,29.55-7,58.9-15.06,88.83-19.15,24.2-3.3,48.5-1.65,69.88,12.83a5.63,5.63,0,0,1,1.46,2.43C-448.24-246.27-449.12-245.4-450.67-244.91Z" transform="translate(704.34 968)" fill="#9b951f"/><path d="M-626.2-253.27c-1.26.49-2.43,1.07-3.69,1.56,3.11-5.54,6.32-11.08,9.43-16.52,11.86-10.11,17.69-24.49,26.34-36.83,12.63-18.17,24-37.22,36.35-55.69,4.37-6.61,7.19-13.61,9.91-20.9,2-5.64,4.08-11.86,11.86-12.15-9.62,11.37-8.36,27.21-16.43,39.56-21.77,33.14-47.23,63.46-70.66,95.44C-624.26-257.16-625.13-255.11-626.2-253.27Z" transform="translate(704.34 968)" fill="#bcb410"/><path d="M-303.53-156.27c-.58,1.17-1.07,2.33-1.65,3.4-2.33,4.86-7.48,5.44-11.57,7.58-26.92,14-51.22,32.17-77.17,47.82-6.8,4.08-14.29,7.39-19.92,13.22-8.75,5.15-17.49,10.2-26.34,15.36l-.87-.87c1.07-5.05,6-6.32,9.33-8.94C-400.33-103.6-369.23-129-334.34-149c9.52-5.44,19.34-10,30.81-7.29Z" transform="translate(704.34 968)" fill="#857e23"/><path d="M112.93-392.05c18.17-31.88,53-38.2,82-53.07,17.2-8.75,35.28-15.84,53.07-23.62,1.56-.68,3.5-.49,5.35-.78-6.41,3.6-12.73,7.09-19.15,10.69C200-440.36,164.92-423.35,132.37-402c-1.56,1.07-3.3,2.14-4.28,3.89-3.6,2.24-7.19,4.57-10.79,6.8-1.46-.29-2.92-.58-4.37-.78Z" transform="translate(704.34 968)" fill="#851815"/><path d="M-549.22-569.62l11.86,3.5c-6.22-.49-10.5,1.56-14.77,6.71-9.43,11.18-23.81,15.16-36.15,21.77-23.33,12.34-47.53,23-71.34,34.31-1.65.78-3.79.68-5.64,1Q-607.25-536.19-549.22-569.62Z" transform="translate(704.34 968)" fill="#ccbf08"/><path d="M-303.63-808.32c-.58-1.75-1.17-3.6-1.75-5.35,2.24-3.4,4.37-6.9,6.61-10.3,9.23-10.4,16.23-22.35,22.65-34.5,10.69-20.31,21.87-40.33,32.46-60.65.49-1,1.17-1.85.68-3,4.37-7.58,8.75-15.06,13-22.65-4.08,18.85-14.19,35.38-21.28,53.07-7.58,18.76-17.4,36.64-26.24,54.91C-283.41-824.74-293.23-816.29-303.63-808.32Z" transform="translate(704.34 968)" fill="#922475"/><path d="M-413.84-84.16c6.8-10,18-14.29,27.6-20.41,26.53-16.81,51.61-36.35,81.06-48.21.1,1.17-.78,1.85-.68,3-1.26,1.36-1.26,3.69-2.82,4.57q-52.48,30.61-105.16,61Z" transform="translate(704.34 968)" fill="#645a20"/><path d="M124.59-584.59c-1.17-13.41,5.64-24.1,12.54-34.41,16.13-24.39,30.81-49.76,49.47-72.5Q161.23-647.18,136-602.86c-3.6,6.22-7.58,12.25-11.37,18.27Z" transform="translate(704.34 968)" fill="#ad1b1a"/><path d="M-243.08-922.22c-2.62,13.61-10.59,24.88-16.72,37-10.5,20.51-20.41,41.31-35,59.38-1,1.26-1.26,4.37-4,1.85l55.69-98.26Z" transform="translate(704.34 968)" fill="#7b2563"/><path d="M128.09-398.18c9.43-12.15,22.65-19,36-25.66,23.42-11.66,45.68-25.66,70.27-35.09Q181.11-428.45,128.09-398.18Z" transform="translate(704.34 968)" fill="#631d1a"/><path d="M-459.9-239.56c1.64-.1,2.91-.19,4.27-.29,4.67,13.9,3.11,27.6-1.75,41-3.4,9.43-1.07,19.15-1.56,28.77-.68,15.65-.87,31.39-1.94,47.14l1-116.63Z" transform="translate(704.34 968)" fill="#aca519"/><path d="M-127.81-146.16c5.93-4.86,11.37-.1,15.45,2.24C-94.47-133.53-76.79-122.64-61-109c-19.54-11.18-39-22.45-58.51-33.63a55.36,55.36,0,0,0-8.26-3.5Z" transform="translate(704.34 968)" fill="#b2641d"/><path d="M-605.3-423.74c19.44,7.87,38.49,16.43,56.66,27,4.57,2.62,3.79,4.76-.78,6.32C-568.08-401.48-586.64-412.56-605.3-423.74Z" transform="translate(704.34 968)" fill="#beb714"/><path d="M-449-64.43c1.65-1.65,3.4-3.21,5.05-4.86a2.24,2.24,0,0,1,3.3-.1l.49.58C-443.09-67.34-446.11-65.89-449-64.43Z" transform="translate(704.34 968)" fill="#857e23"/><path d="M-397.9-492.06c-1.56,45,10.11,86,37.13,122.46a173.66,173.66,0,0,0,25.46,27.89c-4.08,3.6-6.22,3.69-11.37-1.07-8.36-7.78-15.36-16.81-23-25.37-14-15.65-24.88-33.53-37.22-50.34-8.26-11.27-12.34-24.88-15.94-38.58,0,12.83-1.07,25.66.29,38.39.58,5.83-1.07,9.62-7.09,11.27-8.07,2.14-10.5,6.12-9.62,14.68a103.85,103.85,0,0,0,12.93,41.21c21.67,37.9,51.41,67.94,90.19,88.05,14.58,7.58,30.42,12.54,47.23,12.73,4.57.1,9,.58,10.59,6.12-1.26,9.82-2.62,19.54-8.36,28-1.17,4.37-2.43,8.75-3.6,13.12a4.25,4.25,0,0,1-1.94,1.75c-9.91,2.33-19.24-1.65-28.77-2.62-28.77-3.11-54.72-12.44-73.77-35.86-6.32-7.78-13.31-15.06-18.85-23.33-11.27-16.72-26.73-28.77-41.69-41.69-10.3-8.84-21.48-16.81-29.25-28.28a76.57,76.57,0,0,1-10.89-24.2c-3.21-12.73-2.82-25.95-5.54-38.78-1.26-5.93,3.4-11.37,2.14-17.88A175.31,175.31,0,0,0-519.19-468c-4.57-8-9.23-15.84-13.7-23.91-7.39-13.31-2.72-35.86,2.14-45.87,3.3-6.71,7.78-5.83,10.59-12.83,2.24-5.73,5.73-9.52,12.54-8.07.49-.19,1-.29,1.46-.49,14.58,4,29.06,8.07,43.64,12.05,4.76-1.36,9.43-.1,13.9,1.36,11.27,3.6,23.62,4.18,34,10.4a7.51,7.51,0,0,1,2.72,5c1,14.58,7,28,10.3,42,1.17,5,1.07,9.91,1.26,14.09.78-5.15-1.85-11,.29-16.81a2.19,2.19,0,0,1,2.14-1Z" transform="translate(704.34 968)" fill="#f6e919"/><path d="M-286.72-216.43c2.24-9.52,4.47-19,6.61-28.48a5.49,5.49,0,0,1,2.53-3c11.27-1.56,22.74-1.46,33.53-6,4.67-1.94,9.82-3.11,13.31-6.8,6.51-6.9,14.29-9,23.33-8.65,6.61.29,12.05-1.94,14.38-8.94,4.08-.58,8.16-1.26,12.34-1.65,3.4-.29,6.22,1.36,7.19,4.57,1.07,3.79-2.43,4.57-5,5.25-8.26,2.24-3.69,8.65-4.18,13.22-.58,5,3.6,5.25,7.48,5.44,8.84.39,17.69.87,26.53,1.75,6.22.58,13,2.24,14.87,8.75,1.56,5.73-3.11,10.59-7.58,13.8-19,13.9-39.85,22.65-63.56,24.1-28.48,1.85-54.81-7.68-81.83-13.31Z" transform="translate(704.34 968)" fill="#f49b1c"/><path d="M-291.77-203.12a7.63,7.63,0,0,1,1.36-.19c19.15,6.71,38.29,13.51,57.44,20,32.07,11,60.65-1.46,87.47-16.13,18.08-9.82,37.13-12.05,56.27-15.36,19-3.3,38.78-2.33,54.62-16.52,11.08-9.91,23-22.74,24.49-34.7C-4-315.18,33.23-318.48,69.1-325.19c9.52-1.75,19.15-2.92,28.67-4.28,8.65-1.17,12.54,6.22,17.59,10.79,17.79,15.84,35.09,32.36,52.48,48.59C155-276,145.29-286.21,135.57-295.64c-15-14.48-29.74-21.09-51.51-18.66C52-310.71,22.64-303.81-.59-279.9-6.71-273.58-8-268.33.67-263.47a3.89,3.89,0,0,1,1,2.53c-.58,4.08-3.3,7-5.73,10-3.5,4.37-6.8,8.84-8.94,14-9.43,22.65-27.6,32.17-50.73,32.56-17.3.19-34.41,2-51.51,3.89-9.33,1.07-17.49,5-26,9.52-18.56,9.72-37.22,20.41-58.61,23.42-14.58,2-28.18-2.33-41.4-7.48-16.81-6.61-33-14.58-50.54-19.44A5.8,5.8,0,0,1-294-196c-1.46-3,.19-5.15,2.24-7.09Z" transform="translate(704.34 968)" fill="#ea860a"/><path d="M42.66-410.81c1.17.58,2.33,1.26,3.5,1.85-5.83,12.15-12.34,24.1-17.49,36.64-12.73,30.81-35,50.64-66.09,62.4-30.32,11.47-60.16,24.3-92.14,30.61-4.86,1-9.82.87-16.91,1.46,6.9-3.6,11.86-6.22,16.81-8.84,8.16-5.83,16.91-11.08,26.14-14.29,43.74-15.36,77.17-44.32,107.2-78.14,7.78-8.84,12.44-19.63,17.59-30.13,1.56-3.11,2.72-6.12,6.71-6.51,5.73-.29,10.79.87,14.68,5Z" transform="translate(704.34 968)" fill="#e98408"/><path d="M27.6-413.82c-9.33,12.73-13.9,28.48-25,40.14-29.74,31.3-61.42,59.87-103.6,73.86-9.91,3.3-17.49,11.86-28.48,13.12-35.09,5.54-68.13-5.64-102-10.69,6.12.1,16.62.49,22.74.68,7.68-.49,10.59-1.36,18-1.85,15.65-1.17,31.1.19,46.55,2.24a20.1,20.1,0,0,0,10.69-1.17c13.61-5.64,27.21-11.47,40.92-16.72,3.69-1.36,6.61-4.08,9.62-6.61,3.89-3.3,8.26-5,13.31-6.32,11.57-3.21,20.31-11.57,28.77-19.44,20.6-19.24,40.24-39.36,53.16-64.92,1.75-3.4,4.18-5.93,8.26-6.12a13.55,13.55,0,0,1,4,.29c1.75.58,3.6,1.07,3.11,3.5Z" transform="translate(704.34 968)" fill="#e87c0d"/><path d="M-193.12-278.34c2,5.83,1,10.89-6,10C-218-270.86-230-255.89-245.8-250.74a94.07,94.07,0,0,1-32.75,4.18c-2.24-2.24-2-5.05-1.36-7.78,4.08-15.45,8.46-30.81,12.25-46.36.39-1.65,1-1.36,2.24-2.53,1.17.39,2,.29,3.21.58-3.4,4.86,1.94,3.5,4.28,4.57,14.38,6.41,29.45,11.08,42.76,19.92,7.09,4.67,14.77-1,22.06-.19Z" transform="translate(704.34 968)" fill="#f7ae27"/><path d="M-415.39-534c-15.74-4.37-31.49-8.65-47.23-13,10.3-2.24,10.59-9.62,10.5-18.47-.39-35.47,18.37-63.08,38.29-90,6.9-9.33,14.48-18.27,20.8-28.09,14.58-22.65,36-35.67,60.65-44.42,23.81-8.46,47.62-16.62,71.34-25.46,37.13-13.8,72.7-5,108.17,6.41,2.14.68,4.28,1.26,6.41,1.85a3.83,3.83,0,0,1,1.26,3.6,7.15,7.15,0,0,1-2.82,4.47c-4.08,2.53-8.16.78-12.15-.19-12.15-2.92-24.39-5.64-36.83-7.48-18.17-2.62-36.15-1.75-53.75,3.5-31.3,9.23-62.4,18.76-91.07,34.79-5.64,3.11-10.4,7.48-15.94,10.69-7.09,2.82-11.66,8.46-16.13,14.29a30.67,30.67,0,0,1-3.69,4.28c-2.82,2.82-5.93,5.44-7.87,8.94a12.93,12.93,0,0,1-1.36,1.85,234,234,0,0,0-20.41,28.48,13.35,13.35,0,0,1-1.26,1.94c-11.66,18.85-20.51,38.88-24.3,60.84A18.72,18.72,0,0,0-422-554.94c3,1.36,3.89-1.07,5.35-2.53,3-3.3,5.25-2.43,6.9,1.17,3.5,7.87,4,15.55-2.14,22.55a3.24,3.24,0,0,1-3.5-.19Z" transform="translate(704.34 968)" fill="#a72784"/><path d="M-146.37-741.74c0-1.07.78-1.85.68-2.92.68-1.65.49-3.6,1.07-5.25,12.44,5.93,26.24,6.22,39.36,9.43,29.55,7.29,51.9,24.2,71,47.62,17.2,21,37.22,39.75,55.88,59.58C37.22-616.66,46.45-596.44,47-574c.78,30,10.89,58.22,14.58,87.57,2.72,22.06-.39,41.89-12.44,60.45-3,4.57-6.22,9.33-6.41,15.16-5.05-1-10.11-2-15.06-3-1.07-.58-2.14-1.26-3.21-1.85-1.75-3.79,0-7.19,1.75-10.3C41.4-454.06,44.8-483.8,40.52-515c-3.11-22.35-6.51-44.61-11.76-66.57-4.37-18.37-12-35.38-24.39-49.76-19.92-23.13-40.63-45.68-62.59-67-19.34-18.76-43.35-27.7-68.71-33.92-4.57-1.17-9.33-1.94-13.8-3.4-3-1.07-6.32-1.85-5.64-6.12Z" transform="translate(704.34 968)" fill="#cd131c"/><path d="M8.26-859.54C5.63-836.5-1-818.91-5.84-800.93c-5.83,21.38-4.57,43.35-2.43,64.63,2.62,26.44,32.07,42.28,57.83,44.51,24.39,2.14,49.28,4.18,73.38-4.18,2.53-.87,7.78-.68,8.46.78,1.94,3.89-3,4.76-5.15,6a180.21,180.21,0,0,0-36.64,31.1c-14,15.16-29.64,13.8-50.44-1-4.28-3-8.26-6.8-12.83-9.23-31.1-16.13-44-48.79-66.67-72.6C-66.87-768.76-63.57-774.2-35-799c15-13,23.42-31.59,34.21-48,2.14-3.11,4.37-6,9-12.54Z" transform="translate(704.34 968)" fill="#e62440"/><path d="M-296.92-181.35c0,1.07,0,2.14-.1,3.3-1,1.17-.39,2.92-1.36,4.08-4.86,3.21-11.18-1.17-16-.87-8.94.39-17.4,1.07-26,4-17.4,5.93-35.18,7.48-53.07,1-13-4.67-18.37-2-24.39,10.5q-10.35,21.43-19.63,43.25c-1.26,2.82-1.56,6.8-6,7.19-3.11-2.82-1.75-6.32-.78-9.23,7.87-22.35,13.9-45.48,26.92-65.7,1.75-2,3.21-4.37,5.15-6.22,9.91-9.91,11.27-10.11,23.62-3.4,13.9,7.58,28.77,9,44.32,7.39,13.22-1.36,26.44-1.94,39.65.78,3.11.39,5.73,1.36,7.78,4Z" transform="translate(704.34 968)" fill="#d2c801"/><path d="M-444-109.43c7.78-16.81,15.45-33.72,23.33-50.54,5.35-11.37,11.86-19.92,26.92-13,16.13,7.58,33.34,5.93,49.57.58,14.77-4.86,30.81-4.67,45.68-1.75-.1,1.07-1.56,7.87-1.65,8.94-21-6.71-39.56-2.14-59,2.14a85.71,85.71,0,0,1-40.33-.78c-8.84-2.33-13.9.58-17.3,8.26-13.41,29.84-26.92,59.77-40.33,89.51-.29.68-1.26,1-1.94,1.46,1.75-12.83,3.4-25.56,5.15-38.39,4.47-28.09,8.84-56.27,12.05-84.46A125.46,125.46,0,0,0-449-246.85c0-.58.1-1.07.1-1.65a3.07,3.07,0,0,1,2.43-.39c5.15,3.3,9.52,7.19,11.37,13.31.29,15.45,3.11,30.71,2.24,46.26C-434-169.78-439.11-151-442.51-132c-1.56,8.46-3,16.91-5.15,25.07-.87.87,1,.78,0,.19-.1-.1.1-.29.39-.78a6.68,6.68,0,0,1,3.3-1.94Z" transform="translate(704.34 968)" fill="#c3bb0f"/><path d="M22.35-239.76c-13.31,19-9.72,40.14-7.48,61.13,2.82,26.92,5.25,53.94,7.78,81-6.9-23.62-9.33-48.11-13.31-72.31-.29-1.94-.1-4-.68-5.73-2.53-7.68,1.26-22.84-16.23-8.94-13.8,11-32.46,5.44-49.08,2.14-22.26-4.47-44.9-12-67.16-4.86-14.68,4.67-27.6,15.06-40.72,23.81-14.48,9.52-28.18,20.22-47,17.4-14.09-2-25.76-9.72-37.32-17.2-14.48-9.43-29.45-17.69-46-22.94a4.13,4.13,0,0,1-1.36-2.24,3.87,3.87,0,0,1,1.46-3.6,8,8,0,0,1,2.53-1c11.86,1.36,22.35,6.51,32.66,12,9.62,5.05,19.24,9.91,29.25,14.19,19.24,8.26,37.52,6,55.3-3.79,8.75-4.86,17.49-9.82,26.82-13.7a14.25,14.25,0,0,0,5.54-3.69c6.22-7.48,15-9.52,23.91-10.3a297.17,297.17,0,0,1,55,.19,176.8,176.8,0,0,0,25.85.78c15.84-.68,24.2-8.84,26.34-24.69,1.85-13.51,8.36-24.49,18.37-33.63a2.78,2.78,0,0,1,2.53.78c2.24,2.24,4.47,4.47,6.61,6.71,3.6,1.75,7.58,3.11,6.41,8.55Z" transform="translate(704.34 968)" fill="#df7e0c"/><path d="M-295.27-188c.1.58.19,1.07.29,1.65-.68,1.65-1.36,6.61-2,8.26-16-4.18-32.07-7.39-48.5-5.35-14.48,1.85-29.35,1.17-41.89-6.8-9.82-6.32-17.2-7.19-24.69,2.24-2.14-1.94-2.14-4.47-1.46-6.9A66.55,66.55,0,0,0-411-212.93c0-2.82.87-5.64,4-6.8,2.82-1.07,4.76,1,6.61,2.53,3.79,3.3,7.19,7,10.79,10.4,12.25,11.27,27.5,13.8,43.25,14.68,11.66.58,23.33-.1,35,.29C-306.25-190.09-300.22-191.16-295.27-188Z" transform="translate(704.34 968)" fill="#ded402"/><path d="M-310.14-189.71c-15-.29-30-.19-45-.87-19.15-.87-34.11-10.2-46.46-24.39-1.36-1.56-3.5-2.43-5.25-3.6a36.18,36.18,0,0,0-1.94,6c-1.26,8.16-2.24,16.43-3.4,24.59-1.07,1.65-2.24,3.3-3.3,5.05-1.75-1.85-1.56-3.89-1.26-6.22,2-12.73-.68-24.78-5.05-36.54-4.47-11-11.37-20.22-19.34-28.87-.39-1.75.29-3.21,1.07-4.67,3.6-4.18,2.14-7.48-1.65-10.59-13.61-11.27-29.25-19-45.68-25.07-7-2.53-12.93-1-17.49,5.44-2.24,3.11-4.76,7.39-10,4.18-1.94-17.69-1.94-17.69-19.83-15.45-1.65.19-3.3.29-4.57-1,17.59-10.2,17.2-25.66,13.12-42.67-1.75-7.39,3.5-13.8,4.76-20.8,1.36-7.78,3.4-15.65.87-23.81-.87-2.92-2.72-8.07,3-9.82,5,10.69,4.67,22,3.4,33.34-.49,4.18-1.75,8.16-2.24,12.34-2.24,19.15,5.05,32.75,22.06,41.89,15.94,8.55,32,16.81,47,26.82,8.65,5.73,14.68,13.12,20.8,21.77,11.18,15.94,19.54,33.63,32.66,48.21a56.57,56.57,0,0,0,37.71,19c12.44,1.26,24.88,1.46,37.42,1.75,3.21,0,7.48-1.36,8.55,3.89Z" transform="translate(704.34 968)" fill="#e2d806"/><path d="M-310.14-189.71c-14-1.07-27.89-3.11-41.89-3-27.7.19-45.58-15.84-56.37-37.71-18.17-36.83-46.94-60.06-83.1-76.88-24.59-11.37-31.49-25.76-25.85-52.58,2.72-13.22.19-25.95-.1-38.88l1.65-1.65a2.93,2.93,0,0,1,3.6-.29c4.67,12.54,4.47,25.66,3.5,38.58-1.46,20.51,5.83,36.35,23.13,47.53,8.65,5.54,16.81,12,25.95,16.72,23.81,12.25,38.58,32.95,52.29,54.62,5.15,8,10.4,15.84,16.62,22.94,6.9,7.87,15.16,14.29,25.95,17.11,16.33,4.28,32.95,4.57,49.57,6.22,7,.68,19.54-13.22,25.17-7.29-.1,1.17-4.86,16.91-5,18-5.15.78-10.4-1.36-15.16-3.4Z" transform="translate(704.34 968)" fill="#e4da06"/><path d="M-512.49-400.43h-3.4c1.46-14.77-6.9-25.85-14.58-36.64-13.31-18.56-30.91-33.34-48.79-47.23-11.18-8.65-24.78-5-37.22-4.08-26.14,1.85-52.19,5.05-78.33,7.68,13.31-8.75,29.16-6.22,43.64-9.72,17.11-4.08,34.7-6.41,52.09-9.72,7.39-1.46,14.29,0,19.24,5.15,21.28,22,46.55,40.43,60.74,68.71,4.18,8.26,7.48,16.62,8.16,25.85-.49.58-1,.58-1.56,0Z" transform="translate(704.34 968)" fill="#e2d806"/><path d="M-539.21-301.77c5.05-1.07,10.2-3.6,15.06-3.11,12.73,1.26,13.22,9.82,10,19.83-2.14,6.51-8.94,6.9-13.51,10.3-17,7.19-34.41,13.41-51.7,20-2.62,1-5.15,2.14-7.87.58-1.75-5.44,3.11-5.83,5.93-7,15.84-6.12,31-13.7,46.46-20.8,4.08-1.85,10.79-3.6,7.87-9.33-2.43-5.05-8.07-1.26-11.86.49-19.73,9.14-37.9,21.09-56.86,31.78-3.21,1.85-6.22,5.25-10.59,2.43,2.24-2.24,4.47-4.37,6.71-6.61,20.22-12.93,40.24-25.76,60.35-38.58Z" transform="translate(704.34 968)" fill="#e6dc1f"/><path d="M-529.2-396.54h-3.3c-9-11-18.17-21.87-29.64-30.61-3-2.24-6.12-5-5.44-9.52,14.87.29,39.65,22.45,41.5,37C-525.9-397.51-527.45-396.83-529.2-396.54Z" transform="translate(704.34 968)" fill="#d4ca18"/><path d="M-512.49-400.43h1.65c9.82-7.39,1.56-15-1-21.19-11.08-27.8-31.88-49-51.61-70.56-16.43-18-12.93-38.58,8.84-49.37,8.94-4.47,18.27-8.16,22.74-18.37.68-1.56,4.18-1.94,6.41-2.92a.93.93,0,0,1,1.26-.58c.58.29,1.07.68,1.65,1,2,2.82.68,5.44-.68,7.78-5.15,9.23-10.4,18.17-19.63,24.39-12.05,8.16-13.51,15.36-7.29,28.77,4,8.65,10.2,15.94,15.94,23.42,14.48,19.24,27.12,39.46,33.53,63,1.26,4.76,1.85,9.23-1.07,13.61a8.42,8.42,0,0,0-1.36,6.41c2.92,15.55.49,31.68,5.15,47.14A52.89,52.89,0,0,0-481-322.58c9.14,7.78,18.17,15.65,28.48,21.87,21.87,13.31,35.67,34,50.54,53.84,6.51,8.65,12.83,17.49,21.09,24.69,15.94,13.8,35.67,16.13,55.4,18.08a217.76,217.76,0,0,1,23.91,3.4c3,.68,5.93,1.56,8,4.08l.39-.1c1.07,1.75,1.26,3.5-.49,5-.49,0,.49-.1,0,0-17.49-5-37-4.28-54.81-5.93-24.88-2.33-43.15-14.58-54.62-35.28-19.54-35.18-48.21-59.87-82.71-79.31-19.44-11-27.21-28.38-25.27-51,1.07-12.05-.78-24.69-1.36-37.13Z" transform="translate(704.34 968)" fill="#ede20d"/><path d="M-524.15-563.4c-.39.19-.87.39-1.26.58-2.92-1.07-5.83-2.24-8.75-3.3-1.46-16.62-5.15-32.56-14.29-47-15.65-24.78-36.15-45.48-54.72-67.74-8.84-10.59-17.49-21.38-26.24-32.17,12.63,6.8,21.87,17.69,32.07,27.21,22.55,21.09,49.08,38.29,63.85,67.16,9,17.79,12.83,35.67,9.33,55.3Z" transform="translate(704.34 968)" fill="#902473"/><path d="M-440.66-69.38c-1.07,0-2.14.1-3.3.1,31-26.44,57.93-58,94.76-77.17,14.58-7.58,29.45-16.33,47.23-14.87-.49,1.65-1.07,3.4-1.56,5.05C-359.22-143.05-396.15-100.19-440.66-69.38Z" transform="translate(704.34 968)" fill="#9c951f"/><path d="M-293.62-196.31c-17.79-2.72-35.47-5.64-53.26-8.07-24.2-3.3-40.63-17.49-54.13-36.54-10.79-15.16-21-30.91-34.89-43.35A261,261,0,0,0-471-311c-25.56-16.23-36.35-40.14-32.66-68.62,5.93-46-18.27-78.43-43.35-111.87-12.93-17.3-15.06-30.32,5.64-43.25,10.2-6.32,14.19-17.3,18.76-27.7,5,1.26,9.82,2.62,14.77,3.89-2.43,1.07-5.64,1.46-7.29,3.3-24.3,26.63-25.66,50-5.54,80.86,12.44,19,23.52,40,23.52,62.3A339.08,339.08,0,0,0-493-357.55c3.69,23,20.8,36.74,37.42,49.18,22.74,17.11,40.82,38.2,57.44,60.65,19.34,26,45.68,37.52,76.59,41.21,9.91,1.17,19.73,2.24,29.64,3.4-.49,2.33-1.17,4.57-1.75,6.8Z" transform="translate(704.34 968)" fill="#efe410"/><path d="M9.14-254.65H7.49a9.71,9.71,0,0,1-6.71-6.71V-263C16.14-283.41,37.91-290,62-295.27c43.93-9.62,73.09,19.15,106.52,37.22,10.89,5.93,20.9,13.31,31.3,20.12C169.5-248.62,139.08-258.63,109-270c-27.8-10.69-82.22-10.11-99.91,15.36Z" transform="translate(704.34 968)" fill="#d97a0f"/><path d="M-606.18-256.57c20.8-11.47,41.4-23.42,62.59-34.31,6-3.11,15.06-11.86,19.83-1.26,4.37,9.52-7.39,10.79-13.61,13.8-16.72,8-33.53,15.74-50.34,23.52-2.72,5.35-8.46,5.54-13.12,7.58s-10,2.92-14.77,5.25c-4.28,2.72-9.43,2.14-14,4-1.17.1-2.24.19-3.4.19,7.39-8.65,17.79-12.73,26.82-18.76Z" transform="translate(704.34 968)" fill="#f0e63f"/><path d="M22.35-239.76c-2.14-2.82-4.28-5.64-6.51-8.46C36.93-266,62.1-263.38,86-259.49c34.31,5.54,68.13,14.09,102,21.28-38.88-3.79-77.65-7.68-116.53-11.18-16.81-1.46-33.63-1.85-47.23,11C23.71-238.79,23-239.27,22.35-239.76Z" transform="translate(704.34 968)" fill="#a65c18"/><path d="M-629.5-237.73c4.37-1.75,8.84-3.4,13.22-5.15,28-8.84,55.69-18.85,83.87-27,22.94-6.71,46.26-5.35,69,1.46,8,2.43,14.48,8.07,20.12,14.19.78,3.4-.78,5.44-4,6.41h-1.65c-41.89-24-84.07-10.3-126.15-1.17-13.22,2.92-26.24,6.32-39.36,9.52-5.05.68-10.11,1.17-15.06,1.75Z" transform="translate(704.34 968)" fill="#aca519"/><path d="M-449-246.56c13,18.17,10.69,39.56,9.23,59.29-2,28.38-9.14,56.47-14.09,84.65,3.4-32.46,6.9-64.83,10-97.29,1.46-15.45-2.72-30.13-6.71-44.8A9.77,9.77,0,0,1-449-246.56Z" transform="translate(704.34 968)" fill="#aca519"/><path d="M-265.24-303.22c-4.47,19.44-3.79,16.23-8.26,35.67-.58.58-5.93,22.06-6.51,22.65-1.26-2.62-3.5-3.3-6.22-3.3-35.47-.1-64.34-16.62-89.71-38.78-29.06-25.46-54.81-53.94-63.66-93.4-1.56-7.09-4.76-14.58-1-22,1.36-2.62,3.89-7,5.35-6.8,15.65,1.85,9.62-9,9.72-16,.1-11.47,0-22.84.1-34.31,0-1.85-.29-4.37,2.33-4.37.78,0,2.14,2.43,2.43,3.89,8.55,40.43,36.35,69,61.13,99.33,5.83,7.19,10.69,15.84,19.92,19.73,1.17.49,2.92-.49,4.47-.78,22.55,19.15,43.83,31.1,69.88,38.49Z" transform="translate(704.34 968)" fill="#f6e91f"/><path d="M-378-562.43a243.08,243.08,0,0,0-12,29.16c-5-1.17-3.89-5.93-3.4-8.84,2.43-15.36,2.53-31.2,6.12-46.26,3-12.73,7.48-25.66,17.11-35.57,10.2-10.59,20.8-20.9,32.07-29.06-5.35,3.5-10.5,8.65-16.13,13.12-1.75,1.36-3.89,3.3-5.83,1.56-2.43-2.24-.39-4.76,1.17-6.51,6.61-7.48,13.41-15,21.28-21.19,37.13-29.35,78.92-46,126.83-46.36,18.66-.1,37,1.36,55.11,6.22.87,7.58-1.26,14.38-5.73,20.51-3.6,1.75-7.09.39-10.59-.29-21.19-3.6-42.37-6.71-64.73-2.92,13.22-1,25.37,1.17,37.71,2.24,2.62,1.07,5.44,2.33,4.76,5.83-.58,2.72-3.3,3.79-5.64,4.28-16.43,3.21-31.68,10.59-46.65,17.88l-23.42,5.25c-2.53-4.37,1-7.87,3.4-10.2,4.47-4.18,9.82-7.19,14.87-10.4,2.43-1.56,5.64-2.43,7.39-6.61-17.2.58-33.24,2.92-48.21,10.79C-317.52-660.39-336.09-642-355-624c-2,1.94-4.08,4-5.05,6.51-6.41,18.37-11.47,36.93-17.88,55.11Z" transform="translate(704.34 968)" fill="#6d1f4b"/><path d="M-155.9-706.46c-6.41,3.4-12.34-.68-18.47-1.46-72.5-9.23-134.22,11.66-183.88,66.09-.49.58-.68,1.36-1.75,3.79,10.79-8,20.22-15,29.64-22,.39.49.68,1,1.07,1.46-8.94,8.16-17.49,16.72-26.82,24.3-24.3,19.63-30.52,46.85-31.78,75.91-.39,8.16-5.64,15.74-2,24.1-.58,2.24-1.17,4.37-1.75,6.61-2.33,1.07-4.18.1-5.73-1.56-3.21-9.43-.58-19.24-1.75-28.87-2-18.08,7.87-32.66,12.05-46.65-3.21,2.82-3.5,11.08-10.59,14.09-7.09-4.08-4.67-10-2.33-15.16a172.07,172.07,0,0,1,31.59-47.72,311.09,311.09,0,0,1,40.72-36.74c34.11-22.35,71.73-34.11,112.16-37,14.77-1.07,29.45,1.36,44,3.6,6,.87,12.05,2,18.17,2.92,1.46.49,1.94,1.65,2.14,3.11a20.34,20.34,0,0,1-2.72,9.72,4.14,4.14,0,0,1-1.94,1.46Z" transform="translate(704.34 968)" fill="#83225f"/><path d="M-168.53-654.76l-.78-.19-1.26-.29c-2.33-3.3.29-7.58.87-10.89a99,99,0,0,0,3.4-12c1.07-2.72,1.17-5.93,4.37-7.29a4.48,4.48,0,0,1,2.53.1c5.54,5.93,13.12,8.07,20.22,11.18C-69.3-643-27.12-589.45-10-515.39c1.26,5.64.49,12.44,7.09,15.84,3.21,17.4,2.24,34.7-1,52-.58,3-1,6-1.36,8.94-1.46,4.57-1,9.72-4.86,13.41a3.87,3.87,0,0,1-4.08.1,5.69,5.69,0,0,1-1.36-2.33c6.61-29.35,4.18-58.41-2.53-87.28-.29-1.26-.1-2.72-1.65-3.79-2.14,12.93-2,26.14-6.32,38.58-1.26,3.69-1.36,9.52-8.26,7.68.49-30.71-1.75-31.88-3.3-43.25-.87-9.23-.68-18.56-2.62-27.8-7.48-34.5-25.95-61.91-52.58-84.36-7.58-6.32-14.68-13.31-24.3-16.62-5-1.85-10.11-3.4-14.29-7-10.79-5.25-21.58-10.5-33.92-4.37-1.07.39-2.14,1.26-3.21.87Z" transform="translate(704.34 968)" fill="#ba1818"/><path d="M21.18-415.57c-9.43,1.07-9,10.4-12.73,15.94-19,28.57-41.21,54.43-70.66,71.82-23.23,13.8-48.69,24.59-74.35,33.34-10.79,3.69-24.49-1.36-36.83-2.24-13.22-1-30.13,2.92-43.35-.19,15.06-.39,21.87-1.46,33.72-2.82,5.44.58,10.59-2,15.84-3.4a23.14,23.14,0,0,1,2.53-.49c6.12-1.07,12.25-.87,18.37-.49,23.62,1.65,42.47-8.55,59.58-23.42A52.65,52.65,0,0,1-75-337c10.11-3.6,16.91-11.27,23.62-19.15,5.73-6.71,11.18-13.8,19.73-17.3,2.33-1,3.79-3.11,5.35-5.05,9.14-11.57,17.49-23.52,23.81-36.93,1.07-2.24,1.75-4.76,4-6.22a11,11,0,0,1,7.68-.58c4,2.33,10,.87,12.05,6.71Z" transform="translate(704.34 968)" fill="#d47213"/><path d="M-377.59-563.3c-2.53-7.48,2.24-12.15,3.4-18.76,8.26-46.65,41.11-71,80.76-89.32,5.93-2.14,11.57-5.05,18-5.15,2.92,0,5.64.19,7,3.11,1.26,2.72-.58,4.76-2.24,6.61-6.32,6.9-12.73,14.38-19.15,21.19-6.71,3.4-13.7,7.19-20.41,10.59-4-4.76,2-10,1.17-15.26-6.12,1.26-10.4,5.25-14.87,8.75-16.91,13.31-28.67,30.61-38.29,49.66-.39.78,0,2.82.19,3.69-6.32,8.36-10,15.94-15.55,24.88Z" transform="translate(704.34 968)" fill="#4d1c2f"/><path d="M-53-397.69c8.36-16.62,10.3-25.17,14.38-39.07,3.5,2,6.12,3.69,10.3,4.67,2.62.58,5.44,1.36,6.32,4.57-2,24.3-17,41.6-31.59,59.19a185.21,185.21,0,0,1-63.08,49.47,64.25,64.25,0,0,1-12.34,5c-2.72.68-5.05,3-6.12-1.56,5.64-3.21,12.25-6.61,17.88-9.91,8.55-1.17,11.66-8.65,17.88-13.31,12.93-9.62,24.49-20.9,35.38-32.75C-57.06-379-51.13-386.71-53-397.69Z" transform="translate(704.34 968)" fill="#8f4816"/><path d="M-34.41-472.33c10.2-7.39,7.48-19.44,9.91-29.45,1.85-7.68,1.65-15.94,4.08-24.1,10.59,32.17,15.74,64.83,6.22,98.65a2.93,2.93,0,0,1-3.4.49c-2.82-3.3-1.07-6.9-.29-10.3a35.42,35.42,0,0,0,.39-15.65c-1.17-5.54-3.3-5.35-7.09-2-4,3.4-5.44,9.43-12.15,9,1.94-14.87,2.43-20.31,2.33-26.63Z" transform="translate(704.34 968)" fill="#a01919"/><path d="M-92.73-629.49c15,9.23,25.56,22.74,34.6,37.32,14.58,23.33,25.56,47.91,20.51,76.68C-46.17-552-63-584-89.61-610.63c2.82-5,3.11-9.43-1.65-13.51-1.46-1.36-2.53-3.21-1.46-5.35Z" transform="translate(704.34 968)" fill="#da0d1d"/><path d="M-17.5-427.24c1.07,0,2.24.1,3.3.1,0,.49.1,1.07.1,1.56-4,14-9.33,27.31-18.17,39.07-7.29,9.72-12.63,21-21.38,29.74C-73-337.43-95.64-323-120-311.1c-10.69,5.25-23.33,4.28-35.09,6.41-1.85.39-2.72.87-4-1,8-3.21,15.94-6.71,23.91-9.91,11.57,2.72,19-6,27.6-10.89,33.53-18.66,58.22-46.36,77.75-79,4.18-7,.58-15.94,7.29-21.77a3.74,3.74,0,0,1,5.05,0Z" transform="translate(704.34 968)" fill="#a65418"/><path d="M-159-305.86c36.06.58,63.17-18.76,89.61-40.33,24.88-20.31,41.6-46.26,52.09-76.39.49-1.26,2.14-2,3.3-3.11h3.21a10.05,10.05,0,0,1,8.16,1.07,4.07,4.07,0,0,1,1.07,2.14c-1.26,9.14-6.8,16.23-11.47,23.91-.58,1-1.36,2.24-2.33,2.33C-25-395.57-27.12-387-31-380.8c-11.47,18.17-26.82,32.46-43.44,45.68-3.3,2.82-6.71,5.54-10,8.36-11.76,9-24.88,15.55-38.49,21.19a32.45,32.45,0,0,1-12.93,2.33c-10.2-.19-20.41-.49-30.52,1.65-4.08,1.17-7.29,2.62-11.27,1,6.12-2,12.54-3.6,18.66-5.25Z" transform="translate(704.34 968)" fill="#c16517"/><path d="M-164.65-678c-1.07,4-2.14,7.87-3.21,11.86a76.41,76.41,0,0,0-29,2c-12.05,3.11-24.49,2.72-36.45,3.79l-13.41,1.75C-233.94-670-218-674.78-202-678.37c2-.49,10.11.19,3.79-6.32,12.15-2.33,23.42-.87,33.53,6.71Z" transform="translate(704.34 968)" fill="#86235f"/><path d="M-361.84-588.18c.19-12,6.9-22.65,13.22-31.1,9.23-12.25,20.22-23.71,34.11-31.39,2.72-1.56,7.78-3.4,8.94-2.24,2.82,2.82-1.56,5.64-2.33,8.65-.68,2.62-1.46,6.71-2.24,9.33-22.06,13.51-37,28.18-51.7,46.75Z" transform="translate(704.34 968)" fill="#301a1b"/><path d="M-289.63-645.62c2.24-9,10.2-14.19,15.45-20.8,1.65-2,4.76-5,4.18-6.32-1.26-3.3-5.35-2.24-8.16-1.85-5.15.68-10.2,2.14-15.26,3.21,15.16-9.14,32.07-11,49.28-11.57,1.56-.1,3.21,1.46,4.76,2.24a37,37,0,0,1-3.6,4.18c-9,7.29-22.06,10.89-26.92,23.23-6.8,2.62-13,5.15-19.73,7.68Z" transform="translate(704.34 968)" fill="#5d1e3b"/><path d="M-92.73-629.49c1.75,2,3.4,4.18,5.25,6.22,4.67,5.15,6.32,9.72-2.14,12.63-22.74-21.28-47.91-35.57-79.7-44.22,14-10.4,27.21-4,39.75,2.14-4.67,3.5-8.75-.87-14.09-.68,2.92,1.75,5.44,2.92,7.87,4.08,9.33,5,18.76,9.91,27.21,16.52,3.4,2.43,6.51,5.05,11.18,7.09-3.6-5.54-8.26-8.75-12.63-12.34-2.62-2.14-6.9-3.21-6.22-8,9.52,2.92,17,9,23.52,16.52Z" transform="translate(704.34 968)" fill="#dc172d"/><path d="M-17.5-427.64h-5c-4.47-5.25-14.77,1.36-16.52-8.55.58-2.72,1.75-8.36,2.33-11.08a82.58,82.58,0,0,1,7.78-6.41c3.6-2.72,5.93-9.62,10.59-7.78s4,8.84,3.89,13.41c-.1,6.9-2,13.61-3.11,20.41Z" transform="translate(704.34 968)" fill="#911a14"/><path d="M-53-397.69c7.78,11.18-1,19.54-6.61,26.24C-74.36-354-91.95-339-111-326.06c-2.53,1.75-3.6,2.53-6.22.58,28-18.47,48.59-42.57,64.24-72.21Z" transform="translate(704.34 968)" fill="#6d3917"/><path d="M-229.76-661.08c19.15-2.72,35-5.93,54.13-8.55,3.11-.39,6.12.1,7.78,3.5-.68,3.21-2,7.58-2.72,10.79-20.8-4.86-37.81-6.8-59.19-5.73Z" transform="translate(704.34 968)" fill="#9d2775"/><path d="M-397.12-529.67l5,2c-1.94,11.86-3.79,23.71-5.73,35.47l-.78-.19c-4.37-4.67-4.18-10.69-4.37-16.43a197.51,197.51,0,0,0-1.26-21.48c2.62-3.4,5-1.75,7.19.58Z" transform="translate(704.34 968)" fill="#c6ae0e"/><path d="M-177.57-300.79c4,.1,7.29-1.07,11.27-1a21.36,21.36,0,0,1-16.62,2C-181.46-299.92-179.13-300.6-177.57-300.79Z" transform="translate(704.34 968)" fill="#c76715"/><path d="M-403.82-530.37c7.29,12.15,1,26,5.15,38.58v24.49c-.39,0-.87.1-1.26.1-5.15-22.16-10.3-44.22-15.45-66.38h3.21a8.8,8.8,0,0,1,5.25.39A5.55,5.55,0,0,1-403.82-530.37Z" transform="translate(704.34 968)" fill="#e6cf07"/><path d="M.87-261.63l6.71,6.71c-8.36,11.66-16.13,23-17.59,38.58-1.36,14.87-13.61,20.8-27.7,21.58-22.65,1.17-45.29-1.36-67.94-2.33-24.2-1-41.11,12.93-58.41,23.91-34.11,21.58-64.24,13.9-95.05-4.57-10.79-6.51-22.35-10.2-34.7-12.63.19-1.65,1.17-4.18,1.26-5.83,18.47,2.43,33.92,11.27,50.64,18.47,24.3,10.59,47.43,9.91,71.34-1.26,21.58-10.11,41.11-24.3,66.77-25.76,19-1.17,38.1.1,57.05-4.37,12.34-2.92,20.9-9.91,26.34-19.54A381.91,381.91,0,0,1,.87-261.63Z" transform="translate(704.34 968)" fill="#e98509"/><path d="M21.18-415.57c-4.08-1.56-8.07-3.11-12.15-4.67-.49-3.6,1.36-6.51,2.92-9.43C27-458.24,30.61-489,28.18-520.54a310.77,310.77,0,0,0-6.9-46.26c-6-26.73-16.81-51.22-35.47-71.82-11.76-13-23.42-26-35.47-38.78-22.94-24.2-50.73-39.46-83-47.33-5.93-1.46-12.05-2.33-17.2-6.12-2.14-3,.58-5,1.56-7.19.58-1.17,1.26-2.33,1.85-3.6,7.68,7.09,18,6.61,27.12,8.55,43.74,9.33,71.82,40.14,99.72,71.34C-6.91-647.47,7-634.25,16.9-617.63c13.51,22.84,17.2,48.4,21.58,73.77C44-511.6,49.37-479.14,37.7-447c-3.89,10.69-8.84,21-13.41,31.39A16.62,16.62,0,0,0,21.18-415.57Z" transform="translate(704.34 968)" fill="#c3161a"/><path d="M-148.22-738.15c-.49,2.24-.87,4.37-1.36,6.61a4.19,4.19,0,0,1-2.53,3c-3.3,1.26-6.61.78-9.82-.19-48.11-14.38-93.59-4.47-138.3,14.19-22.26,9.33-43.15,20.8-59.77,38.78-21.77,20.22-37,44.9-49.57,71.53-5.73,12.15-7.48,23.81.29,35.57-2.14,9-4.47,10.11-11.47,5.25-10.5-7.29-12.25-11.86-8.84-24a238.57,238.57,0,0,1,20.8-50.54c8-9.52,13.7-20.7,21.77-30.13,2.33-3.79,6.12-6.22,8.36-10l3.3-3.3a85,85,0,0,1,15.06-15.06c46.07-30.61,96.12-50.15,151.91-51.61,17.11-.49,33.82,4.76,50.54,8.94,3,.78,6.41.68,9.62,1Z" transform="translate(704.34 968)" fill="#9f257e"/><path d="M-408.79-637.85c-6.12,17-11.76,34.31-18.56,51-5.25,12.83,2.72,18.76,11.27,23.81,4.76,2.82,4.37-3.5,5.64-6.32a11.12,11.12,0,0,1,2.62-8.75c1.46-1.75,2.92-3.89,5.35-2.82s1.56,3.69,1.94,5.83c2,13-5.05,25.27-3,38.29.29,1.85-.29,4.67-3.69,4.18-1.65-.49-3.3-1-5-1.56,3.11-8.07,4.18-16-.87-23.91-4.37.87-3.3,11.66-7.78,7.48-5.25-5-15.65-8-15.06-16.23,2-25.95,11.57-49.76,27.12-71Z" transform="translate(704.34 968)" fill="#a6267d"/><path d="M-387.11-668c-6.8,10.3-11.76,22.06-21.77,30.13A106.14,106.14,0,0,1-387.11-668Z" transform="translate(704.34 968)" fill="#a6267d"/><path d="M-360.29-696.35l-15.06,15.06A27,27,0,0,1-360.29-696.35Z" transform="translate(704.34 968)" fill="#a6267d"/><path d="M-378.75-678c-.78,5-4.76,7.39-8.36,10C-386.24-672.93-382.25-675.36-378.75-678Z" transform="translate(704.34 968)" fill="#a6267d"/><path d="M63.94-656.12c-8.46-.19-15.74-5.64-23.13-10.3C28.47-674.29,15.25-680.9,4.76-691.5c-2.82-2.82-4.86-5.05-1-8.84,3.11-3,5.15-4.18,8.75-.49,15.06,15.45,35.18,15.65,54.62,17.88,7.78,1,18.66.29,18.47,10.89-.29,11.08-9.72,15.65-21.67,15.94Z" transform="translate(704.34 968)" fill="#e8415c"/><path d="M-15.36-763.9c0,7.68-2.72,15.26-.78,23,.58,2.43-.78,6.9-2.72,8.07-2.72,1.75-5.64-1.36-7.58-3.6-8.55-10-22.74-16.81-21-32.95,1.26-12.34,9.23-19,21.28-20.6,6.8-.87,8.07,4.28,8.75,9.62s1.36,11,2,16.43Z" transform="translate(704.34 968)" fill="#e73a55"/><path d="M-420.55-228.1a67.52,67.52,0,0,1,5,45.1c-13.41,23-21.58,48-28.48,73.57l-6.12,12.54c7.09-46.36,20.31-92,12.83-139.66,5.35.78,4.86,5.64,5.64,8.94,2.62,12.05,1.85,24.39,2,36.54.1,3.4-1.07,7.19,2.14,10.79,5-4.47,7.09-9.91,7.58-16.13A73.36,73.36,0,0,0-421.61-218c-.68-3.3-1.94-7,1.07-10.11Z" transform="translate(704.34 968)" fill="#dbd220"/><path d="M-420.55-228.1c1.36,14.87,7.87,29.84-.58,44.61-2,3.5-3.79,8.94-8.46,7.78s-2.43-6.71-2.62-10.3c-.87-16.91,2.24-34.21-5.05-50.44-3.3-3.89-6.71-7.78-10-11.76l3.5-5c.68-1.36,1.36-2.62,3.21-1.85,10.79,5.83,15,16.72,20,26.92Z" transform="translate(704.34 968)" fill="#ece334"/><path d="M-440.57-255c-1.07.58-2.14,1.26-3.21,1.85-33.72-26.82-70-20.8-107-8.84-21.58,6.9-43.64,12.54-65.51,18.66L-587.71-255c20.12-7.29,40.14-14.48,60.26-21.77,5-1.75,9.82-3.79,14.87-5.44,26.14-8.46,48.69-.29,69.39,15.55,2.62,1.94,5.35,4.28,4.37,8.36-.58,1.17-1.17,2.24-1.75,3.3Z" transform="translate(704.34 968)" fill="#c6be0b"/><path d="M-438.91-258.22c-19.63-20.12-42.57-29.45-70.85-22-5.83,1.56-11.86,2.43-17.79,3.6,4.47-2.82,8.94-5.54,13.41-8.36.29,0,.68.1.78-.1,27.5-29.55,46.65-.1,68,10.2,5,2.24,18.47,5.73,6.41,16.62Z" transform="translate(704.34 968)" fill="#d5cb01"/><path d="M-393.82-315.08c-12.34-11.47-21.87-24.78-26.63-41.11-.78-2.62-2.43-6.41,1.17-8.26,3.21-1.65,5.93.78,8.07,2.82,18.17,18.27,36.15,36.54,54.23,54.91a4.13,4.13,0,0,1-3.3,1.36c-4.76-1-7.29-4.67-10-8.07-4.08-5.25-8.26-10.5-14.48-13.41a17.8,17.8,0,0,1-7.39-7.29c-3.3-4.86-8.16-8.16-12.15-12.34-1.07-1.17-2.62-2.72-4.28-1.75-2.14,1.26-1.17,3.6-.39,5.15a111.07,111.07,0,0,0,15.16,22.65,8.81,8.81,0,0,1,1.07,2.14,3.48,3.48,0,0,1-1.07,3.21Z" transform="translate(704.34 968)" fill="#f7ea36"/><path d="M-355.33-305.07c14.29,11.18,28.57,22.35,42.76,33.72,1.17,1,2.14,3.79,1.65,5a6.07,6.07,0,0,1-7.19,2.82c-17.4-5-34-11.66-47.14-24.78.29-.19.58-.49.87-.68,4.08-.78,6.51,2.33,9.62,4,8.16,4.28,15.94,9.72,26.14,9.82-4.37-8-11.66-12.83-18.76-17.88a16.47,16.47,0,0,1-6.12-5.44c-1.07-2.14-3-3.89-1.85-6.51Z" transform="translate(704.34 968)" fill="#f7ea36"/><path d="M-393.81-315.08v-3.4c8.36.68,11.47,8.46,16.81,13,3.11,2.62,7.48,5.05,6.51,10.4a2.13,2.13,0,0,1-3.21-.1l-1.65-1.65a104.6,104.6,0,0,1-16.72-16.72c-.58-.49-1.17-1.07-1.75-1.56Z" transform="translate(704.34 968)" fill="#f7ea3a"/><path d="M-392.17-313.43l16.72,16.72A34.51,34.51,0,0,1-392.17-313.43Z" transform="translate(704.34 968)" fill="#f7ea36"/><path d="M-355.33-305.48c1.07,1.65,2.24,3.4,3.3,5.05-5.83,1.56-8.16-1.26-8.36-6.71h3.4A13.26,13.26,0,0,1-355.33-305.48Z" transform="translate(704.34 968)" fill="#f7ea3a"/><path d="M-373.7-295.46h3.4c.39.1.78.1,1.17.19,2.43,1.46,5,2.92,3.79,6.51C-369.52-289.24-371.66-292.35-373.7-295.46Z" transform="translate(704.34 968)" fill="#f7ea36"/><path d="M-159.59-684.6l-1.75-.29c-.58-.29-.78-.68-.58-1s.29-.58.49-.58c1.65-6.71,3.4-13.31,5.05-20,.1-.58.29-1.07.39-1.65,3.11-1.36,6-.19,8.94.49,27.5,6.9,51.51,20.6,73.57,38.1a27.22,27.22,0,0,1,7.19,8.07c1.07,1.94,2.14,4.18.68,6.32-1.75,2.53-4.47,2.14-6.8,1.17-7.68-3.21-15.65-5.83-23.52-8.75-9.33-3.4-18.56-7.48-28.77-8.07-12.05-3.5-24-7.39-34.89-13.8Z" transform="translate(704.34 968)" fill="#8d1914"/><path d="M-161.54-686.44c.1.49-1.07,2-1.07,2.53-1.07,2.24-1,3.6-2,5.83l-33.53-6.71c-15.84-.87-31.68-1.75-47.53-2.72,28.57-8.46,56.37-4.76,84.17,1.07Z" transform="translate(704.34 968)" fill="#912e50"/><path d="M-124.6-672.93c17.69,1.65,33.34,10,49.86,15.55,2.53.87,5.35,4.28,7.39,1.65,2.14-2.82-1.07-5.64-3.3-7.58-21.87-19.54-46.85-33.63-75.22-41.4-3.5-1-6.8-2.24-10.3-3.3,1.07-2.82,2-5.64,3.11-8.55,24.3,6.71,47.72,15.45,68.52,29.93,53.65,37.32,85.33,88.44,94,153.27,4.08,30.61,2.53,61.13-9.43,90.29-1.36,3.3-2,8-7.48,7.29-.1,0-.19-.39-.19-.58s.1-.58.1-.87c2-18.27,4.47-36.45,3.3-54.91-.19-2.92-1.07-5.73-1.56-8.65-3.5-3.79-2.92-8.94-3.6-13.41A214.88,214.88,0,0,0-28.29-573.6c-1.17-2.53-2.53-5-2-8,3.89-5.73,7.19,1.65,10.89.58,1.56-13.7-22.94-47.72-37-51.22-1.46,3.79,3.5,7.19.87,11.08-3.69,1.36-5.73-1.36-7.78-3.5-15.94-17-34.5-30.42-54.81-41.5-2.62-1.46-6.51-2.43-6.41-6.8Z" transform="translate(704.34 968)" fill="#a01919"/><path d="M-361.94-676.33c16.23-20.22,38.49-31.49,61.81-40.82,31-12.34,62.59-23.71,96.7-20.9,17.59,1.46,34.89,5.35,52.39,8.16a4.58,4.58,0,0,1,1.56,3.11,8.73,8.73,0,0,1-.49,3.5,5.39,5.39,0,0,1-3.11,3.4c-13.7,3.21-26.53-2.72-39.85-3.89-44.22-3.69-84.26,8.16-122.56,28.57-4.37,2.33-8.65,4.67-13,7.09-6.71,3.69-12.34,9-19.15,12.63-4.76,2.62-10,5.54-14.29-.87Z" transform="translate(704.34 968)" fill="#922473"/><path d="M-152.21-719.68c.58-1.17.29-2.43.87-3.6,12.15,5,25,7.68,37.13,12.63,32,13,56.56,35.67,79.89,60.35C-5.74-619.87,9.91-583.42,15.54-543c5.44,39,3.11,77.75-14.09,114.3-1,2-1.75,4.08-4,5.15l-8.26-2c1.07-3.89,2.24-7.78,3.3-11.57,7.19-2.62,7-9.91,8.36-15.26C19.14-522.48,5.15-586.24-40-642.22c-27.89-34.7-63.66-59.09-107.69-70-2.24-.58-5.15-.87-5.35-4.28-.1-1.17.78-2.14.78-3.21Z" transform="translate(704.34 968)" fill="#a21917"/><path d="M-361.94-676.33c9.23,5.25,14.77-3.11,21.77-6.12,4-1.75,6.71-5.93,11.66-5.54C-347.17-671.18-367-655.54-381-634.45c-6.61,9.82-12.15,20.41-18,30.71-2.33,4.18-1.94,8.55.19,12.73,1.46,3.79-.58,6.51-3.3,8.16s-4,4.18-5.05,6.9c-1.07,2.24-2.24,4.47-3.3,6.71-7.48-6.12-8.65-14.68-5.83-22.65,11.47-32.36,28.48-61.33,54.33-84.46Z" transform="translate(704.34 968)" fill="#932471"/><path d="M-407.13-576c-.58-6.9,7.19-9.14,8.36-15.06,5.54-7.58,11.08-15.06,16.52-22.65-14.38,26.44-16.91,54.81-14.87,84.07-2.24-.39-4.47-.78-6.61-1.17-1.17-.58-2.24-1.17-3.4-1.65,1.65-15.45,3.3-31,5.05-48-2.33,2-3.69,3.3-5.05,4.47Z" transform="translate(704.34 968)" fill="#98266c"/><path d="M-29.16-582.74C-17.4-556.5-6.52-530.06-5.74-500.81c-5.35,2.82-4-2.92-4.28-4.18-4.37-20.12-9.82-39.75-18.56-58.51-23.23-49.86-60.06-85.62-110.21-108.17-7.39-3.3-17.2-3.5-20.9-13l35,11.66c25.37,14,48.59,30.81,68.62,51.8,12.34,10.59,22,22.94,26.92,38.49Z" transform="translate(704.34 968)" fill="#cd2e18"/><path d="M-116.34-646.21c6.41,5.54,12.93,10.89,19.15,16.62,1.94,1.85,6.12,4,3.3,7.09-2,2.24-4.76-1.07-7-2.53-3-1.94-5.83-4.08-8.65-6.22a3.35,3.35,0,0,1,1.17-1.17c-7.87-7.87-16-15.16-28.09-15.36-4.47-1.36-8.84-3.11-12.34-7.39,7.19-3.3,12.93,2.43,19.24,2.33,4.47,2.24,8.84,4.37,13.22,6.61Z" transform="translate(704.34 968)" fill="#e84863"/><path d="M-150.94-726.39c-.1-1.17.87-1.75.78-2.82.58-.58.1-1.65.58-2.24,48.11,8.75,87.08,32.07,118.38,70,16.91,20.51,37,38.78,45.68,64.73,19.15,57.34,27.31,115-2.14,171.83A50.75,50.75,0,0,1,9-420.24c-2.72-.1-5.35-.29-8.07-.39a2.93,2.93,0,0,1-.39-2.53c8.07-19.24,16.33-38.68,18.27-59.67,6-63.46-7.09-121.29-52.77-168.62C-44.32-662.24-54.82-673-66-683.14c-20.8-18.66-45.39-29.84-72.21-36.74-4.57-1.26-10.11-1.07-12.73-6.51Z" transform="translate(704.34 968)" fill="#b51819"/><path d="M.87-422.18c0,.49.1,1,.1,1.46-8,20.22-17.2,39.07-36.54,51.8-8.75,5.73-14.87,15.36-22.35,23.13-4.67,4.76-9.62,9.14-16.43,10.59,18.37-19.63,36.45-39.26,52.58-61.13,5.93-8.07,12.54-17.4,19.34-25.76A2.24,2.24,0,0,1,.87-422.18Z" transform="translate(704.34 968)" fill="#c76715"/><path d="M-166.3-301.77c3.89-1,8-3.3,11.66-2.82,26.92,3.3,48.11-10.79,70.27-22.26-18.37,17.88-39.94,27.31-66.09,25.17C-155.7-302.15-161-301.77-166.3-301.77Z" transform="translate(704.34 968)" fill="#c76715"/><path d="M.87-421.81h-3.4a6.89,6.89,0,0,1-.1-1.36C7.67-449,15.74-475.65,15.54-503.64c-.29-39.85-6.41-78.92-28.48-112.93C-44.52-665.37-85.53-703-144-717.37c-3.11-.78-6.8-1.26-7.48-5.54.1-1.07.29-2.14.39-3.11,25.27,7.48,51.41,13.61,72.6,30.32C-29.16-656.82,11-611.53,20.4-546c6.12,42.28,1.46,83-16.52,122-.29,1-1.94,1.56-3,2.24Z" transform="translate(704.34 968)" fill="#b11918"/><path d="M-136.46-647.76c2.24-4.37,4.86-3.89,16.91,3.11,9.52,5.54,14.29,10.59,12.44,13.22-.29.39-1.56.19-2.43.19-8.94-5.44-17.88-11-26.92-16.52Z" transform="translate(704.34 968)" fill="#ee7d9a"/><path d="M50.73-679.64c3.89.39,10.2.87,16.43,1.94,4,.68,7.87,2.72,7.87,7.29s-3.89,6.8-7.87,7.29c-11.37,1.17-20.6-3.6-27.6-12.25C36.83-679.06,37.8-679.74,50.73-679.64Z" transform="translate(704.34 968)" fill="#ea516d"/><path d="M-20.8-768c-2.92,5.83.49,16.91-8.46,16.72-6.71-.19-12.15-8.07-11.66-16.72.39-6.9,3.69-11.86,11.08-11.86C-22.17-779.84-22.36-773-20.8-768Z" transform="translate(704.34 968)" fill="#ea516c"/><path d="M-360.39-306.72c2.14,3.11,4.18,6.22,8.36,6.71,1.65,1.65,3.3,3.3,5.05,5,3.4,2,5.83,5.15,8.65,7.78,1.85,1.85,3.69,3.69,2.14,6.51s-4.57,3-7.29,2.14c-8.46-2.92-15.84-7.87-22.84-13.31-1.36-1-2.53-2.14-3.89-3.11l-23.42-23.42a86,86,0,0,1-9.91-14.38c-1.36-2.62-2.62-5.25-.1-7.58,2.82-2.53,5.73-1.26,8.16,1.07,1.65,1.56,3.6,2.72,5.15,4.28l6.71,6.71c5.64,3.69,9.43,9.62,15.06,13.41,2.62,2.72,5.44,5.44,8.16,8.26Z" transform="translate(704.34 968)" fill="#f7ec55"/><path d="M-390.42-335.2c-4.67.29-8.07-8.55-11.76-3.79-3.5,4.47,2.82,9.52,5,14.29a57.21,57.21,0,0,0,3.6,6.22,64.54,64.54,0,0,1-18.47-27.7c-.78-2.14-1.36-4.76,1.36-5.73a5.72,5.72,0,0,1,5.15,1C-400.52-345.89-395.57-340.45-390.42-335.2Z" transform="translate(704.34 968)" fill="#f7ea3a"/><path d="M-368.74-315.08c-6.9-2.33-10.59-8.36-15.06-13.41C-376.71-326.26-373.12-320.23-368.74-315.08Z" transform="translate(704.34 968)" fill="#f7ea3a"/><path d="M-370.3-295.06c7,4.28,13.8,8.94,21.09,12.73,3.4,1.75,8.36,5,11.27.87,2.62-3.69-2.82-5.73-4.86-8.46-1.26-1.75-2.82-3.4-4.18-5.05,8.26,4,14.58,10.59,21.09,16.91,1.46,1.46,2.82,3.11.87,5-2.24,2.24-5.35,2-7.78.87-10.89-5.25-21.67-10.69-32.56-16.13l-5-6.71Z" transform="translate(704.34 968)" fill="#f7ea3a"/><path d="M-29.16-582.74Q-42.58-602-55.89-621.13c.87-5.25-8.84-10.5-2.53-14.19,5.15-3,11.37,3.4,15.16,7.87,8.46,10.11,17.69,19.83,23,32.27,2.53,5.83,7.87,12.44,3.3,17.59-4.47,4.76-7-5.83-12.25-5.15Z" transform="translate(704.34 968)" fill="#b6242e"/><path d="M280.1,305.38c-2.14-20.72-7.3-40.32-17.93-58.31-10.31-17.36-24.52-30.32-43.08-38.08-22.21-9.28-45.22-10.08-68.31-4.56-34.35,8.24-56.73,30.4-69.26,63-5.63,14.8-8.17,30.32-9.36,46.16A182.13,182.13,0,0,0,76,369.69c5.71,24.32,16.58,45.68,35.31,62.47,19.2,17.28,42,25,67.44,24.88a133.11,133.11,0,0,0,28.64-3.12A112.86,112.86,0,0,0,258,427.44c3.49-3.2,3.41-3.36.32-6.8-6.11-6.72-12.3-13.44-18.57-20-2.46-2.56-4.28-6.8-7.85-7-3.17-.08-5.71,3.36-8.65,5-.32.16-.63.48-1,.64-14.68,9-30.23,14.32-47.76,12.64-19.91-1.92-34.2-12.08-44-29.12-5.63-9.68-8.33-20.32-10.23-31.28-.79-4.72-.56-5,4.44-5.12H274.47c5.24,0,5.08-.08,5.55-5.28A180.28,180.28,0,0,0,280.1,305.38ZM226,304.9H175.61v.35c-16,0-32.13,0-48.16.45h-4c-1.59-.61-2.46-1.33-2.38-3a11.9,11.9,0,0,1,.08-1.68c2.38-14.72,6.51-28.56,16.66-39.92a44.37,44.37,0,0,1,28.4-15c16.42-2,32,.56,45.14,11.84a49.36,49.36,0,0,1,12,15.76,86,86,0,0,1,7.54,26.16C231.62,305,231.31,305.24,226,304.9Z" transform="translate(704.34 968)" fill="#96a6b2"/><path d="M733.7,305.7c-2.14-20.24-7-39.6-17.22-57.35-10.39-18-24.91-31.36-44-39.44a97,97,0,0,0-40.3-7.52h0a122.76,122.76,0,0,0-19.12,1.2c-20.07,3.2-37.84,11.36-52.6,25.68C545.27,243,535.9,261,530.83,281.3a196.71,196.71,0,0,0-4.92,63.91c1.67,21.2,6.82,41.2,17.3,59.67,14.6,25.76,35.94,42.72,64.74,49.52,11.11,2.56,22.29,2.8,33.72,2.08,18.88-1.28,36.34-6.32,52.52-16.08a113.26,113.26,0,0,0,18.57-14c1.67-1.6,2-3,.24-4.8q-12.5-13.32-24.83-26.64c-1.51-1.68-2.94-2-4.84-.56-2.22,1.68-4.68,3.2-7.06,4.72-14.92,9.36-30.86,14.56-48.79,12.8-15-1.44-27-8.16-36.58-19.44-9.36-11-14-24.16-16.26-38.32-1.27-7.68-1.35-7.68,6.43-7.68h144.4c1.35,0,2.62-.08,4,0,2.86.24,3.89-.88,4.13-3.84C734.49,330.33,735,318.09,733.7,305.7Zm-53.08-.8c-9.28.08-18.49,0-27.77,0H629.6c-16.82,0-33.56,0-50.38-.08-4.52,0-4.92-.24-4.28-4.4,2.46-15.6,7.06-30.32,18.72-41.84a44.11,44.11,0,0,1,26.5-12.88c14.36-1.76,28.17,0,40.62,8.48,12,8.24,18,20.16,21.58,33.76a91.14,91.14,0,0,1,2.3,12.32C685.22,304.58,684.9,304.9,680.62,304.9Z" transform="translate(704.34 968)" fill="#96a6b2"/><path d="M357.62,323.93c-.16,20.32,2.66,38.32,11.59,55,7.2,13.44,17.31,23.44,32.42,26.64,18.4,3.92,35.08,0,49.57-12.64a178.45,178.45,0,0,0,14.33-13.6c2-2.08,3.29-2.4,5.4-.16q12.8,13.2,25.84,26.16c1.88,1.84,2,3.36.31,5.28-16.29,19.36-34.38,36.16-60,41.12-36.49,7.12-68.84-.72-95.07-28.8-12.84-13.76-21.38-30.08-26.78-48.24a169.46,169.46,0,0,1-6.5-56.39c.86-19.52,4.23-38.56,12.22-56.47,13.31-30.16,34.54-51.52,66.33-59.75,33.52-8.64,64.61-2.64,92.49,18.88a140,140,0,0,1,17.07,16.48c2.82,3,2.74,3.52.08,6.72-7.67,9.36-15.27,18.72-22.95,28-3,3.6-3.05,3.6-6.42.16-8.07-8.24-16.76-15.76-27.25-20.64-12.37-5.76-25.3-7.84-38.69-4.88-15.43,3.44-26,13.44-33.28,27.28-5.09,9.68-7.75,20.16-9.4,30.88a106.41,106.41,0,0,0-1.33,19Z" transform="translate(704.34 968)" fill="#96a6b2"/><path d="M-242.55,328.36v-69.3c0-1.36-.08-2.64,0-4,.24-3-1-4-3.91-4-8,.16-15.94.08-23.91.08-7.09,0-7.09,0-7.09-7.2v-32c0-6.16.08-6.24,6.46-6.24h22.2s6.27.19,6.26-5.89v-52a32.87,32.87,0,0,0-.07-5.68c-.56-3.92,1-6.08,4.6-7.92,12.77-6.64,25.31-13.6,37.92-20.48.63-.4,1.35-.72,2-1,2-1,3.25-.72,3.16,1.84v83.91a41.26,41.26,0,0,1,.09,4.56c0,1.84,2.7,3.49,2.7,3.49h49.83a26.82,26.82,0,0,1,3.41-.69c2.86-.24,4.21.88,4,3.92a55.25,55.25,0,0,0,.23,8v28.56c-.23,5-.31,5-5.31,5h-49.83c-4.92,0-5,0-5,5.07,0,42.48-.08,84.87.08,127.35a49.27,49.27,0,0,0,1.35,11.84c2.54,10.4,6.66,14.56,20,15.6,11.5.88,22.45-2,32.85-7,1.59-.8,3.33-2.88,5.08-1.44,1.51,1.28.24,3.6,0,5.44-1.35,10.32-2.86,20.72-3.81,31.12-.4,4.16-2,6.48-5.63,8.16A99.22,99.22,0,0,1-178,456a80.1,80.1,0,0,1-23.56-1.12c-19.44-4.08-31.42-16.4-37.21-35.12a88.63,88.63,0,0,1-3.65-27C-242.54,371.4-242.55,328.36-242.55,328.36Z" transform="translate(704.34 968)" fill="#96a6b2"/><path d="M-35.09,231.15c5.2-4.4,8.67-8.56,13.13-11.76a71.63,71.63,0,0,1,41.63-13.92c11.73-.16,23.13.88,34.2,4.8,12,4.24,12.06,4.64,8.67,16.16-3.14,10.56-6.11,21.2-9.25,31.84-1.32,4.56-1.32,4.56-5.87,2.56-13.55-6-27.59-8.4-42.46-6.32-17.18,2.32-28,12-34.28,27-4.54,11-5.7,22.56-5.78,34.16q-.25,54,0,108c0,4.56-1.32,7.12-5.7,9.2-13.05,6.16-25.94,12.8-38.91,19.2-1.73.88-3.3,2-5.78,2.24-1.07-2-.58-4.32-.58-6.48V216.51c0-6,.08-6.08,6.2-6.08H-41c5.62,0,5.62.08,5.62,5.28.25,4.72.25,9.44.25,15.44Z" transform="translate(704.34 968)" fill="#96a6b2"/><path d="M-426.94,303.94c-2.06-20.56-7-40-17.41-57.91s-24.69-31-43.61-39c-22.16-9.28-45.11-10-68.15-4.48C-590.3,210.82-612.54,233-625,265.7c-5.62,14.64-8.15,29.92-9.34,45.6-1.42,19.12-.47,38,3.88,56.63,5.7,24.24,16.62,45.6,35.3,62.39,19.23,17.28,41.95,25,67.35,24.8a132.4,132.4,0,0,0,28-3,112.88,112.88,0,0,0,50.65-26.32c3.88-3.52,3.8-3.6.55-7.2-6.89-7.52-13.85-15-20.82-22.48-5-5.36-5-5.28-10.84-1.44-13,8.56-26.51,15-42.42,15.52-8.94.32-17.65-.48-25.88-4.08-12.51-5.52-21.84-14.56-28.26-26.8-5.07-9.68-7.68-20.16-9.5-30.88-.47-2.56.16-4.16,3.09-3.92,1.35.08,2.61,0,4,0H-507c19.39,0,38.78,0,58.17.16,5.78,0,11.63-.08,17.49,0,2.69.08,4-.64,4.19-3.76C-426.23,328.57-425.68,316.33-426.94,303.94Zm-53.82-1h-98.38c-1.35,0-2.61-.08-4-.08-1.58-.08-2.45-.8-2.37-2.48a12,12,0,0,1,.08-1.68c2.14-13.52,5.86-26.32,14.4-37.28,7.84-10,18.12-16.16,30.63-17.68,16.38-2,31.9.56,45,11.84a49.5,49.5,0,0,1,11.16,14.24c4.59,8.64,7,18,8.31,27.68C-475.06,302.66-475.46,302.9-480.76,302.9Z" transform="translate(704.34 968)" fill="#96a6b2"/><path d="M-326.74,270.07c0,50.24-.09,100.55.09,150.79,0,4.88-1.62,7.36-6.31,9.52-13.31,6-26.37,12.64-39.59,19-1.45.72-2.9,1.36-4.44,2a1.86,1.86,0,0,1-2.73-1.44,27.24,27.24,0,0,1-.26-4.56q0-151.07-.09-302.13c0-4.48,1.45-6.88,5.72-8.8,14.16-6.64,28.07-13.68,42.15-20.56a16.43,16.43,0,0,1,2.73-1.2c1.37-.4,2.47.16,2.56,1.6.17,1.68.09,3.44.09,5.12q.13,75.23.09,150.71Z" transform="translate(704.34 968)" fill="#96a6b2"/></svg>