<?xml version="1.0" encoding="UTF-8" standalone="no"?><svg version="1.1" width="500" height="96.809311" viewBox="0 0 500 96.809311" id="svg1" xmlns="http://www.w3.org/2000/svg" xmlns:svg="http://www.w3.org/2000/svg"><path d="M11.77522.0942h83.18791l-3.34675 27.13945H8.48617Z" id="path470" stroke-width="1.33333" fill="#ed1c24"/><path d="M389.69837 27.23563h-93.80518L299.23994.09618s53.22102-.09617 70.49333 0c11.05967.07693 22.19627 5.05859 20.54213 22.88869Z" id="path471" stroke-width="1.33333" fill="#ed1c24"/><path d="M294.58906 37.82982h31.90953l-7.17435 58.95282H287.4147Z" id="path472" stroke-width="1.33333" fill="#ed1c24"/><path d="M356.60204 37.82982h31.87107l-7.17436 58.95282h-31.85183Z" id="path473" stroke-width="1.33333" fill="#ed1c24"/><path d="M7.15512 37.82982h83.20714l-2.67355 22.02316H36.41034l-1.50027 11.32894h51.35531L83.1879 96.78264H0Z" id="path474" stroke-width="1.33333" fill="#ed1c24"/><path d="m198.05074 37.82982-7.27053 58.95282h31.87107l4.57774-36.92966h37.10277c10.92502-.07694 21.27302-5.75103 23.44648-22.02316Z" id="path475" stroke-width="1.33333" fill="#ed1c24"/><path d="M270.28285 0H123.92984c-12.19448 0-23.25415 9.86714-24.73518 22.04239l-.65396 5.34711h190.51473l.59626-5.34711C291.15195 9.86714 282.49657 0 270.28285 0" id="path476" stroke-width="1.33333" fill="#ed1c24"/><path d="M161.06727 96.79221c-1.86572.03847-70.95496 0-70.95496 0l3.21211-25.60072h62.45345l1.28869-11.34817h-40.73803c-.38469 0-.76937 0-1.17329-.07694-10.27106-.55779-17.63776-8.38611-18.06091-18.4456-.09617-1.55797.17311-3.48139.17311-3.48139h71.3781c11.17507.13464 20.61906 5.80873 19.86893 21.23456l-2.03882 16.17596s-1.48104 21.5423-25.40838 21.5423" id="path477" stroke-width="1.33333" fill="#ed1c24"/><path d="M479.2567.0942h-54.24044l-2.73125 21.56154h46.75833c2.34657.09617 3.40445 1.38486 3.40445 3.67373 0 0 0 1.6349-.25004 3.94301-.09617 1.69261-.6732 3.59679-.6732 3.59679-.53856 1.82725-1.90418 3.15441-5.46251 3.44292-13.61781.05771-25.73536 0-25.73536 0l-2.61585 21.85005h26.6009c2.1927 0 3.69296 1.86572 3.6545 4.46234 0 0 .09617 1.38486-.09618 3.50062-.13463 2.135-.73089 4.28923-.73089 4.28923-.59626 2.23116-1.61568 3.88531-4.4431 4.03918h-46.87375l-2.69278 22.3309c7.90525 0 38.96848.03847 54.00963 0 10.17489-.09617 21.33072-4.21229 25.3699-18.38789 1.36563-4.46233 2.05806-11.54052 2.38504-15.13731.05771-.69243.17311-2.32734.17311-2.32734.21158-7.3667-2.71202-11.61746-7.07818-14.0025 5.09706-2.44274 9.29011-7.03971 10.79038-14.7911.75013-3.17364 1.09635-8.07836 1.15405-10.48263C500.95288 4.84505 490.08555.0942 479.2567.0942" id="path478" stroke-width="1.33333" fill="#ed1c24"/></svg>