<?xml version="1.0" encoding="utf-8"?>
<!-- Generator: Adobe Illustrator 23.0.0, SVG Export Plug-In . SVG Version: 6.00 Build 0)  -->
<svg version="1.1" id="Capa_1" xmlns="http://www.w3.org/2000/svg" xmlns:xlink="http://www.w3.org/1999/xlink" x="0px" y="0px"
	 viewBox="0 0 1101.9 1101.9" enable-background="new 0 0 1101.9 1101.9" xml:space="preserve">
<path fill="#25336B" d="M957.3,847.8H398.5c33.8-11.8,64.2-30.8,91.5-57c49.9-47.9,83.9-100.2,102.1-156.6l-23.3-8
	c-27,44.8-56.4,79.3-88.2,103.6c-31.7,24.5-70.9,36.7-117.2,36.7c-57.4,0-107.2-23.5-149.1-70.5c-42.1-46.8-65.2-121.7-69.6-224.5
	h421.6c0-79.3-23.6-140.7-70.7-183.9c-14.2-13.1-29.3-24.3-45.1-33.5h495.3v138.6H656.2v85h245v138.5h-245v93.2h301.1V847.8z
	 M177.7,338.4c26.5-44.6,65-66.9,115.3-66.9c50.8,0,86.9,19.4,108.5,58.2c11.9,21.6,20.3,54.5,25.2,98.7H147.3
	C153.4,392.2,163.7,362.2,177.7,338.4 M0,1101.9h1101.9V0H0V1101.9z"/>
<g>
</g>
<g>
</g>
<g>
</g>
<g>
</g>
<g>
</g>
<g>
</g>
</svg>
