<?xml version="1.0" encoding="UTF-8"?>
<!DOCTYPE svg PUBLIC "-//W3C//DTD SVG 1.1//EN" "http://www.w3.org/Graphics/SVG/1.1/DTD/svg11.dtd">
<!-- Creator: CorelDRAW X6 -->
<svg xmlns="http://www.w3.org/2000/svg" xml:space="preserve" width="165.836mm" height="200.766mm" version="1.1" shape-rendering="geometricPrecision" text-rendering="geometricPrecision" image-rendering="optimizeQuality" fill-rule="evenodd" clip-rule="evenodd"
viewBox="0 0 16584 20077"
 xmlns:xlink="http://www.w3.org/1999/xlink">
 <g id="Capa_x0020_1">
  <metadata id="CorelCorpID_0Corel-Layer"/>
  <path fill="#ffffff" d="M11607 5348l4483 0c-1265,-3146 -3401,-4915 -6423,-5278 -7218,2215 -8856,7834 -6388,13988 1458,1044 3279,1620 5205,1578 4486,-10 8764,-3672 8006,-8606l-10248 -40 0 3202 5484 0c-336,694 -588,1765 -3381,1819 -2929,-91 -4154,-1448 -4145,-4221 -29,-2040 2257,-3873 3923,-3963 2231,0 2794,666 3483,1521zm-2644 -5337c-411,-20 -837,-15 -1279,13 -4531,414 -7606,4085 -7686,7325 -52,1830 465,3454 1371,4769 -1491,-6872 1625,-10982 7593,-12107zm-6230 13618c168,143 342,280 521,410 -166,-122 -341,-258 -521,-410z"/>
  <path fill="#ffffff" fill-rule="nonzero" d="M217 18381c0,-437 171,-819 512,-1146 341,-327 730,-490 1168,-490 322,0 595,53 819,161l158 72 -375 412c-162,-89 -354,-133 -578,-135 -297,0 -562,109 -795,328 -234,220 -351,476 -351,769l9 12c0,308 104,583 313,823 216,253 475,379 776,379 233,0 445,-66 635,-199 204,-144 326,-328 367,-553l-816 0 0 -510 1426 0 0 221c0,323 -86,611 -257,868 -172,256 -409,443 -711,560 -207,80 -397,121 -574,122 -225,0 -395,-19 -511,-57 -354,-115 -645,-325 -872,-627 -228,-302 -341,-639 -341,-1011z"/>
  <path id="1" fill="#ffffff" fill-rule="nonzero" d="M3706 18413c0,-470 175,-868 524,-1195 341,-315 745,-473 1214,-473 468,0 873,158 1217,472 349,327 523,725 523,1195 0,470 -173,865 -518,1185 -346,319 -753,479 -1221,479 -472,0 -881,-160 -1224,-480 -343,-319 -515,-714 -515,-1184zm566 0c0,321 115,594 346,818 231,224 506,336 826,336 319,0 595,-112 826,-337 232,-224 348,-497 348,-817 0,-324 -114,-598 -343,-822 -229,-224 -506,-336 -830,-336 -325,0 -602,111 -830,333 -228,223 -342,498 -342,825z"/>
  <polygon id="2" fill="#ffffff" fill-rule="nonzero" points="7455,20003 7455,16810 8021,16810 8021,19493 8980,19493 8980,20003 "/>
  <path id="3" fill="#ffffff" fill-rule="nonzero" d="M9285 20003l0 -3193 741 0c518,0 948,127 1289,380 380,282 570,674 571,1175 0,522 -176,930 -526,1226 -331,274 -763,412 -1295,412l-779 0zm566 -510l156 0c380,0 686,-84 920,-253 261,-189 392,-470 392,-840 0,-720 -490,-1080 -1469,-1080l0 2173z"/>
  <polygon id="4" fill="#ffffff" fill-rule="nonzero" points="12170,20003 12170,16810 13695,16803 13708,17320 12736,17320 12736,18076 13634,18076 13634,18586 12736,18586 12736,19415 13708,19415 13695,20003 "/>
  <polygon id="5" fill="#ffffff" fill-rule="nonzero" points="13974,20037 13974,16701 15754,18535 15754,16771 16394,16771 16394,20056 14540,18206 14540,20037 "/>
 </g>
</svg>
