<?xml version="1.0" encoding="utf-8"?>
<!-- Generator: Adobe Illustrator 16.0.0, SVG Export Plug-In . SVG Version: 6.00 Build 0)  -->
<!DOCTYPE svg PUBLIC "-//W3C//DTD SVG 1.1//EN" "http://www.w3.org/Graphics/SVG/1.1/DTD/svg11.dtd">
<svg version="1.1"
	 id="svg2" sodipodi:docname="NBC Gold.svg" inkscape:version="0.48.2 r9819" xmlns:inkscape="http://www.inkscape.org/namespaces/inkscape" xmlns:dc="http://purl.org/dc/elements/1.1/" xmlns:rdf="http://www.w3.org/1999/02/22-rdf-syntax-ns#" xmlns:cc="http://creativecommons.org/ns#" xmlns:svg="http://www.w3.org/2000/svg" xmlns:sodipodi="http://sodipodi.sourceforge.net/DTD/sodipodi-0.dtd"
	 xmlns="http://www.w3.org/2000/svg" xmlns:xlink="http://www.w3.org/1999/xlink" x="0px" y="0px" width="1000px"
	 height="206.499px" viewBox="0 0.35 1000 206.499" enable-background="new 0 0.35 1000 206.499" xml:space="preserve">
<sodipodi:namedview  inkscape:window-y="-8" fit-margin-bottom="0.5" inkscape:document-units="px" inkscape:pageshadow="2" inkscape:pageopacity="0.0" fit-margin-right="0.5" inkscape:window-height="1028" inkscape:window-width="1920" inkscape:window-maximized="1" inkscape:window-x="-8" inkscape:current-layer="layer1" inkscape:zoom="0.37520853" fit-margin-left="0.5" showgrid="false" pagecolor="#ffffff" bordercolor="#666666" fit-margin-top="0.5" inkscape:cx="1473.5781" id="base" borderopacity="1.0" inkscape:cy="20.422222">
	<inkscape:grid  type="xygrid" snapvisiblegridlinesonly="true" id="grid2996" enabled="true" empspacing="5" visible="true">
		</inkscape:grid>
</sodipodi:namedview>
<g id="layer1" transform="translate(240.54712,-1352.2373)" inkscape:groupmode="layer" inkscape:label="Layer 1">
	<g id="g3134" transform="matrix(0.78011628,0,0,0.78011628,-52.782453,363.35483)">
		<path id="path3066" sodipodi:nodetypes="cccccccccccccccccc" inkscape:connector-curvature="0" fill="#FFFFFF" d="
			M-185.586,1532.436c-31.717,0-55.102-24.861-55.102-53.788c0-37.845,32.331-58.198,50.699-55.651
			c-12.064-10.104-20.279-24.664-20.279-41.856c0-35.254,28.836-56.476,56.829-56.476c17.417,0,26.765,7.664,26.765,7.664
			c-0.988-4.661-0.6-5.381-0.825-7.899c0-35.346,26.724-56.358,54.235-56.358c28.352,0,44.975,17.778,49.402,29.358
			c4.464-11.176,19.995-29.358,48.93-29.358c34.195,0,54.942,27.068,54.942,55.179c0,6.054-1.297,9.315-1.297,9.315
			s8.482-7.783,27.237-7.783c31.558,0,56.358,24.017,56.358,56.594c0,27.075-19.572,41.267-19.572,41.267
			c23.687,0,50.108,21.498,50.108,55.178c0,26.525-19.694,54.614-54.922,54.614H-185.586z"/>
		<path id="path3028" inkscape:connector-curvature="0" fill="#F37021" d="M-183.133,1348.589
			c-16.935,15.297-23.104,49.953,7.43,70.213l121.806,83.364l-59.061-134.977C-125.334,1335.336-159.189,1328.389-183.133,1348.589"
			/>
		<path id="path3030" inkscape:connector-curvature="0" fill="#CC004C" d="M-76.386,1280.708
			c-19.498,0.396-48.771,23.557-35.741,58.922l60.144,141.503l21.132-148.835C-25.96,1295.316-54.012,1278.244-76.386,1280.708"/>
		<path id="path3032" inkscape:connector-curvature="0" fill="#6460AA" d="M-17.773,1326.88h11.392c0,0,6.081,0,6.908,2.862
			c-4.482,3.652-16.68,4.109-15.064,23.615l19.152,128.259l59.828-142.101c12.238-31.728-13.45-58.226-36.234-59.036
			c-1.065-0.079-2.132-0.14-3.237-0.14C4.517,1280.34-18.917,1295.169-17.773,1326.88"/>
		<path id="path3034" inkscape:connector-curvature="0" fill="#0089D0" d="M63.682,1368.358L5.951,1502.535l122.51-84.319
			c28.243-19.982,23.689-51.93,7.879-67.723c-6.63-7.432-18.795-13.174-31.685-13.174
			C89.425,1337.319,73.129,1345.374,63.682,1368.358"/>
		<path id="path3036" inkscape:connector-curvature="0" fill="#0DB14B" d="M114.464,1441.896l-112.65,78.496h138.705
			c28.456,0,46.743-29.27,38.616-56.131c-5.445-16.883-21.558-30.136-40.255-30.154
			C131.01,1434.106,122.667,1436.473,114.464,1441.896"/>
		<path id="path3038" inkscape:connector-curvature="0" fill="#FCB711" d="M-184.684,1520.616h135.663l-111.856-77.926
			c-25.844-16.565-54.898-6.872-65.391,20.613C-235.159,1494.77-212.957,1520.616-184.684,1520.616"/>
		<path id="path3068" inkscape:connector-curvature="0" d="M585.622,1268.058c-59.862,0-120.437,40.66-131.318,113.301h-69.881
			c-7.864,0-9.415,1.807-13.485,11.011l-15.327,34.159h79.643c-10.051,35.52-42.477,57.776-75.577,57.776
			c-47.147,0-79.578-40.646-79.578-83.489c0-52.989,40.539-83.74,79.924-83.74c23.324,0,43.385,10.19,54.585,18.801
			c7.224,5.701,14.74,3.925,18.362-1.846l18.269-31.344c0,0-33.027-34.503-89.684-34.503c-69.087,0-134.698,50.129-134.698,132.632
			c0,67.609,53.881,131.757,131.977,131.757c66.942,0,119.366-51.555,129.41-105.951c0,27.081-3.727,37.638-9.102,53.273
			c27.321,34.115,63.694,52.865,106.138,52.865c52.298,0,92.164-29.041,113.019-64.221v29.873c0,19.444,13.974,31.031,29.374,31.031
			h176.833c9.899,0,18.017-5.345,18.017-18.019v-84.084h72.072c9.265,0,12.203-2.939,16.548-11.825l15.077-34.221H922.523v-61.062
			h88.088c7.512,0,10.21-3.327,13.388-9.979l17.174-39.07H900.501c-18.188,0-31.031,11.41-31.031,31.031v218.219l-14.327-32.939
			c-1.803-3.942-5.213-7.102-11.637-7.102h-92.154v-191.191c0-12.237-7.624-18.018-18.019-18.018h-35.035v41.041
			c8.252,15.865,13.136,35.017,14.515,53.397C697.524,1313.977,651.965,1268.058,585.622,1268.058L585.622,1268.058z
			 M585.123,1317.013c42.19,0,78.985,36.551,78.985,83.24c0,47.314-37.683,84.052-79.235,84.052
			c-44.25,0-78.766-40.697-78.766-83.833C506.107,1357.119,538.356,1317.013,585.123,1317.013z"/>
	</g>
</g>
</svg>
