<?xml version="1.0" encoding="UTF-8" standalone="no"?>
<svg
   xmlns:dc="http://purl.org/dc/elements/1.1/"
   xmlns:cc="http://creativecommons.org/ns#"
   xmlns:rdf="http://www.w3.org/1999/02/22-rdf-syntax-ns#"
   xmlns:svg="http://www.w3.org/2000/svg"
   xmlns="http://www.w3.org/2000/svg"
   width="175.1326mm"
   height="135.71283mm"
   viewBox="0 0 175.1326 135.71283"
   version="1.1"
   id="svg1029">
  <defs
     id="defs1023" />
  <metadata
     id="metadata1026">
    <rdf:RDF>
      <cc:Work
         rdf:about="">
        <dc:format>image/svg+xml</dc:format>
        <dc:type
           rdf:resource="http://purl.org/dc/dcmitype/StillImage" />
        <dc:title></dc:title>
      </cc:Work>
    </rdf:RDF>
  </metadata>
  <g
     id="layer1"
     transform="translate(-11.979691,-63.301326)">
    <g
       id="g897"
       transform="matrix(0.61772504,0,0,-0.61772504,25.918039,158.8262)"
       style="stroke-width:0.571092">
      <path
         d="m 0,0 h 10.404 c 1.364,0 2.468,-1.104 2.468,-2.467 v -8.032 c 0,-1.362 -1.104,-2.467 -2.468,-2.467 H 0 v -32.956 h -14.652 v 32.956 h -7.912 V 0 h 7.912 v 3.558 c 0,12.358 6.787,19.145 17.459,19.145 5.94,0 10.195,-1.46 13.5,-3.494 1.144,-0.704 1.51,-2.196 0.83,-3.354 L 13.08,8.966 C 12.453,7.899 11.137,7.468 9.996,7.946 8.442,8.597 6.794,9.036 4.82,9.036 1.591,9.036 0,7.209 0,3.23 Z"
         style="fill:#b6b6b6;fill-opacity:1;fill-rule:nonzero;stroke:none;stroke-width:0.571092"
         id="path899" />
    </g>
    <g
       id="g901"
       transform="matrix(0.61772504,0,0,-0.61772504,51.508982,179.5019)"
       style="stroke-width:0.571092">
      <path
         d="m 0,0 c -5.851,0 -9.783,4.541 -9.783,10.533 0,5.992 3.932,10.533 9.783,10.533 5.758,0 9.831,-4.447 9.831,-10.533 C 9.831,4.447 5.758,0 0,0 m 21.407,33.471 h -9.249 c -1.363,0 -2.468,-1.104 -2.468,-2.467 v -2.495 c -2.761,3.652 -6.928,6.226 -13.154,6.226 -12.311,0 -21.392,-10.673 -21.392,-24.155 0,-13.576 9.081,-24.248 21.345,-24.248 6.273,0 10.44,2.574 13.201,6.179 v -4.962 h 14.184 v 43.455 c 0,1.363 -1.104,2.467 -2.467,2.467"
         style="fill:#b6b6b6;fill-opacity:1;fill-rule:nonzero;stroke:none;stroke-width:0.571092"
         id="path903" />
    </g>
    <g
       id="g905"
       transform="matrix(0.61772504,0,0,-0.61772504,117.0892,168.57106)"
       style="stroke-width:0.571092">
      <path
         d="m 0,0 v -30.146 h -14.651 v 24.951 c 0,5.429 -2.715,8.472 -7.303,8.472 -4.12,0 -7.443,-2.856 -7.443,-8.707 v -24.716 h -14.652 v 24.951 c 0,5.429 -2.716,8.472 -7.256,8.472 -4.167,0 -7.443,-2.856 -7.443,-8.707 V -30.146 H -73.4 v 43.455 c 0,1.363 1.104,2.466 2.466,2.466 h 9.11 c 1.362,0 2.468,-1.103 2.468,-2.466 v -3.244 c 2.901,4.774 7.536,6.975 13.668,6.975 6.04,0 11.188,-2.762 13.997,-7.677 3.089,5.289 8.286,7.677 14.558,7.677 C -6.647,17.04 0,10.58 0,0"
         style="fill:#b6b6b6;fill-opacity:1;fill-rule:nonzero;stroke:none;stroke-width:0.571092"
         id="path907" />
    </g>
    <g
       id="g909"
       transform="matrix(0.61772504,0,0,-0.61772504,123.90227,158.8262)"
       style="stroke-width:0.571092">
      <path
         d="m 0,0 h 9.717 c 1.362,0 2.468,-1.104 2.468,-2.467 V -45.922 H -2.468 V -2.467 C -2.468,-1.104 -1.363,0 0,0"
         style="fill:#b6b6b6;fill-opacity:1;fill-rule:nonzero;stroke:none;stroke-width:0.571092"
         id="path911" />
    </g>
    <g
       id="g913"
       transform="matrix(0.61772504,0,0,-0.61772504,121.45251,150.09244)"
       style="stroke-width:0.571092">
      <path
         d="m 0,0 c 0,4.962 3.839,8.8 8.754,8.8 4.829,10e-4 8.84,-4.049 8.8,-8.879 C 17.514,-4.988 13.64,-8.757 8.657,-8.708 3.879,-8.66 0,-4.779 0,0"
         style="fill:#ec008c;fill-opacity:1;fill-rule:nonzero;stroke:none;stroke-width:0.571092"
         id="path915" />
    </g>
    <g
       id="g917"
       transform="matrix(0.61772504,0,0,-0.61772504,138.82113,145.55296)"
       style="stroke-width:0.571092">
      <path
         d="m 0,0 h 9.718 c 1.362,0 2.467,-1.104 2.467,-2.468 V -67.409 H -2.468 V -2.468 C -2.468,-1.104 -1.363,0 0,0"
         style="fill:#b6b6b6;fill-opacity:1;fill-rule:nonzero;stroke:none;stroke-width:0.571092"
         id="path919" />
    </g>
    <g
       id="g921"
       transform="matrix(0.61772504,0,0,-0.61772504,177.86334,158.8262)"
       style="stroke-width:0.571092">
      <path
         d="m 0,0 h -9.725 c -1.326,0 -2.428,-1.05 -2.461,-2.376 -0.266,-10.96 -2.369,-20.996 -5.733,-29.031 L -30.494,-1.508 C -30.879,-0.594 -31.773,0 -32.765,0 h -10.55 c -1.762,0 -2.955,-1.795 -2.271,-3.418 l 17.877,-42.504 0.013,0.006 c -3.332,-2.879 -7.033,-4.489 -10.934,-4.489 v -14.653 c 22.193,0 40.251,27.737 41.095,62.515 C 2.498,-1.152 1.391,0 0,0"
         style="fill:#b6b6b6;fill-opacity:1;fill-rule:nonzero;stroke:none;stroke-width:0.571092"
         id="path923" />
    </g>
    <g
       id="g925"
       transform="matrix(0.61772504,0,0,-0.61772504,115.9062,105.28383)"
       style="stroke-width:0.571092">
      <path
         d="m 0,0 c -2.69,4.121 -6.778,7.496 -12.697,9.598 6.166,1.527 10.474,6.101 13.07,11.738 0,0 1.077,0.775 2.477,8.171 0.339,2.304 0.614,5.486 0.505,7.701 0,14.018 -11.872,29.436 -31.909,29.436 H -76.481 V -46.712 h 50.319 c 18.61,0 30.573,12.206 30.573,29.949 0,0.838 -0.028,1.678 -0.079,2.508 0,0 0.697,6.696 -4.332,14.255 m -31.828,22.525 h -12.97 v 17.971 h 12.945 c 3.319,0 6.814,-4.606 6.814,-8.769 0,-4.958 -3.086,-9.202 -6.789,-9.202 m -0.221,-42.994 h -12.964 v 17.972 h 12.94 c 3.328,0 6.817,-4.604 6.817,-8.765 0,-4.961 -3.091,-9.207 -6.793,-9.207"
         style="fill:#b6b6b6;fill-opacity:1;fill-rule:nonzero;stroke:none;stroke-width:0.571092"
         id="path927" />
    </g>
    <g
       id="g929"
       transform="matrix(0.61772504,0,0,-0.61772504,151.28609,117.30532)"
       style="stroke-width:0.571092">
      <path
         d="m 0,0 c -16.253,0 -29.43,13.167 -29.43,29.423 0,16.256 13.177,29.429 29.43,29.429 16.256,0 29.428,-13.173 29.428,-29.429 C 29.428,13.167 16.256,0 0,0 m 0,87.424 c -32.035,0 -57.995,-25.967 -57.995,-58.001 0,-32.029 25.96,-57.996 57.995,-57.996 32.029,0 57.997,25.967 57.997,57.996 0,32.034 -25.968,58.001 -57.997,58.001"
         style="fill:#b6b6b6;fill-opacity:1;fill-rule:nonzero;stroke:none;stroke-width:0.571092"
         id="path931" />
    </g>
    <g
       id="g933"
       transform="matrix(0.61772504,0,0,-0.61772504,151.28609,84.939306)"
       style="stroke-width:0.571092">
      <path
         d="m 0,0 c -12.687,0 -22.972,-10.281 -22.972,-22.973 0,-12.684 10.285,-22.969 22.972,-22.969 12.684,0 22.97,10.285 22.97,22.969 C 22.97,-10.281 12.684,0 0,0"
         style="fill:#b6b6b6;fill-opacity:1;fill-rule:nonzero;stroke:none;stroke-width:0.571092"
         id="path935" />
    </g>
    <g
       id="g937"
       transform="matrix(0.61772504,0,0,-0.61772504,45.277428,90.722325)"
       style="stroke-width:0.571092">
      <path
         d="m 0,0 h -19.376 l 0.069,43.127 h -32.017 l -0.037,-113.472 h 31.985 v 45.144 H 0 V -70.345 H 32.3 L 32.375,43.127 H 0.071 Z"
         style="fill:#b6b6b6;fill-opacity:1;fill-rule:nonzero;stroke:none;stroke-width:0.571092"
         id="path939" />
    </g>
  </g>
</svg>
