<?xml version="1.0" encoding="utf-8"?>
<svg version="1.1" id="Capa_1" x="0px" y="0px" viewBox="0 0 512 370.9" style="enable-background:new 0 0 512 370.9;" xmlns="http://www.w3.org/2000/svg">
  <style type="text/css">
	.st0{fill:#1E1E1E;}
</style>
  <g>
    <g>
      <path class="st0" d="M251.5,251c-31.1,0-56.2,25.1-56.2,56.2l0,0c0,31.1,25.1,55.7,56.2,55.7s56.2-25.1,56.2-55.7l0,0&#10;&#9;&#9;&#9;C307.7,276.1,282.1,251,251.5,251z M251.5,340.3c-18.6,0-33.6-15.1-33.6-33.6h67.8C285.1,325.8,270.1,340.3,251.5,340.3z" style="fill: rgb(255, 255, 255);"/>
      <g>
        <path class="st0" d="M181.2,261c-7.5-7-16.6-10.5-27.1-10.5h-27.6c0,0,0,0-0.5,0c0,0,0,0-0.5,0c-7,0-12.5,5.5-13.6,12.5&#10;&#9;&#9;&#9;&#9;c0,0.5,0,1,0,1c0,0.5,0,1,0,1v92.4l0,0l0,0c0,7.5,6,13.6,13.6,13.6s13.6-6,13.6-13.6v-0.5v-31.6h14.1c11,0,20.1-3.5,27.1-10.5&#10;&#9;&#9;&#9;&#9;c7.5-7,11-16.1,11-27.1C192.3,277.1,188.7,268,181.2,261z M161.6,296.2c-2,2-4.5,3-7.5,3H140v-23.1h14.1c3,0,5.5,1,7.5,3&#10;&#9;&#9;&#9;&#9;c2,2,3,5,3,8C164.6,291.6,163.6,294.1,161.6,296.2z" style="fill: rgb(255, 255, 255);"/>
      </g>
      <g>
        <path class="st0" d="M381,261c-7.5-7-16.6-10.5-27.1-10.5h-27.6c0,0,0,0-0.5,0s0,0-0.5,0c-7,0-12.5,5.5-13.6,12.5c0,0.5,0,1,0,1&#10;&#9;&#9;&#9;&#9;c0,0.5,0,1,0,1v92.4l0,0l0,0c0,7.5,6,13.6,13.6,13.6s13.6-6,13.6-13.6v-0.5v-31.6h14.1c11,0,20.1-3.5,27.1-10.5&#10;&#9;&#9;&#9;&#9;c7.5-7,11-16.1,11-27.1C392,277.1,388,268,381,261z M361.4,296.2c-2,2-4.5,3-7.5,3h-14.1v-23.1h14.1c3,0,5.5,1,7.5,3c2,2,3,5,3,8&#10;&#9;&#9;&#9;&#9;C364.4,291.6,363.4,294.1,361.4,296.2z" style="fill: rgb(255, 255, 255);"/>
      </g>
    </g>
    <g>
      <path class="st0" d="M150.1,209.8H93.9v-80.3H57.2v80.3H0V3h57.7v77.3h36.6V3h56.2v206.8H150.1z M407.1,210.8&#10;&#9;&#9;&#9;c57.7,0,104.9-48.2,104.9-105.9C512,45.7,464.8,0,407.1,0s-87.3,42.7-94.9,59.7c0-25.6-25.1-56.2-55.2-56.2h-95.4v206.8H251&#10;&#9;&#9;&#9;c36.1,0,61.7-31.1,61.7-57.7C320.8,168.7,349.4,210.8,407.1,210.8z M243.5,127c8,0,14.6,8,14.6,17.6s-6.5,17.6-14.6,17.6h-28.6&#10;&#9;&#9;&#9;V127H243.5z M244,49.2c8,0,14.6,8,14.6,17.6S252,84.3,244,84.3h-28.6V49.2H244z M281.6,104.9c6.5-1,17.6-8,21.1-13.1&#10;&#9;&#9;&#9;c-1.5,6-1.5,23.1,0,28.6C298.7,113.9,288.1,105.9,281.6,104.9z M354.9,104.9c0-29.1,23.6-52.7,52.7-52.7s52.7,23.6,52.7,52.7&#10;&#9;&#9;&#9;s-23.6,52.7-52.7,52.7C378.5,157.6,354.9,134,354.9,104.9z M407.1,146.1c22.6,0,41.2-18.6,41.2-41.2s-18.6-41.2-41.2-41.2&#10;&#9;&#9;&#9;c-22.6,0-41.2,18.6-41.2,41.2C365.9,127.5,384.5,146.1,407.1,146.1z" style="fill: rgb(255, 255, 255);"/>
    </g>
  </g>
</svg>