<?xml version="1.0" encoding="utf-8"?>
<svg version="1.1" id="svg36145" x="0px" y="0px" width="1131.166px" height="362.457px" viewBox="4.493 2 1131.166 362.457" enable-background="new 4.493 2 1131.166 362.457" xmlns="http://www.w3.org/2000/svg">
  <g>
    <g id="layer1" transform="translate(0,-640.25423)">
      <g>
        <path id="path33941_8_" d="M704.553,893.644&#10;&#9;&#9;&#9;&#9;c38.332,0,70.788-31.633,70.788-71.163c0-39.533-32.456-70.764-70.788-70.764c-39.503,0-71.162,31.231-71.162,70.764&#10;&#9;&#9;&#9;&#9;C633.391,862.011,665.05,893.644,704.553,893.644 M614.413,822.482c0-49.809,40.333-90.115,90.14-90.115&#10;&#9;&#9;&#9;&#9;c49.835,0,90.114,40.306,90.114,90.115c0,50.18-40.279,90.54-90.114,90.54C654.746,913.021,614.413,872.662,614.413,822.482&#10;&#9;&#9;&#9;&#9; M487.971,822.482c11.424-0.812,30.029-13.827,37.128-21.727c-2.775,9.474-2.775,39.501,0,49.007&#10;&#9;&#9;&#9;&#9;C517.199,838.308,499.396,824.455,487.971,822.482 M423.137,727.242c14.225,0,25.677,13.827,25.677,29.655&#10;&#9;&#9;&#9;&#9;c0,15.776-11.452,29.657-25.677,29.657h-49.062v-59.312H423.137z M423.137,860.409c14.225,0,25.677,13.855,25.677,29.659&#10;&#9;&#9;&#9;&#9;c0,16.626-11.452,30.427-25.677,30.427h-49.062v-60.086H423.137z M704.553,1004.711c98.814,0,179.453-82.213,179.453-182.229&#10;&#9;&#9;&#9;&#9;c0-101.592-80.639-180.228-179.453-180.228c-99.988,0-150.596,72.71-162.823,102.365c0-43.883-43.909-96.439-94.891-96.439&#10;&#9;&#9;&#9;&#9;H282.013v354.954h153.348c62.459,0,106.369-53.383,106.369-100.016C555.557,931.971,604.565,1004.711,704.553,1004.711&#10;&#9;&#9;&#9;&#9; M262.287,1003.128h-96.467V865.556h-62.485v137.571H4.493V648.174h98.842v132.393h62.485V648.174h96.467V1003.128z" style="fill: rgb(255, 255, 255);"/>
      </g>
    </g>
    <polygon points="1135.658,221.427 1061.033,221.427 1061.033,146.803 1030.246,146.803 1030.246,221.427 &#10;&#9;&#9;955.623,221.427 955.623,252.213 1030.246,252.213 1030.246,326.836 1061.033,326.836 1061.033,252.213 1135.658,252.213 &#9;" style="fill: rgb(255, 255, 255);"/>
  </g>
</svg>