<!DOCTYPE svg PUBLIC "-//W3C//DTD SVG 20010904//EN" "http://www.w3.org/TR/2001/REC-SVG-20010904/DTD/svg10.dtd">
<svg version="1.0" xmlns="http://www.w3.org/2000/svg" width="449px" height="112px" viewBox="0 0 4490 1120" preserveAspectRatio="xMidYMid meet">
<g id="layer101" fill="#d93126" stroke="none">
<path d="M0 560 l0 -560 2245 0 2245 0 0 560 0 560 -2245 0 -2245 0 0 -560z"/>
</g>
<g id="layer102" fill="#676868" stroke="none">
<path d="M3050 560 l0 -560 720 0 720 0 0 560 0 560 -720 0 -720 0 0 -560z"/>
</g>
<g id="layer103" fill="#f8f6f6" stroke="none">
<path d="M3050 560 l0 -560 720 0 720 0 0 560 0 560 -720 0 -720 0 0 -560z m520 90 l0 -310 60 0 60 0 0 -85 0 -85 -225 0 -225 0 0 85 0 85 60 0 60 0 0 310 0 310 105 0 105 0 0 -310z m676 -87 l111 -393 -111 0 -111 0 -39 183 c-21 100 -41 188 -45 195 -4 7 -24 -60 -45 -149 -21 -89 -43 -177 -48 -196 l-9 -33 -111 0 c-84 0 -109 3 -105 13 7 18 217 766 217 772 0 3 42 4 92 3 l93 -3 111 -392z"/>
<path d="M2692 995 c-64 -54 -67 -131 -6 -184 58 -51 142 -40 185 25 23 36 24 87 3 124 -38 62 -128 80 -182 35z"/>
<path d="M1233 989 c-93 -18 -168 -80 -192 -158 -15 -52 -15 -480 1 -532 16 -57 69 -113 129 -139 78 -33 187 -27 255 15 55 34 89 79 105 137 6 25 9 131 7 276 -3 223 -4 239 -25 279 -49 91 -170 144 -280 122z m71 -195 c14 -13 16 -48 16 -223 0 -219 -5 -247 -46 -239 -18 3 -19 15 -22 227 -2 216 2 251 29 251 4 0 15 -7 23 -16z"/>
<path d="M177 983 c-4 -3 -7 -138 -7 -300 l0 -293 105 0 105 0 0 300 0 300 -98 0 c-54 0 -102 -3 -105 -7z"/>
<path d="M450 570 l0 -410 110 0 110 0 0 145 0 145 40 0 40 0 0 -145 0 -145 105 0 105 0 0 410 0 410 -105 0 -105 0 0 -155 0 -155 -40 0 -40 0 0 155 0 155 -110 0 -110 0 0 -410z"/>
<path d="M1610 570 l0 -410 105 0 105 0 0 300 0 300 65 0 65 0 0 110 0 110 -170 0 -170 0 0 -410z"/>
<path d="M2021 818 c16 -90 48 -273 72 -408 l43 -245 170 -3 170 -2 52 382 c29 211 55 396 58 411 l6 28 -109 -3 -108 -3 -8 -62 -9 -63 -63 0 c-71 0 -69 -2 -81 83 l-6 47 -108 0 -107 0 28 -162z m308 -165 c-2 -57 -26 -197 -32 -183 -5 14 -37 189 -37 204 0 3 16 6 35 6 32 0 35 -3 34 -27z"/>
<path d="M2670 450 l0 -300 100 0 100 0 0 300 0 300 -100 0 -100 0 0 -300z"/>
<path d="M194 326 c-28 -28 -34 -42 -34 -75 0 -78 49 -131 120 -131 71 0 120 51 120 126 0 39 -5 51 -34 80 -30 30 -40 34 -86 34 -46 0 -56 -4 -86 -34z"/>
</g>


</svg>