<?xml version="1.0" encoding="UTF-8" standalone="no"?>
<!-- Created with Inkscape (http://www.inkscape.org/) -->

<svg
   xmlns:dc="http://purl.org/dc/elements/1.1/"
   xmlns:cc="http://creativecommons.org/ns#"
   xmlns:rdf="http://www.w3.org/1999/02/22-rdf-syntax-ns#"
   xmlns:svg="http://www.w3.org/2000/svg"
   xmlns="http://www.w3.org/2000/svg"
   xmlns:sodipodi="http://sodipodi.sourceforge.net/DTD/sodipodi-0.dtd"
   xmlns:inkscape="http://www.inkscape.org/namespaces/inkscape"
   width="1000"
   height="306.1991"
   viewBox="0 0 264.58333 81.01518"
   version="1.1"
   id="svg8"
   inkscape:version="0.92.4 (5da689c313, 2019-01-14)"
   sodipodi:docname="a.svg">
  <defs
     id="defs2">
    <mask
       fill="white"
       id="mask1495">
      <polygon
         id="use1493"
         points="0.0041,0.538 193.4681,0.538 193.4681,317.9998 0.0041,317.9998 "
         transform="scale(0.26458333)" />
    </mask>
  </defs>
  <sodipodi:namedview
     id="base"
     pagecolor="#ffffff"
     bordercolor="#666666"
     borderopacity="1.0"
     inkscape:pageopacity="0.0"
     inkscape:pageshadow="2"
     inkscape:zoom="0.24748737"
     inkscape:cx="1142.83"
     inkscape:cy="-357.2885"
     inkscape:document-units="px"
     inkscape:current-layer="layer1"
     showgrid="false"
     units="px"
     inkscape:window-width="1920"
     inkscape:window-height="1017"
     inkscape:window-x="1912"
     inkscape:window-y="-8"
     inkscape:window-maximized="1"
     fit-margin-top="0"
     fit-margin-left="0"
     fit-margin-right="0"
     fit-margin-bottom="0" />
  <metadata
     id="metadata5">
    <rdf:RDF>
      <cc:Work
         rdf:about="">
        <dc:format>image/svg+xml</dc:format>
        <dc:type
           rdf:resource="http://purl.org/dc/dcmitype/StillImage" />
        <dc:title />
      </cc:Work>
    </rdf:RDF>
  </metadata>
  <g
     inkscape:label="Layer 1"
     inkscape:groupmode="layer"
     id="layer1"
     style="display:inline;opacity:1"
     transform="translate(-4.9613095,-127.20263)">
    <path
       inkscape:connector-curvature="0"
       style="display:inline;fill:#f5134f;fill-opacity:1;fill-rule:evenodd;stroke:none;stroke-width:0.25519645"
       mask="none"
       id="Fill-1"
       d="m 23.848399,187.83978 h 2.07092 c 9.443545,0 15.407741,-5.05314 23.93998,-17.39572 h 0.165877 l -6.213013,19.38396 H 4.9613095 v -0.16563 c 3.7276547,-2.15385 4.6389612,-4.14209 5.9644515,-9.60916 l 9.609168,-38.43667 c 0.579806,-2.40217 0.911051,-4.1421 0.911051,-5.46733 0,-1.82261 -0.496867,-2.98223 -2.070919,-4.14184 v -0.16588 H 41.32706 v 0.16588 c -3.727654,2.1536 -4.638961,4.14184 -5.964196,9.60917 z"
       inkscape:highlight-color="4278190335" />
    <path
       d="m 68.912491,128.94223 c 4.22478,0 7.207008,3.06516 7.207008,7.04111 0,4.39041 -3.479352,7.95269 -7.952429,7.95269 -4.22478,0 -7.207005,-3.06516 -7.207005,-7.04138 0,-4.47308 3.479349,-7.95242 7.952426,-7.95242 z m -4.556016,53.34754 c -0.08266,0.57955 -0.165628,1.07693 -0.165628,1.57379 0,1.40817 0.662752,2.31974 1.987986,2.31974 0.580064,0 1.325485,-0.16614 2.153855,-0.663 v 0.16588 c -2.56804,3.56203 -5.798572,4.9702 -9.36061,4.9702 -5.384637,0 -7.703869,-3.23078 -7.703869,-7.62093 0,-1.15987 0.08295,-2.31973 0.414185,-3.56203 l 5.301457,-21.62075 c 0.662743,-2.65098 1.077178,-4.22478 1.077178,-5.38465 0,-1.49086 -0.497124,-2.48485 -1.739669,-3.4791 v -0.16562 h 16.401726 z"
       id="Fill-4"
       style="display:inline;fill:#f5134f;fill-opacity:1;fill-rule:evenodd;stroke:none;stroke-width:0.25519645"
       inkscape:connector-curvature="0"
       mask="none" />
    <path
       inkscape:label="Fill-6"
       inkscape:connector-curvature="0"
       style="fill:#f5134f;fill-opacity:1;fill-rule:evenodd;stroke:none;stroke-width:0.25519645"
       mask="none"
       id="Fill-6"
       d="m 93.18382,148.82338 h 6.213013 l -0.99399,2.07092 h -5.633207 l -9.277667,37.6083 c -3.39641,13.83369 -9.360861,19.54958 -21.620754,19.71521 v -0.16563 c 4.390399,-2.98222 6.295696,-10.18897 10.10629,-26.75658 l 7.041125,-30.4013 h -3.810338 l 0.248306,-0.91131 4.224777,-1.82235 0.745429,-2.31948 c 2.982226,-11.84571 11.928648,-18.63853 21.372196,-18.63853 5.21877,0 9.44354,2.56804 9.44354,6.8755 0,4.88752 -3.56203,7.62119 -7.70412,7.62119 -2.73341,0 -4.638709,-1.49112 -5.052893,-3.23079 2.485353,-0.41418 5.218763,-2.56804 5.218763,-7.28969 0,-1.57405 -0.82836,-2.65072 -2.31948,-2.65072 -2.981967,0 -5.467325,4.14184 -7.041377,13.83394 z"
       clip-path="none" />
    <path
       d="m 107.18324,168.78727 c 6.95844,-2.15385 12.17721,-10.18923 12.17721,-16.73323 0,-1.65673 -0.57981,-2.65098 -1.65673,-2.65098 -3.72766,0 -8.78081,10.18923 -10.52048,19.38421 m -13.833692,6.70988 c 0,-13.17119 10.851722,-27.5852 25.016912,-27.5852 6.79257,0 10.18923,3.47934 10.18923,8.36687 0,9.27767 -10.02335,13.25388 -21.62076,13.75101 -0.24855,1.65648 -0.41418,3.23053 -0.41418,4.72164 0,6.62719 3.14785,9.85772 7.53799,9.85772 3.72765,0 6.2957,-1.82261 9.44355,-5.96419 h 0.49712 c -3.4791,8.03512 -9.44355,12.01133 -16.65029,12.01133 -8.200996,0 -13.999572,-5.21877 -13.999572,-15.15918"
       id="Fill-9"
       style="display:inline;fill:#f5134f;fill-opacity:1;fill-rule:evenodd;stroke:none;stroke-width:0.25519645"
       inkscape:connector-curvature="0" />
    <path
       d="m 141.22918,179.88755 c -0.16537,0.57981 -0.24857,1.15962 -0.24857,1.73942 0,2.40242 1.5738,3.81059 3.56204,3.81059 1.32549,0 3.06491,-0.74568 4.63896,-2.23654 l 0.0827,0.16563 c -3.06466,4.88726 -7.12407,7.28968 -12.34258,7.28968 -5.96446,0 -9.1123,-3.4791 -9.1123,-8.86348 0,-1.24281 0.24856,-2.65098 0.5798,-4.0589 l 6.70988,-26.83978 h -2.98222 l 0.24882,-1.07693 c 8.61491,-2.23654 14.16493,-7.04087 19.4669,-15.40774 h 0.74542 l -3.56203,14.41375 h 7.78681 l -0.91131,2.07092 h -7.45556 z"
       id="Fill-11"
       style="fill:#f5134f;fill-opacity:1;fill-rule:evenodd;stroke:none;stroke-width:0.25519645"
       inkscape:connector-curvature="0" />
    <path
       d="m 170.30486,128.94223 c 4.22477,0 7.20701,3.06516 7.20701,7.04111 0,4.39041 -3.47961,7.95269 -7.95269,7.95269 -4.22453,0 -7.20675,-3.06516 -7.20675,-7.04138 0,-4.47308 3.47935,-7.95242 7.95243,-7.95242 z m -4.55602,53.34754 c -0.083,0.57955 -0.16562,1.07693 -0.16562,1.57379 0,1.40817 0.66274,2.31974 1.98797,2.31974 0.58007,0 1.3255,-0.16614 2.15386,-0.663 v 0.16588 c -2.56804,3.56203 -5.79857,4.9702 -9.3606,4.9702 -5.3844,0 -7.70413,-3.23078 -7.70413,-7.62093 0,-1.15987 0.0832,-2.31973 0.41418,-3.56203 l 5.30171,-21.62075 c 0.66274,-2.65098 1.07719,-4.22478 1.07719,-5.38465 0,-1.49086 -0.49738,-2.48485 -1.73968,-3.4791 v -0.16562 h 16.40174 z"
       id="Fill-13"
       style="fill:#f5134f;fill-opacity:1;fill-rule:evenodd;stroke:none;stroke-width:0.25519645"
       inkscape:connector-curvature="0" />
    <path
       d="m 227.37991,182.28974 c -0.16562,0.57955 -0.24856,1.07693 -0.24856,1.5738 0,1.40842 0.66274,2.31973 2.07116,2.31973 0.57982,0 1.24256,-0.16612 2.07067,-0.663 v 0.16588 c -2.48484,3.56204 -5.71588,4.97021 -9.27766,4.97021 -5.46734,0 -7.86975,-3.23079 -7.86975,-7.62094 0,-1.15987 0.24856,-2.31973 0.49712,-3.56203 l 4.7219,-18.97002 c 0.33125,-1.15987 0.49712,-2.15387 0.49712,-3.06492 0,-1.32548 -0.49712,-2.15385 -1.82261,-2.15385 -2.56804,0 -5.21902,3.39641 -7.04112,10.3546 l -5.96446,24.18879 H 191.6769 l 7.28969,-29.32462 c 0.33125,-1.07668 0.49686,-2.07093 0.49686,-2.89929 0,-1.40817 -0.5798,-2.31948 -1.98823,-2.31948 -2.56753,0 -5.13557,3.39641 -6.95793,10.60341 l -5.96445,23.93998 h -13.41951 l 7.95217,-31.97535 c 0.57982,-2.65098 0.99399,-4.22478 0.99399,-5.38439 0,-1.49111 -0.49686,-2.48511 -1.65673,-3.47935 v -0.16563 h 16.3188 l -2.40191,9.52623 c 3.0649,-6.544 6.8755,-10.35459 12.59113,-10.35459 5.46759,0 7.8695,3.72765 7.8695,8.53249 0,0.57981 -0.0827,1.15962 -0.16537,1.73942 3.14785,-6.54426 7.12407,-10.27191 12.75676,-10.27191 5.55026,0 7.86975,3.56203 7.86975,8.28393 0,1.49086 -0.24882,3.06466 -0.58007,4.63871 z"
       id="Fill-15"
       style="fill:#f5134f;fill-opacity:1;fill-rule:evenodd;stroke:none;stroke-width:0.25519645"
       inkscape:connector-curvature="0" />
    <path
       d="m 248.17245,168.78727 c 6.95844,-2.15385 12.1772,-10.18923 12.1772,-16.73323 0,-1.65673 -0.58005,-2.65098 -1.65673,-2.65098 -3.72791,0 -8.7808,10.18923 -10.52047,19.38421 m -13.83395,6.70988 c 0,-13.17119 10.85172,-27.5852 25.01691,-27.5852 6.79282,0 10.18923,3.47934 10.18923,8.36687 0,9.27767 -10.02335,13.25388 -21.62075,13.75101 -0.24831,1.65648 -0.41419,3.23053 -0.41419,4.72164 0,6.62719 3.14785,9.85772 7.53799,9.85772 3.72791,0 6.2957,-1.82261 9.44355,-5.96419 h 0.49738 c -3.47909,8.03512 -9.44355,12.01133 -16.65055,12.01133 -8.20099,0 -13.99957,-5.21877 -13.99957,-15.15918"
       id="Fill-17"
       style="fill:#f5134f;fill-opacity:1;fill-rule:evenodd;stroke:none;stroke-width:0.25519645"
       inkscape:connector-curvature="0" />
  </g>
</svg>
