<?xml version="1.0" encoding="UTF-8" standalone="no"?>
<svg
   version="1.1"
   id="Layer_1"
   viewBox="0 0 153.2 74.419"
   xml:space="preserve"
   class="logo-color"
   sodipodi:docname="Ciudad Magazine.svg"
   inkscape:version="1.2.2 (732a01da63, 2022-12-09)"
   xmlns:inkscape="http://www.inkscape.org/namespaces/inkscape"
   xmlns:sodipodi="http://sodipodi.sourceforge.net/DTD/sodipodi-0.dtd"
   xmlns:xlink="http://www.w3.org/1999/xlink"
   xmlns="http://www.w3.org/2000/svg"
   xmlns:svg="http://www.w3.org/2000/svg"><sodipodi:namedview
     id="namedview106"
     pagecolor="#ffffff"
     bordercolor="#666666"
     borderopacity="1.0"
     inkscape:showpageshadow="2"
     inkscape:pageopacity="0.0"
     inkscape:pagecheckerboard="0"
     inkscape:deskcolor="#d1d1d1"
     showgrid="false"
     inkscape:zoom="4.0045693"
     inkscape:cx="122.48508"
     inkscape:cy="-4.4948654"
     inkscape:window-width="1920"
     inkscape:window-height="1009"
     inkscape:window-x="-8"
     inkscape:window-y="-8"
     inkscape:window-maximized="1"
     inkscape:current-layer="g5" /><defs
     id="defs179"><radialGradient
       id="XMLID_95_"
       cx="132.834"
       cy="27.336"
       r="24.716999"
       fx="108.12"
       fy="26.914"
       gradientTransform="matrix(-0.6283,0.778,-0.7314,-0.5907,236.285,-59.859)"
       gradientUnits="userSpaceOnUse"
       fr="0"
       spreadMethod="pad"><stop
         offset="0"
         id="stop2283"
         stop-color="#ffd248" /><stop
         offset=".16"
         id="stop2285"
         stop-color="#fdcd45" /><stop
         offset=".344"
         id="stop2287"
         stop-color="#f7bf3d" /><stop
         offset=".541"
         id="stop2289"
         stop-color="#eca830" /><stop
         offset=".747"
         id="stop2291"
         stop-color="#de871d" /><stop
         offset=".958"
         id="stop2293"
         stop-color="#cb5e05" /><stop
         offset="1"
         id="stop2295"
         stop-color="#c75500" /></radialGradient><linearGradient
       y2="9.268"
       x2="12.716"
       y1="38.496"
       x1="94.846"
       gradientUnits="userSpaceOnUse"
       id="linearGradient1170"><stop
         id="stop1168"
         offset="0"
         stop-color="#e68024" /><stop
         id="stop1166"
         offset="1"
         stop-color="#d96316" /></linearGradient><linearGradient
       y2="38.177"
       x2="2.428"
       y1="67.405"
       x1="84.559"
       gradientUnits="userSpaceOnUse"
       id="XMLID_80_"><stop
         id="stop9"
         offset="0"
         stop-color="#d96316" /><stop
         id="stop11"
         offset="1"
         stop-color="#e68024" /></linearGradient><linearGradient
       y2="31.907"
       x2="4.659"
       y1="61.135"
       x1="86.79"
       gradientUnits="userSpaceOnUse"
       id="XMLID_81_"><stop
         id="stop15"
         offset="0"
         stop-color="#d96316" /><stop
         id="stop17"
         offset="1"
         stop-color="#e68024" /></linearGradient><linearGradient
       y2="29.851"
       x2="5.391"
       y1="59.079"
       x1="87.522"
       gradientUnits="userSpaceOnUse"
       id="XMLID_82_"><stop
         id="stop21"
         offset="0"
         stop-color="#d96316" /><stop
         id="stop23"
         offset="1"
         stop-color="#e68024" /></linearGradient><linearGradient
       y2="21.077"
       x2="8.513"
       y1="50.305"
       x1="90.644"
       gradientUnits="userSpaceOnUse"
       id="XMLID_83_"><stop
         id="stop27"
         offset="0"
         stop-color="#d96316" /><stop
         id="stop29"
         offset="1"
         stop-color="#e68024" /></linearGradient><linearGradient
       y2="18.536"
       x2="9.417"
       y1="47.764"
       x1="91.548"
       gradientUnits="userSpaceOnUse"
       id="XMLID_84_"><stop
         id="stop33"
         offset="0"
         stop-color="#d96316" /><stop
         id="stop35"
         offset="1"
         stop-color="#e68024" /></linearGradient><linearGradient
       y2="9.268"
       x2="12.716"
       y1="38.496"
       x1="94.846"
       gradientUnits="userSpaceOnUse"
       id="XMLID_85_"><stop
         id="stop39"
         offset="0"
         stop-color="#d96316" /><stop
         id="stop41"
         offset="1"
         stop-color="#e68024" /></linearGradient><linearGradient
       y2="63.031"
       x2="13.036"
       y1="112.719"
       x1="101.013"
       gradientUnits="userSpaceOnUse"
       id="XMLID_86_"><stop
         id="stop46"
         offset="0"
         stop-color="#b53000" /><stop
         id="stop48"
         offset=".264"
         stop-color="#b83502" /><stop
         id="stop50"
         offset=".57"
         stop-color="#c24308" /><stop
         id="stop52"
         offset=".895"
         stop-color="#d35a12" /><stop
         id="stop54"
         offset="1"
         stop-color="#d96316" /></linearGradient><linearGradient
       y2="53.325"
       x2="18.517"
       y1="103.013"
       x1="106.494"
       gradientUnits="userSpaceOnUse"
       id="XMLID_87_"><stop
         id="stop58"
         offset="0"
         stop-color="#b53000" /><stop
         id="stop60"
         offset=".264"
         stop-color="#b83502" /><stop
         id="stop62"
         offset=".57"
         stop-color="#c24308" /><stop
         id="stop64"
         offset=".895"
         stop-color="#d35a12" /><stop
         id="stop66"
         offset="1"
         stop-color="#d96316" /></linearGradient><linearGradient
       y2="46.347"
       x2="22.459"
       y1="96.035"
       x1="110.435"
       gradientUnits="userSpaceOnUse"
       id="XMLID_88_"><stop
         id="stop70"
         offset="0"
         stop-color="#b53000" /><stop
         id="stop72"
         offset=".264"
         stop-color="#b83502" /><stop
         id="stop74"
         offset=".57"
         stop-color="#c24308" /><stop
         id="stop76"
         offset=".895"
         stop-color="#d35a12" /><stop
         id="stop78"
         offset="1"
         stop-color="#d96316" /></linearGradient><linearGradient
       y2="37.317"
       x2="27.559"
       y1="87.005"
       x1="115.535"
       gradientUnits="userSpaceOnUse"
       id="XMLID_89_"><stop
         id="stop82"
         offset="0"
         stop-color="#b53000" /><stop
         id="stop84"
         offset=".264"
         stop-color="#b83502" /><stop
         id="stop86"
         offset=".57"
         stop-color="#c24308" /><stop
         id="stop88"
         offset=".895"
         stop-color="#d35a12" /><stop
         id="stop90"
         offset="1"
         stop-color="#d96316" /></linearGradient><linearGradient
       y2="29.609"
       x2="31.912"
       y1="79.297"
       x1="119.888"
       gradientUnits="userSpaceOnUse"
       id="XMLID_90_"><stop
         id="stop94"
         offset="0"
         stop-color="#b53000" /><stop
         id="stop96"
         offset=".264"
         stop-color="#b83502" /><stop
         id="stop98"
         offset=".57"
         stop-color="#c24308" /><stop
         id="stop100"
         offset=".895"
         stop-color="#d35a12" /><stop
         id="stop102"
         offset="1"
         stop-color="#d96316" /></linearGradient><linearGradient
       y2="21.949"
       x2="36.238"
       y1="71.637"
       x1="124.214"
       gradientUnits="userSpaceOnUse"
       id="XMLID_91_"><stop
         id="stop106"
         offset="0"
         stop-color="#b53000" /><stop
         id="stop108"
         offset=".264"
         stop-color="#b83502" /><stop
         id="stop110"
         offset=".57"
         stop-color="#c24308" /><stop
         id="stop112"
         offset=".895"
         stop-color="#d35a12" /><stop
         id="stop114"
         offset="1"
         stop-color="#d96316" /></linearGradient><linearGradient
       y2="18.697"
       x2="38.075"
       y1="68.385"
       x1="126.052"
       gradientUnits="userSpaceOnUse"
       id="XMLID_92_"><stop
         id="stop118"
         offset="0"
         stop-color="#b53000" /><stop
         id="stop120"
         offset=".264"
         stop-color="#b83502" /><stop
         id="stop122"
         offset=".57"
         stop-color="#c24308" /><stop
         id="stop124"
         offset=".895"
         stop-color="#d35a12" /><stop
         id="stop126"
         offset="1"
         stop-color="#d96316" /></linearGradient><linearGradient
       y2="10.486"
       x2="42.712"
       y1="60.174"
       x1="130.689"
       gradientUnits="userSpaceOnUse"
       id="XMLID_93_"><stop
         id="stop138"
         offset="0"
         stop-color="#d96316" /><stop
         id="stop136"
         offset="0.105"
         stop-color="#d35a12" /><stop
         id="stop134"
         offset="0.43"
         stop-color="#c24308" /><stop
         id="stop132"
         offset="0.736"
         stop-color="#b83502" /><stop
         id="stop130"
         offset="1"
         stop-color="#b53000" /></linearGradient><linearGradient
       inkscape:collect="always"
       xlink:href="#linearGradient1170"
       id="linearGradient1104"
       x1="17.149946"
       y1="15.930405"
       x2="99.699219"
       y2="46.59922"
       gradientUnits="userSpaceOnUse" /><linearGradient
       inkscape:collect="always"
       xlink:href="#XMLID_93_"
       id="linearGradient1245"
       x1="5.6214342"
       y1="49.499611"
       x2="131.73816"
       y2="75.819"
       gradientUnits="userSpaceOnUse" /><radialGradient
       id="XMLID_94_-0"
       cx="138.19386"
       cy="11.332715"
       r="30.525"
       gradientUnits="userSpaceOnUse"
       fx="138.19386"
       fy="11.332715"
       gradientTransform="translate(-40.022129,-42.675183)"><stop
         offset="0"
         id="stop142-7"
         stop-color="#f38b23" /><stop
         offset=".252"
         id="stop144-2"
         stop-color="#f28721" /><stop
         offset=".493"
         id="stop146-9"
         stop-color="#ed7c1b" /><stop
         offset=".729"
         id="stop148-1"
         stop-color="#e56811" /><stop
         offset=".961"
         id="stop150-2"
         stop-color="#db4e02" /><stop
         offset=".995"
         id="stop152-4"
         stop-color="#d94900" /></radialGradient><radialGradient
       inkscape:collect="always"
       xlink:href="#XMLID_94_-0"
       id="radialGradient1408"
       cx="134.84769"
       cy="7.01858"
       fx="134.84769"
       fy="7.01858"
       r="20.95"
       gradientUnits="userSpaceOnUse"
       gradientTransform="matrix(0,1.5853008,-1.6257768,-1.0086685e-6,146.25832,-206.75556)" /><radialGradient
       id="XMLID_96_-9"
       cx="144.71329"
       cy="16.412289"
       r="20.987"
       gradientUnits="userSpaceOnUse"
       fx="144.71329"
       fy="16.412289"
       gradientTransform="translate(31.113444,-43.707172)"><stop
         offset="0"
         id="stop172-5"
         stop-color="#ffe848" /><stop
         offset="1"
         id="stop174-7"
         stop-color="#ffd969"
         stop-opacity="0" /></radialGradient><radialGradient
       id="XMLID_95_-0"
       cx="132.834"
       cy="27.336"
       r="24.716999"
       fx="108.12"
       fy="26.914"
       gradientTransform="matrix(-0.6283,0.778,-0.7314,-0.5907,240.92868,-116.80106)"
       gradientUnits="userSpaceOnUse"
       xlink:href="#XMLID_96_-9"><stop
         offset="0"
         id="stop2283-7"
         stop-color="#ffd248" /><stop
         offset=".16"
         id="stop2285-3"
         stop-color="#fdcd45" /><stop
         offset=".344"
         id="stop2287-7"
         stop-color="#f7bf3d" /><stop
         offset=".541"
         id="stop2289-3"
         stop-color="#eca830" /><stop
         offset=".747"
         id="stop2291-1"
         stop-color="#de871d" /><stop
         offset=".958"
         id="stop2293-6"
         stop-color="#cb5e05" /><stop
         offset="1"
         id="stop2295-7"
         stop-color="#c75500" /></radialGradient><radialGradient
       id="XMLID_95_-1-1"
       cx="132.834"
       cy="27.336"
       r="24.716999"
       fx="108.12"
       fy="26.914"
       gradientTransform="matrix(-0.6283,0.778,-0.7314,-0.5907,236.285,-59.859)"
       gradientUnits="userSpaceOnUse"
       fr="0"
       spreadMethod="pad"><stop
         offset="0"
         id="stop156-0"
         stop-color="#ffd248" /><stop
         offset=".16"
         id="stop158-8"
         stop-color="#fdcd45" /><stop
         offset=".344"
         id="stop160-0"
         stop-color="#f7bf3d" /><stop
         offset=".541"
         id="stop162-1"
         stop-color="#eca830" /><stop
         offset=".747"
         id="stop164-5"
         stop-color="#de871d" /><stop
         offset=".958"
         id="stop166-1"
         stop-color="#cb5e05" /><stop
         offset="1"
         id="stop168-7"
         stop-color="#c75500" /></radialGradient><radialGradient
       inkscape:collect="always"
       xlink:href="#XMLID_95_"
       id="radialGradient2392"
       cx="135.75471"
       cy="27.447186"
       fx="135.75471"
       fy="27.447186"
       r="21"
       gradientUnits="userSpaceOnUse"
       gradientTransform="matrix(1.3976231,0,0,1.3380952,-53.162202,-9.9738094)" /><radialGradient
       inkscape:collect="always"
       xlink:href="#XMLID_96_-9"
       id="radialGradient2400"
       cx="191.20007"
       cy="1.35"
       fx="191.20007"
       fy="1.35"
       r="21"
       gradientUnits="userSpaceOnUse"
       gradientTransform="translate(-43.70008,7.15)" /></defs><g
     id="g5"
     transform="translate(-1.5 -1.4)"><path
       id="XMLID_250_"
       class="st0"
       d="M 21.5 26.999609 C 20.100002 26.999609 19 27.799221 19 29.099219 C 19 30.499215 20.100002 31.300391 21.5 31.300391 C 22.899998 31.300391 24 30.500779 24 29.200781 L 24 29.099219 C 24 27.799221 22.899998 26.999609 21.5 26.999609 z M 60.099609 26.999609 C 58.899613 26.999609 57.900391 28.000783 57.900391 29.200781 L 57.900391 34.9 C 56.900393 33.600002 55.399996 32.499609 53 32.499609 C 49.300008 32.499609 45.800781 35.400793 45.800781 40.700781 L 45.800781 40.800391 C 45.800781 46.100379 49.300008 48.999609 53 48.999609 C 55.299996 48.999609 56.800393 47.899997 57.900391 46.4 L 57.900391 46.599219 C 57.900391 47.799217 58.899613 48.800391 60.099609 48.800391 C 61.299607 48.800391 62.300781 47.799217 62.300781 46.599219 L 62.300781 29.200781 C 62.300781 28.000783 61.299607 26.999609 60.099609 26.999609 z M 97.5 26.999609 C 96.300002 26.999609 95.300781 28.000783 95.300781 29.200781 L 95.300781 34.9 C 94.300783 33.600002 92.800385 32.499609 90.400391 32.499609 C 86.700397 32.499609 83.199219 35.400793 83.199219 40.700781 L 83.199219 40.800391 C 83.199219 46.100379 86.700397 48.999609 90.400391 48.999609 C 92.700385 48.999609 94.200783 47.899997 95.300781 46.4 L 95.300781 46.599219 C 95.300781 47.799217 96.300002 48.800391 97.5 48.800391 C 98.699998 48.800391 99.699219 47.799217 99.699219 46.599219 L 99.699219 29.200781 C 99.699219 28.000783 98.699998 26.999609 97.5 26.999609 z M 9.8007812 32.599219 C 5.000786 32.599219 1.5 36.300005 1.5 40.9 C 1.5 45.399995 5.0003955 49.099219 9.9003906 49.099219 C 12.500388 49.099219 14.200001 48.299218 15.5 47.099219 C 15.8 46.799219 16.099609 46.300781 16.099609 45.700781 C 16.099609 44.700782 15.299218 43.800391 14.199219 43.800391 C 13.699219 43.800391 13.2 44.000781 13 44.200781 C 12.100001 44.900781 11.199999 45.300391 10 45.300391 C 7.6000024 45.300391 6 43.299998 6 40.9 L 6 40.800391 C 6 38.500393 7.6007834 36.499609 9.8007812 36.499609 C 11.00078 36.499609 11.79961 36.89961 12.599609 37.499609 C 12.899609 37.699609 13.300391 37.9 13.900391 37.9 C 15.00039 37.9 15.900391 36.999999 15.900391 35.9 C 15.900391 35.200001 15.499218 34.6 15.199219 34.4 C 13.89922 33.200001 12.200779 32.599219 9.8007812 32.599219 z M 72.900391 32.700781 C 70.900395 32.700781 69.300387 32.999611 67.900391 33.499609 C 67.200391 33.699609 66.699219 34.400783 66.699219 35.200781 C 66.699219 36.200779 67.599611 36.999609 68.599609 36.999609 C 68.799609 36.999609 68.899219 37 69.199219 36.9 C 70.099217 36.7 71.100783 36.499609 72.300781 36.499609 C 74.500777 36.499609 75.699219 37.500004 75.699219 39.4 L 75.699219 39.700781 C 74.499221 39.400783 73.400779 39.099219 71.800781 39.099219 C 68.000789 39.099219 65.400391 40.700789 65.400391 44.200781 C 65.400391 47.300775 67.799225 48.999609 70.699219 48.999609 C 72.899215 48.999609 74.400002 48.199607 75.5 46.999609 C 75.5 47.999607 76.399221 48.9 77.699219 48.9 C 78.899217 48.9 79.900391 47.900779 79.900391 46.700781 L 79.900391 39.499609 C 79.900391 37.399613 79.399217 35.699607 78.199219 34.499609 C 77.099221 33.299613 75.300385 32.700781 72.900391 32.700781 z M 21.5 32.800391 C 20.300002 32.800391 19.300781 33.799613 19.300781 34.999609 L 19.300781 46.700781 C 19.300781 47.900779 20.300002 48.9 21.5 48.9 C 22.699998 48.9 23.699219 47.900779 23.699219 46.700781 L 23.699219 34.999609 C 23.699219 33.799613 22.699998 32.800391 21.5 32.800391 z M 30.199219 32.800391 C 28.999221 32.800391 28 33.799613 28 34.999609 L 28 42.999609 C 28 46.699603 30.000397 48.9 33.400391 48.9 C 35.600385 48.9 37.000002 47.699998 38 46.4 L 38 46.599219 C 38 47.799217 38.999221 48.800391 40.199219 48.800391 C 41.399217 48.800391 42.400391 47.799217 42.400391 46.599219 L 42.300781 46.599219 L 42.300781 34.999609 C 42.300781 33.799613 41.299607 32.800391 40.099609 32.800391 C 38.899613 32.800391 37.900391 33.799613 37.900391 34.999609 L 37.900391 41.800391 C 37.900391 43.900387 36.799607 44.999609 35.099609 44.999609 C 33.399613 44.999609 32.400391 43.900387 32.400391 41.800391 L 32.400391 34.999609 C 32.400391 33.799613 31.399217 32.800391 30.199219 32.800391 z M 54.099609 36.300391 C 56.199605 36.300391 57.900391 38.100787 57.900391 40.700781 L 57.900391 40.800391 C 57.900391 43.500385 56.199605 45.200781 54.099609 45.200781 C 51.999613 45.200781 50.199219 43.500385 50.199219 40.800391 C 50.199219 38.100395 51.899615 36.400391 54.099609 36.300391 z M 91.400391 36.300391 C 93.500387 36.300391 95.199219 38.100787 95.199219 40.700781 L 95.199219 40.800391 C 95.199219 43.500385 93.500387 45.200781 91.400391 45.200781 C 89.300395 45.200781 87.5 43.500385 87.5 40.800391 C 87.5 38.100395 89.300395 36.400391 91.400391 36.300391 z M 72.699219 41.700781 C 73.799217 41.700781 74.799611 41.900391 75.599609 42.300391 L 75.599609 43.099219 C 75.599609 44.699215 74.199996 45.9 72 45.9 C 70.600002 45.9 69.599609 45.199607 69.599609 43.999609 L 69.599609 43.9 C 69.599609 42.500002 70.799223 41.700781 72.699219 41.700781 z "
       style="fill-opacity:1;fill:url(#linearGradient1104)" /><path
       id="XMLID_193_"
       class="st6"
       d="M 104.19922 49.499609 C 102.79922 49.499609 101.69922 50.29922 101.69922 51.599219 C 101.69922 52.899217 102.79922 53.800391 104.19922 53.800391 C 105.59922 53.800391 106.69922 53.00078 106.69922 51.700781 L 106.69922 51.599219 C 106.69922 50.29922 105.59922 49.499609 104.19922 49.499609 z M 53.900391 54.9 C 50.300394 54.9 46.900391 57.600395 46.900391 62.300391 L 46.900391 62.4 C 46.900391 67.099995 50.200394 69.800391 53.900391 69.800391 C 56.300388 69.800391 57.799611 68.80078 59.099609 67.200781 L 59.099609 67.999609 C 59.099609 70.799607 57.699606 72.300391 54.599609 72.300391 C 52.899611 72.300391 51.499217 71.999999 50.199219 71.4 C 49.999219 71.4 49.8 71.300391 49.5 71.300391 C 48.500001 71.300391 47.699219 72.09922 47.699219 73.099219 C 47.699219 73.899218 48.200001 74.500391 49 74.800391 C 50.899998 75.60039 52.699611 75.900391 54.599609 75.800391 C 57.699606 75.800391 59.900392 75.20078 61.400391 73.700781 C 62.700389 72.400783 63.400391 70.299607 63.400391 67.499609 L 63.400391 57.300391 C 63.400391 56.100392 62.399218 55.099219 61.199219 55.099219 C 59.99922 55.099219 59 56.100392 59 57.300391 C 57.800001 55.900392 56.300388 54.9 53.900391 54.9 z M 136 54.999609 C 131.4 54.999609 128.19922 58.700786 128.19922 63.200781 L 128.19922 63.300391 C 128.19922 68.200386 131.7 71.499609 136.5 71.499609 C 138.8 71.499609 140.60039 70.799608 141.90039 69.499609 C 142.20039 69.19961 142.5 68.800781 142.5 68.200781 C 142.5 67.200782 141.80078 66.4 140.80078 66.4 C 140.30078 66.4 139.99922 66.600391 139.69922 66.800391 C 138.79922 67.50039 137.7 67.9 136.5 67.9 C 134.5 67.9 132.99961 66.800389 132.59961 64.800391 L 141.5 64.800391 C 142.7 64.800391 143.59961 63.899217 143.59961 62.599219 C 143.59961 59.299222 141.29999 54.999609 136 54.999609 z M 11.300781 55.099219 C 9.0007835 55.099219 7.5996084 56.29922 6.5996094 57.599219 L 6.5996094 57.4 C 6.5996094 56.200001 5.6003894 55.200781 4.4003906 55.200781 C 3.4193916 55.230781 2.5 56.298001 2.5 57.4 L 2.5 69.099219 C 2.5 70.299218 3.4992199 71.300391 4.6992188 71.300391 C 5.8992176 71.300391 6.9003906 70.299218 6.9003906 69.099219 L 6.9003906 62.300391 C 6.9003906 60.200393 7.8996111 59.099219 9.5996094 59.099219 C 11.299608 59.099219 12.199219 60.200393 12.199219 62.300391 L 12.199219 69.099219 C 12.199219 70.299218 13.200392 71.300391 14.400391 71.300391 C 15.600389 71.300391 16.599609 70.299218 16.599609 69.099219 L 16.599609 62.300391 C 16.599609 60.200393 17.600783 59.099219 19.300781 59.099219 C 21.00078 59.099219 21.900391 60.200393 21.900391 62.300391 L 21.900391 69.099219 C 21.900391 70.299218 22.899611 71.300391 24.099609 71.300391 C 25.299608 71.300391 26.300781 70.299218 26.300781 69.099219 L 26.300781 60.9 C 26.300781 57.100004 24.299997 55.099219 21 55.099219 C 18.800002 55.099219 17.20078 55.99922 15.800781 57.599219 C 14.900782 55.99922 13.400779 55.099219 11.300781 55.099219 z M 36.800781 55.099219 C 34.800783 55.099219 33.20078 55.4 31.800781 55.9 C 31.100782 56.1 30.599609 56.79922 30.599609 57.599219 C 30.599609 58.599218 31.500001 59.4 32.5 59.4 C 32.7 59.4 32.79961 59.400391 33.099609 59.300391 C 33.999608 59.100391 34.99922 58.9 36.199219 58.9 C 38.399217 58.9 39.599609 59.900393 39.599609 61.800391 L 39.599609 62.099219 C 38.399611 61.799219 37.299217 61.499609 35.699219 61.499609 C 31.899223 61.499609 29.300781 63.099222 29.300781 66.599219 C 29.300781 69.699216 31.799612 71.4 34.599609 71.4 C 36.799607 71.4 38.300392 70.599999 39.400391 69.4 C 39.400391 70.399999 40.299611 71.300391 41.599609 71.300391 C 42.799608 71.300391 43.800781 70.299218 43.800781 69.099219 L 43.800781 61.9 C 43.800781 59.800002 43.299608 58.099999 42.099609 56.9 C 40.99961 55.700001 39.200779 55.099219 36.800781 55.099219 z M 74.199219 55.099219 C 72.199221 55.099219 70.599217 55.4 69.199219 55.9 C 68.499219 56.1 68 56.79922 68 57.599219 C 68 58.599218 68.900392 59.4 69.900391 59.4 C 70.10039 59.4 70.2 59.400391 70.5 59.300391 C 71.399999 59.100391 72.399611 58.9 73.599609 58.9 C 75.799607 58.9 77 59.900393 77 61.800391 L 77 62.099219 C 75.800001 61.799219 74.699608 61.499609 73.099609 61.499609 C 69.299613 61.499609 66.699219 63.099222 66.699219 66.599219 C 66.699219 69.699216 69.200003 71.4 72 71.4 C 74.199998 71.4 75.700782 70.599999 76.800781 69.4 C 76.800781 70.399999 77.700001 71.300391 79 71.300391 C 80.199999 71.300391 81.199219 70.299218 81.199219 69.099219 L 81.199219 61.9 C 81.199219 59.800002 80.699999 58.099999 79.5 56.9 C 78.400001 55.700001 76.599216 55.099219 74.199219 55.099219 z M 119.59961 55.099219 C 117.39961 55.099219 116 56.29922 115 57.599219 L 115 57.4 C 115 56.200001 114.00078 55.200781 112.80078 55.200781 C 111.60078 55.200781 110.59961 56.200001 110.59961 57.4 L 110.69922 57.4 L 110.69922 69.200781 C 110.69922 70.40078 111.70039 71.4 112.90039 71.4 C 114.10039 71.4 115.09961 70.40078 115.09961 69.200781 L 115.09961 62.4 C 115.09961 60.300002 116.20039 59.200781 117.90039 59.200781 C 119.60039 59.200781 120.59961 60.300002 120.59961 62.4 L 120.59961 69.200781 C 120.59961 70.40078 121.60078 71.4 122.80078 71.4 C 124.00078 71.4 125 70.40078 125 69.200781 L 125 60.999609 C 125 57.299613 122.99961 55.099219 119.59961 55.099219 z M 104.09961 55.200781 C 102.89961 55.200781 101.90039 56.200001 101.90039 57.4 L 101.90039 69.099219 C 101.90039 70.299218 102.89961 71.300391 104.09961 71.300391 C 105.29961 71.300391 106.30078 70.299218 106.30078 69.099219 L 106.30078 57.4 C 106.30078 56.200001 105.29961 55.200781 104.09961 55.200781 z M 86.400391 55.4 C 85.400392 55.4 84.599609 56.200782 84.599609 57.200781 C 84.599609 58.20078 85.400392 58.999609 86.400391 58.999609 L 92.699219 58.999609 L 85.400391 67.099219 C 84.700391 67.899218 84.400391 68.500001 84.400391 69.4 C 84.400391 70.399999 85.299611 71.200781 86.599609 71.200781 L 96.599609 71.200781 C 97.599608 71.200781 98.400391 70.399999 98.400391 69.4 C 98.400391 68.400001 97.599608 67.599219 96.599609 67.599219 L 90 67.599219 L 97.400391 59.499609 C 98.10039 58.69961 98.400391 58.20039 98.400391 57.300391 L 98.400391 57.200781 C 98.400391 56.100782 97.499217 55.4 96.199219 55.4 L 86.400391 55.4 z M 136.09961 58.599219 C 137.99961 58.599219 139.10039 59.999611 139.40039 61.999609 L 132.69922 61.999609 C 132.99922 59.899611 134.19961 58.599219 136.09961 58.599219 z M 55.300781 58.800391 C 57.500779 58.800391 59.199219 60.299612 59.199219 62.499609 C 59.199219 64.599607 57.500779 66.100391 55.300781 66.300391 C 53.200783 66.300391 51.5 64.799217 51.5 62.599219 L 51.5 62.499609 C 51.5 60.299612 53.100783 58.800391 55.300781 58.800391 z M 36.699219 64.200781 C 37.799218 64.200781 38.79961 64.400391 39.599609 64.800391 L 39.599609 65.599219 C 39.599609 67.199217 38.199998 68.3 36 68.4 C 34.600001 68.4 33.599609 67.699608 33.599609 66.499609 L 33.599609 66.4 C 33.599609 65.000001 34.799221 64.200781 36.699219 64.200781 z M 74.099609 64.200781 C 75.199608 64.200781 76.200001 64.400391 77 64.800391 L 77 65.599219 C 77 67.199217 75.600388 68.3 73.400391 68.4 C 72.000392 68.4 71 67.699608 71 66.499609 L 71 66.4 C 71 65.000001 72.199611 64.200781 74.099609 64.200781 z "
       style="fill-opacity:1;fill:url(#linearGradient1245)" /><radialGradient
       id="XMLID_94_"
       cx="138.19386"
       cy="11.332715"
       r="30.525"
       gradientUnits="userSpaceOnUse"
       fx="138.19386"
       fy="11.332715"><stop
         offset="0"
         id="stop142"
         stop-color="#f38b23" /><stop
         offset=".252"
         id="stop144"
         stop-color="#f28721" /><stop
         offset=".493"
         id="stop146"
         stop-color="#ed7c1b" /><stop
         offset=".729"
         id="stop148"
         stop-color="#e56811" /><stop
         offset=".961"
         id="stop150"
         stop-color="#db4e02" /><stop
         offset=".995"
         id="stop152"
         stop-color="#d94900" /></radialGradient><path
       id="XMLID_172_"
       class="st14"
       d="M112.7 43.3c-4.4-4.4-7.1-10.6-7.1-17.3 0-13.6 11-24.6 24.6-24.6 6.8 0 12.9 2.7 17.3 7.1l-34.8 34.8z"
       fill="url(#XMLID_94_)"
       style="fill:url(#radialGradient1408);fill-opacity:1" /><radialGradient
       id="XMLID_95_-1"
       cx="132.834"
       cy="27.336"
       r="24.716999"
       fx="108.12"
       fy="26.914"
       gradientTransform="matrix(-0.6283,0.778,-0.7314,-0.5907,236.285,-59.859)"
       gradientUnits="userSpaceOnUse"
       fr="0"
       spreadMethod="pad"><stop
         offset="0"
         id="stop156"
         stop-color="#ffd248" /><stop
         offset=".16"
         id="stop158"
         stop-color="#fdcd45" /><stop
         offset=".344"
         id="stop160"
         stop-color="#f7bf3d" /><stop
         offset=".541"
         id="stop162"
         stop-color="#eca830" /><stop
         offset=".747"
         id="stop164"
         stop-color="#de871d" /><stop
         offset=".958"
         id="stop166"
         stop-color="#cb5e05" /><stop
         offset="1"
         id="stop168"
         stop-color="#c75500" /></radialGradient><path
       id="XMLID_171_"
       class="st15"
       d="M147.5 8.5c4.5 4.4 7.2 10.6 7.2 17.4 0 13.6-11 24.6-24.6 24.6-6.8 0-13-2.8-17.4-7.2l34.8-34.8z"
       fill="url(#XMLID_95_)"
       style="fill-opacity:1;fill:url(#radialGradient2392)" /><radialGradient
       id="XMLID_96_"
       cx="144.71329"
       cy="16.412289"
       r="20.987"
       gradientUnits="userSpaceOnUse"
       fx="144.71329"
       fy="16.412289"
       gradientTransform="translate(43.700081,-7.15)"><stop
         offset="0"
         id="stop172"
         stop-color="#ffe848" /><stop
         offset="1"
         id="stop174"
         stop-color="#ffd969"
         stop-opacity="0" /></radialGradient><path
       id="XMLID_170_"
       class="st16"
       d="m 147.5,8.5 c 4.5,4.4 7.2,10.6 7.2,17.4 0,13.6 -11,24.6 -24.6,24.6 -6.8,0 -13,-2.8 -17.4,-7.2 z"
       fill="url(#XMLID_96_)"
       style="fill:url(#radialGradient2400);fill-opacity:1" /></g></svg>
