<?xml version="1.0" encoding="UTF-8" standalone="no"?>
<svg
   xmlns:dc="http://purl.org/dc/elements/1.1/"
   xmlns:cc="http://creativecommons.org/ns#"
   xmlns:rdf="http://www.w3.org/1999/02/22-rdf-syntax-ns#"
   xmlns:svg="http://www.w3.org/2000/svg"
   xmlns="http://www.w3.org/2000/svg"
   xmlns:sodipodi="http://sodipodi.sourceforge.net/DTD/sodipodi-0.dtd"
   xmlns:inkscape="http://www.inkscape.org/namespaces/inkscape"
   version="1.1"
   id="Layer_1"
   x="0px"
   y="0px"
   viewBox="0 0 728.26667 500"
   xml:space="preserve"
   class="coh-image coh-image-responsive-xl coh-image-responsive-xs"
   width="728.26666"
   height="500"
   sodipodi:docname="Paramount_Global.svg"
   inkscape:version="1.0.1 (3bc2e813f5, 2020-09-07)"><metadata
   id="metadata911"><rdf:RDF><cc:Work
       rdf:about=""><dc:format>image/svg+xml</dc:format><dc:type
         rdf:resource="http://purl.org/dc/dcmitype/StillImage" /><dc:title></dc:title></cc:Work></rdf:RDF></metadata><defs
   id="defs909" /><sodipodi:namedview
   pagecolor="#ffffff"
   bordercolor="#666666"
   borderopacity="1"
   objecttolerance="10"
   gridtolerance="10"
   guidetolerance="10"
   inkscape:pageopacity="0"
   inkscape:pageshadow="2"
   inkscape:window-width="1360"
   inkscape:window-height="706"
   id="namedview907"
   showgrid="false"
   inkscape:zoom="0.88196721"
   inkscape:cx="292.24821"
   inkscape:cy="259.14383"
   inkscape:window-x="-8"
   inkscape:window-y="-8"
   inkscape:window-maximized="1"
   inkscape:current-layer="g904" />

<g
   fill="#FFFFFF"
   id="g904"
   style="fill:#000a3b;fill-opacity:1"
   transform="matrix(1.6694491,0,0,1.6694491,-227.53819,-253.75626)">
	<g
   fill="#FFFFFF"
   id="g848"
   style="fill:#000a3b;fill-opacity:1"
   transform="matrix(1.4080865,0,0,1.4080865,-55.620301,-62.029147)">
		<path
   class="st0"
   d="m 289.9,257.4 c -0.8,-0.3 -2.1,-1.8 0.1,-6 l 5.1,-10.7 c 0.2,-0.3 -0.2,-0.7 -0.5,-0.5 l -4.5,4.5 c -2.1,2.2 -5.7,8.4 -6.4,9.6 l -5.4,9 c 0.6,0 0.9,0.6 0.7,1.1 l -5,8.4 c -1.2,2.1 1,3.5 1.3,3 7.8,-12.6 12.4,-11.6 12.4,-11.6 l 2.6,-6.1 c 0.1,-0.2 -0.1,-0.6 -0.4,-0.7"
   fill="#FFFFFF"
   id="path842"
   style="fill:#000a3b;fill-opacity:1" />
		<path
   class="st0"
   d="m 307.7,152 c -44.8,0 -81,36.3 -81,81 0,18 5.9,34.7 15.8,48.1 3.4,-1.5 5.3,-3.7 6.6,-5.3 l 15.1,-19.3 c 0.3,-0.4 0.7,-0.7 1.2,-0.9 l 2.3,-1 24.8,-31.5 3.6,-2.8 7.4,-10.3 c 0.2,-0.3 0.4,-0.5 0.7,-0.7 l 3.2,-2.3 c 0.8,-0.6 1.9,-0.6 2.7,0 l 3.9,2.7 c 2.1,1.5 3.8,3.4 4.9,5.7 l 15.7,27.5 c 0.3,0.6 0.6,0.9 1.2,1.2 3.1,1.5 4.9,1.8 9,6.2 1.9,2 10.1,11.2 21.6,25.5 1.6,2.2 3.6,4 6.5,5.3 9.9,-13.4 15.8,-30.1 15.8,-48.1 0.1,-44.7 -36.2,-81 -81,-81 m -59.2,85.5 -5.3,-1.7 -3.2,4.5 v -5.5 l -5.3,-1.7 5.3,-1.7 v -5.5 l 3.2,4.5 5.3,-1.7 -3.2,4.5 z m -1.2,18.1 -1.7,5.3 -1.7,-5.3 h -5.5 l 4.5,-3.2 -1.7,-5.3 4.5,3.2 4.5,-3.2 -1.7,5.3 4.5,3.2 z m 1,-41.9 1.7,5.3 -4.5,-3.2 -4.5,3.2 1.7,-5.3 -4.5,-3.2 h 5.5 l 1.7,-5.3 1.7,5.3 h 5.5 z m 8.9,-11.9 -3.2,-4.5 -5.3,1.7 3.2,-4.5 -3.2,-4.5 5.3,1.7 3.2,-4.5 v 5.5 l 5.3,1.7 -5.3,1.7 z m 13.8,-19.3 -1.7,5.3 -1.7,-5.3 h -5.5 l 4.5,-3.2 -1.7,-5.3 4.5,3.2 4.5,-3.2 -1.7,5.3 4.5,3.2 z m 17.4,-8.9 -3.2,4.5 v -5.5 l -5.3,-1.7 5.3,-1.7 v -5.5 l 3.2,4.5 5.3,-1.7 -3.2,4.5 3.2,4.5 z m 22.1,-5 1.7,5.3 -4.5,-3.2 -4.5,3.2 1.7,-5.3 -4.5,-3.2 h 5.5 l 1.7,-5.3 1.7,5.3 h 5.5 z m 19.8,4 v 5.5 l -3.2,-4.5 -5.3,1.7 3.2,-4.5 -3.2,-4.5 5.3,1.7 3.2,-4.5 v 5.5 l 5.3,1.7 z m 36.6,56 5.3,1.7 3.2,-4.5 v 5.5 l 5.3,1.7 -5.3,1.7 v 5.5 l -3.2,-4.5 -5.3,1.7 3.2,-4.5 z m -20.8,-40.8 -1.7,-5.3 h -5.5 l 4.5,-3.2 -1.7,-5.3 4.5,3.2 4.5,-3.2 -1.7,5.3 4.5,3.2 H 348 Z m 12.1,14 v -5.5 l -5.3,-1.7 5.3,-1.7 v -5.5 l 3.2,4.5 5.3,-1.7 -3.2,4.5 3.2,4.5 -5.3,-1.7 z m 10,8.7 1.7,-5.3 1.7,5.3 h 5.5 l -4.5,3.2 1.7,5.3 -4.5,-3.2 -4.5,3.2 1.7,-5.3 -4.5,-3.2 z m 3.4,45.1 -1.7,5.3 -1.7,-5.3 h -5.5 l 4.5,-3.2 -1.7,-5.3 4.5,3.2 4.5,-3.2 -1.7,5.3 4.5,3.2 z"
   fill="#FFFFFF"
   id="path844"
   style="fill:#000a3b;fill-opacity:1" />
		<path
   class="st0"
   d="m 337.1,279.9 c 0.4,-0.6 1,-2.1 -0.2,-5 l -3.6,-9.6 c -0.5,-1.2 0.6,-2 1.3,-1.2 0,0 6.8,7.8 8.5,11.1 l 3.3,5.5 c 2.9,0.2 10.8,0.4 18.5,0.4 -0.8,-0.8 -1.5,-1.6 -2.1,-2.5 -13,-16.2 -21.3,-25.2 -21.4,-25.2 -2.6,-2.9 -3.9,-3.4 -5.9,-4.3 -0.3,-0.1 -0.6,-0.3 -0.9,-0.4 v 2.5 c 0,0.3 -0.4,0.5 -0.6,0.2 l -19.2,-33.7 -0.1,-0.1 c -0.8,-1.6 -2,-3 -3.4,-4 l -1.9,-1.3 -9.1,21.1 c 1.4,0 2.4,1.5 1.8,2.8 l -8.4,19.5 h 7.8 c 3,0 6,0.6 8.7,1.7 l 2,0.8 c 0,0 -6.2,12.7 -6.2,19.4 0,1.2 0.2,2.4 0.5,3.6 h 14.2 l -0.7,-4 c 0.2,-0.1 8.7,1.9 17.1,2.7"
   fill="#FFFFFF"
   id="path846"
   style="fill:#000a3b;fill-opacity:1" />
	</g>
	<g
   fill="#FFFFFF"
   id="g854"
   style="fill:#000a3b;fill-opacity:1"
   transform="matrix(1.4080865,0,0,1.4080865,-55.620301,-62.029147)">
		<path
   class="st0"
   d="m 229,302.4 c 0,-14.4 -15.2,-21.3 -33.4,-21.3 -19.4,0 -37.2,8.6 -43.7,21.9 -1.8,3.5 -2.7,7.5 -2.7,11.5 -0.1,3.5 0.9,6.9 2.7,9.7 2.8,4.1 7.8,6.7 15.1,6.7 9,0 16.1,-4.9 16.1,-13.5 0,0 0.1,-2.4 -2.7,-2.4 -2.3,0 -2.9,1.6 -2.8,2.4 0.3,6.7 -3.7,12.1 -10.8,12.1 -8,0 -11.3,-6.8 -11.3,-14 0,-14.8 11.2,-24.7 22.8,-29 5.5,-2.1 11.2,-3.1 17,-3 13.2,0 24,5.1 24,18.6 0,11.3 -9.5,21 -20.9,21.8 l 0.5,-1.5 c 2.3,-8.3 5.2,-17.4 9.9,-24.2 0.3,-0.4 0.7,-1.1 1.3,-1.7 l -0.7,-0.8 c -1,0.6 -1.9,1.3 -2.9,2 -21.8,17 -22.5,65 -51.6,65 -1,0 -2,-0.1 -3,-0.2 -6.1,-1 -9.3,-5.1 -9.3,-10.7 0,-1.1 0.4,-2.7 0.4,-3.5 0.1,-1.6 -1.3,-3 -2.9,-3 H 140 c -2.6,0 -3.7,2.1 -3.7,5 -0.2,8.5 6.1,13.4 15.7,14.3 1.1,0.1 2.1,0.1 3.3,0.1 22.7,0 36.6,-17.2 42.5,-38 3,-0.3 6,-1 8.9,-1.9 10.4,-2.9 22.3,-10 22.3,-22.4"
   fill="#FFFFFF"
   id="path850"
   style="fill:#000a3b;fill-opacity:1" />
		<path
   class="st0"
   d="m 445.3,307.4 h -8 l -1.8,4.2 -3.1,7.1 h -3.7 l -1.1,2.4 h 3.9 l -4.7,10.3 c -3.3,7.3 -8.5,14.4 -11.5,14.4 -0.7,0 -1.1,-0.3 -1.1,-0.9 0,-0.7 0.2,-1.3 0.9,-3.1 0.9,-2.2 2.5,-5.4 3.6,-7.7 1.7,-3.4 4.3,-8.7 4.3,-11.3 0,-2.6 -1.7,-4.7 -4.9,-4.7 -3.7,0 -7,2.2 -10.1,5.4 l 2,-4.8 h -7.5 l -6.1,14 c -2.5,4.9 -7.5,13.1 -10.6,13.1 -0.7,0 -0.9,-0.4 -0.9,-1.1 0.1,-0.6 0.2,-1.1 0.5,-1.7 0.3,-0.6 3.9,-9.2 3.9,-9.2 l 6.7,-15.2 h -8.1 l -6.5,14.8 c -2,4.6 -7.1,12.4 -10.3,12.4 -0.5,0.1 -1.1,-0.3 -1.1,-0.9 v -0.3 c 0,-0.8 0.6,-2.3 1.1,-3.3 l 3.4,-7.5 7,-15.2 h -8.1 l -1.6,3.5 c -1.2,2.3 -3.2,5.1 -6.4,5.1 -1.5,0 -2.3,-0.6 -2.6,-1.2 -0.5,-5.1 -3.7,-7.9 -8.5,-7.9 -6.7,0 -11.4,3.9 -14.5,8.7 -2.1,3.3 -3.7,6.9 -4.8,10.6 -2.9,4.7 -5.9,8.4 -8.3,8.4 -0.6,0 -1,-0.3 -1,-1.1 0,-0.8 0.8,-2.6 1.1,-3.3 l 5.3,-11.2 c 1.5,-3.5 2.5,-5.7 2.5,-8 0,-2.4 -1.7,-4.1 -4.4,-4.1 -3.8,0 -7.9,2.2 -11.2,5.8 0.1,-0.6 0.1,-1.1 0.1,-1.7 0,-2.7 -1.3,-4.1 -4.1,-4.1 -3.5,0 -7.1,2.1 -10.3,5.8 l 2.1,-5.2 h -7.3 l -6.2,14 c -2.9,6.6 -7.7,13.1 -10.3,13.1 -0.6,0 -1,-0.3 -1,-1.1 0,-1.3 1.4,-4.4 1.9,-5.7 l 8.2,-18.6 c 0.6,-1.4 -3.3,-2.3 -8.3,-2.3 -5.1,0 -10.4,2.5 -14.2,5.8 -2.7,2.3 -4.7,3.4 -5.7,3.4 -0.5,0 -0.7,-0.3 -0.7,-0.6 0,-1.1 2.7,-4.3 2.7,-6.8 0,-1.1 -0.6,-1.9 -2.1,-1.9 -2.9,0 -6.4,2.8 -8.9,5.7 l 2.1,-5.1 h -7.2 l -6.2,14 c -2.9,6.6 -7.8,13.5 -10.5,13.5 -0.6,0 -1,-0.3 -1,-1.1 0,-1.3 1.3,-4.3 2.1,-5.9 l 8.2,-18.6 c 0.6,-1.4 -3.3,-2.3 -8.3,-2.3 -7.4,0 -14.6,5 -18.4,10.1 -4.2,5.5 -7.1,11.4 -7.1,16.2 -0.1,3.9 1.9,6.3 5.9,6.3 4.5,0 8.1,-3.5 10.1,-6.2 -0.1,0.5 -0.2,1.1 -0.3,1.6 0,2.7 1.1,4.6 4.3,4.6 2.9,0 6.7,-2.4 9.7,-6.2 l -2.5,5.7 h 7.8 l 7.7,-17.4 c 2.5,-5.7 5.4,-8.6 6.2,-8.6 0.3,0 0.4,0.1 0.4,0.3 0,0.6 -1.2,2.2 -1.2,3.7 0,1.5 0.8,2.6 2.9,2.6 1.7,0 3.5,-0.8 5.2,-1.9 -3.9,5.3 -6.6,10.9 -6.6,15.5 -0.1,3.9 1.9,6.3 5.9,6.3 4.2,0 8.1,-4 10.3,-6.7 -0.1,0.6 -0.1,1.2 -0.1,1.9 0,2.6 1.5,4.8 4.5,4.8 3.3,0 6,-2.1 9.3,-6.1 l -2.5,5.6 h 8 l 7.3,-16.6 c 3.2,-7.2 7.5,-11.1 9.7,-11.1 0.5,-0.1 1,0.3 1.1,0.9 v 0.2 c -0.1,0.8 -0.3,1.6 -0.7,2.3 l -10.5,24.3 h 8.2 l 7.5,-16.9 c 3.2,-7.3 6.7,-10.8 9.4,-10.8 0.8,0 1.1,0.4 1.1,1.3 -0.1,0.9 -0.3,1.9 -0.7,2.7 l -7.2,15.3 c -0.7,1.5 -1.1,3.1 -1.2,4.7 0,2.3 1.3,4.4 4.9,4.4 4.7,0 8.2,-3.5 12.2,-8.8 v 1.1 c 0.3,4.2 2.7,7.9 8.9,7.9 7.3,0 13.2,-5.1 16.8,-13.1 1.3,-2.9 2.3,-5.9 2.6,-9 0.8,0.4 1.7,0.6 2.6,0.5 1.2,0 2.4,-0.3 3.5,-0.9 l -1.3,2.7 c -1.5,3.1 -3.1,6.5 -4.3,9.3 -0.8,1.7 -1.3,3.5 -1.4,5.4 0,2.9 1.6,4.9 4.9,4.9 3.3,0 7.7,-3.1 10.9,-7.4 h 0.1 c -0.2,0.9 -0.3,1.8 -0.3,2.7 0,2.4 0.7,4.7 4.1,4.7 3.9,0 6.9,-2.8 9.8,-6.3 l -2.5,5.6 h 8.1 l 6.5,-14.6 c 3.7,-8.3 7.3,-13.2 10.7,-13.2 0.6,0 1.1,0.4 1.1,1 v 0.2 c 0,1.4 -2,5.2 -3.8,9 -1.7,3.5 -2.9,6.1 -3.8,8.2 -0.8,1.7 -1.3,3.6 -1.4,5.5 0,2.5 1.4,4.5 4.5,4.5 4.7,0 9.4,-4.5 11.9,-7.9 -0.6,1.7 -0.9,3.3 -0.9,5.1 0,4.7 2.8,7 6.7,7 2.6,0 5.1,-0.9 7.3,-2.4 3.1,-2.1 5.5,-5.3 7.6,-8.3 l -1.4,-1.3 c -1.9,2.7 -4.1,5.3 -6.3,6.9 -1.2,1 -2.6,1.5 -4.1,1.6 -1.7,0 -2.7,-0.9 -2.7,-3 0,-2.1 1,-5 2.5,-8.9 0.1,-0.1 2.3,-5 4.3,-9.7 1.7,-4 3.5,-7.9 3.8,-8.7 h 5.3 l 1.1,-2.4 h -5.2 z m -227.2,38.4 c -1.1,0 -1.9,-0.4 -1.9,-1.9 0.1,-3.9 3.3,-10.9 7.4,-16.5 2.9,-3.9 6.6,-6.7 10.6,-6.7 l -5.1,11.3 c -3.8,8.5 -7.9,13.8 -11,13.8 m 49.8,0 c -1.1,0 -1.9,-0.4 -2,-1.9 0.1,-3.9 3.3,-10.9 7.4,-16.5 2.9,-3.9 6.6,-6.7 10.6,-6.7 l -5.1,11.3 c -3.8,8.7 -7.7,13.8 -10.9,13.8 m 88.5,-22 c -0.2,4.3 -4,14.8 -8.5,21 -1.8,2.5 -3.3,3.3 -4.7,3.3 -1.9,0 -2.4,-1.5 -2.1,-3.8 0.4,-3.9 3.7,-13.1 8.2,-19.4 2.1,-2.9 3.5,-4.1 5.1,-4.1 1.6,0 2,1.3 2,3"
   fill="#FFFFFF"
   id="path852"
   style="fill:#000a3b;fill-opacity:1" />
	</g>
	
</g>
</svg>
