<?xml version="1.0" encoding="UTF-8" standalone="no"?>
<!-- Generator: Adobe Illustrator 16.0.0, SVG Export Plug-In . SVG Version: 6.00 Build 0)  -->

<svg
   xmlns:dc="http://purl.org/dc/elements/1.1/"
   xmlns:cc="http://creativecommons.org/ns#"
   xmlns:rdf="http://www.w3.org/1999/02/22-rdf-syntax-ns#"
   xmlns:svg="http://www.w3.org/2000/svg"
   xmlns="http://www.w3.org/2000/svg"
   xmlns:xlink="http://www.w3.org/1999/xlink"
   xmlns:sodipodi="http://sodipodi.sourceforge.net/DTD/sodipodi-0.dtd"
   xmlns:inkscape="http://www.inkscape.org/namespaces/inkscape"
   version="1.1"
   id="Layer_1"
   x="0px"
   y="0px"
   width="996.43939"
   height="999.13477"
   viewBox="0 0 996.43939 999.13477"
   enable-background="new 0 0 997.211 1000"
   xml:space="preserve"
   sodipodi:docname="Sony Movies 2019.svg"
   inkscape:version="0.92.1 r15371"><metadata
     id="metadata4556"><rdf:RDF><cc:Work
         rdf:about=""><dc:format>image/svg+xml</dc:format><dc:type
           rdf:resource="http://purl.org/dc/dcmitype/StillImage" /><dc:title></dc:title></cc:Work></rdf:RDF></metadata><defs
     id="defs4554"><linearGradient
       id="linearGradient5298"
       inkscape:collect="always"><stop
         id="stop5294"
         offset="0"
         style="stop-color:#000000;stop-opacity:1;" /><stop
         style="stop-color:#0001ab;stop-opacity:0.52941179"
         offset="0.60196483"
         id="stop5300" /><stop
         id="stop5296"
         offset="1"
         style="stop-color:#000000;stop-opacity:0;" /></linearGradient><linearGradient
       id="linearGradient5252"
       inkscape:collect="always"><stop
         id="stop5246"
         offset="0"
         style="stop-color:#328fff;stop-opacity:1" /><stop
         style="stop-color:#003b97;stop-opacity:1"
         offset="0.331801"
         id="stop5248" /><stop
         id="stop5250"
         offset="1"
         style="stop-color:#20ecff;stop-opacity:1" /></linearGradient><linearGradient
       id="linearGradient5242"
       inkscape:collect="always"><stop
         id="stop5236"
         offset="0"
         style="stop-color:#58e6f3;stop-opacity:1" /><stop
         style="stop-color:#38bdf3;stop-opacity:1"
         offset="0.44609016"
         id="stop5256" /><stop
         id="stop5240"
         offset="1"
         style="stop-color:#1854f4;stop-opacity:1" /></linearGradient><linearGradient
       inkscape:collect="always"
       id="linearGradient5024"><stop
         style="stop-color:#de54ff;stop-opacity:1"
         offset="0"
         id="stop5020" /><stop
         style="stop-color:#ff006f;stop-opacity:0"
         offset="1"
         id="stop5022" /></linearGradient><linearGradient
       inkscape:collect="always"
       id="linearGradient5003"><stop
         style="stop-color:#4fdbff;stop-opacity:1"
         offset="0"
         id="stop4999" /><stop
         id="stop5007"
         offset="0.67064583"
         style="stop-color:#0de2ff;stop-opacity:0.20723684" /><stop
         style="stop-color:#0ce3ff;stop-opacity:0"
         offset="1"
         id="stop5001" /></linearGradient><linearGradient
       inkscape:collect="always"
       id="linearGradient4792"><stop
         style="stop-color:#00eaff;stop-opacity:1"
         offset="0"
         id="stop4788" /><stop
         id="stop4798"
         offset="0.331801"
         style="stop-color:#471796;stop-opacity:1" /><stop
         style="stop-color:#dc2cda;stop-opacity:1"
         offset="1"
         id="stop4790" /></linearGradient><linearGradient
       inkscape:collect="always"
       id="linearGradient4642"><stop
         style="stop-color:#ffcc00;stop-opacity:1;"
         offset="0"
         id="stop4638" /><stop
         id="stop4704"
         offset="0.71421242"
         style="stop-color:#ff2300;stop-opacity:1" /><stop
         style="stop-color:#c83737;stop-opacity:1"
         offset="1"
         id="stop4640" /></linearGradient><radialGradient
       inkscape:collect="always"
       xlink:href="#linearGradient4642"
       id="radialGradient4672"
       cx="1602.6404"
       cy="382.96609"
       fx="1602.6404"
       fy="382.96609"
       r="490.72949"
       gradientTransform="matrix(1.9628819,0.34968733,-0.20664914,1.1600396,-1445.3874,-567.21332)"
       gradientUnits="userSpaceOnUse" /><linearGradient
       inkscape:collect="always"
       xlink:href="#linearGradient5252"
       id="linearGradient4796"
       x1="1129.995"
       y1="103.93842"
       x2="2475.5071"
       y2="949.2511"
       gradientUnits="userSpaceOnUse" /><linearGradient
       inkscape:collect="always"
       xlink:href="#linearGradient4792"
       id="linearGradient4853"
       x1="1328.2728"
       y1="614.73999"
       x2="2309.7317"
       y2="614.73999"
       gradientUnits="userSpaceOnUse" /><linearGradient
       gradientTransform="translate(0,-4.375e-6)"
       inkscape:collect="always"
       xlink:href="#linearGradient4698"
       id="linearGradient4622"
       x1="1784.1779"
       y1="244.14156"
       x2="1602.7073"
       y2="851.17505"
       gradientUnits="userSpaceOnUse" /><linearGradient
       inkscape:collect="always"
       xlink:href="#linearGradient5298"
       id="linearGradient4702"
       x1="1432.9142"
       y1="914.06702"
       x2="1546.3361"
       y2="443.23904"
       gradientUnits="userSpaceOnUse"
       gradientTransform="translate(0.0033,0.14078847)" /><linearGradient
       inkscape:collect="always"
       id="linearGradient4698"><stop
         style="stop-color:#000000;stop-opacity:1;"
         offset="0"
         id="stop4694" /><stop
         style="stop-color:#000000;stop-opacity:0;"
         offset="1"
         id="stop4696" /></linearGradient><radialGradient
       inkscape:collect="always"
       xlink:href="#linearGradient5003"
       id="radialGradient5005"
       cx="-52.844028"
       cy="184.42203"
       fx="-52.844028"
       fy="184.42203"
       r="490.72949"
       gradientTransform="matrix(1.1381168,0.24700858,-0.16813657,0.77475934,1419.4235,114.63096)"
       gradientUnits="userSpaceOnUse" /><radialGradient
       inkscape:collect="always"
       xlink:href="#linearGradient5024"
       id="radialGradient5026"
       cx="782.2323"
       cy="557.95087"
       fx="782.2323"
       fy="557.95087"
       r="490.72949"
       gradientTransform="matrix(1.7336682,0.63782719,-0.2976966,0.80916456,1950.476,-702.56931)"
       gradientUnits="userSpaceOnUse" /><pattern
       y="0"
       x="0"
       height="6"
       width="6"
       patternUnits="userSpaceOnUse"
       id="EMFhbasepattern" /><linearGradient
       inkscape:collect="always"
       xlink:href="#linearGradient5242"
       id="linearGradient5272"
       x1="988.94922"
       y1="715.44727"
       x2="7.5292969"
       y2="255.15234"
       gradientUnits="userSpaceOnUse"
       gradientTransform="translate(1320.7832,-6.6644622)" /></defs><sodipodi:namedview
     pagecolor="#ffffff"
     bordercolor="#666666"
     borderopacity="1"
     objecttolerance="10"
     gridtolerance="10"
     guidetolerance="10"
     inkscape:pageopacity="0"
     inkscape:pageshadow="2"
     inkscape:window-width="1920"
     inkscape:window-height="1018"
     id="namedview4552"
     showgrid="false"
     showguides="true"
     inkscape:guide-bbox="true"
     fit-margin-top="0"
     fit-margin-left="0"
     fit-margin-right="0"
     fit-margin-bottom="0"
     inkscape:zoom="0.32267384"
     inkscape:cx="13.738897"
     inkscape:cy="955.56401"
     inkscape:window-x="-8"
     inkscape:window-y="-8"
     inkscape:window-maximized="1"
     inkscape:current-layer="g4549"
     inkscape:lockguides="true" /><g
     id="g4549"
     transform="translate(-1320.7832,6.654725)"><path
       style="fill:url(#linearGradient4796);fill-opacity:1;stroke:none;stroke-width:7.80472422;stroke-miterlimit:4;stroke-dasharray:none;stroke-opacity:1"
       d="m 1398.3086,-6.654725 c -42.6058,0 -77.5254,34.920441 -77.5254,77.523438 V 914.95661 c 0,42.60275 34.9173,77.52344 77.5195,77.52344 h 841.3945 c 42.6058,0 77.5254,-34.92044 77.5254,-77.52344 V 70.868713 c 0,-42.602504 -34.9153,-77.523438 -77.5176,-77.523438 z"
       id="path4603"
       inkscape:connector-curvature="0" /><path
       id="path4997"
       d="m 1398.3086,0.8257722 c -38.521,0 -70.0352,31.5152028 -70.0352,70.0332038 V 244.441 c 0,0.007 0,0.013 0,0.0195 v 670.50585 c 0,38.51801 31.5123,70.0332 70.0293,70.0332 h 841.3945 c 38.521,0 70.0352,-31.51519 70.0352,-70.0332 V 708.80234 c -28.945,-173.98701 -300.0718,-196.0307 -538.3828,-223.3047 -219.1894,-25.08596 -432.8395,-66.24482 -442.7188,-229.11913 -0.1576,-2.59944 -0.2653,-5.22876 -0.3183,-7.89063 0.053,2.66178 0.1604,5.29128 0.3183,7.89063 9.8951,162.85821 223.5381,204.01464 442.7188,229.09961 238.311,27.27399 509.4378,49.31769 538.3828,223.30469 V 70.858976 c 0,-38.518001 -31.5104,-70.0332038 -70.0274,-70.0332038 z"
       style="clip-rule:evenodd;opacity:0.872;fill:url(#radialGradient5005);fill-opacity:1;fill-rule:evenodd"
       inkscape:connector-curvature="0" /><path
       style="clip-rule:evenodd;fill:url(#linearGradient5272);fill-opacity:1;fill-rule:evenodd"
       d="m 1398.3086,0.8257722 c -38.521,0 -70.0352,31.5152028 -70.0352,70.0332038 V 244.441 c 0,0.007 0,0.013 0,0.0195 v 670.50585 c 0,38.51801 31.5123,70.0332 70.0293,70.0332 h 841.3945 c 38.521,0 70.0352,-31.51519 70.0352,-70.0332 V 708.80234 c -28.945,-173.98701 -300.0718,-196.0307 -538.3828,-223.3047 -219.1894,-25.08596 -432.8395,-66.24482 -442.7188,-229.11913 -0.1576,-2.59944 -0.2653,-5.22876 -0.3183,-7.89063 0.053,2.66178 0.1604,5.29128 0.3183,7.89063 9.8951,162.85821 223.5381,204.01464 442.7188,229.09961 238.311,27.27399 509.4378,49.31769 538.3828,223.30469 V 70.858976 c 0,-38.518001 -31.5104,-70.0332038 -70.0274,-70.0332038 z"
       id="path4505"
       inkscape:connector-curvature="0" /><g
       id="g5162"
       transform="translate(-0.0398469,-0.38554322)"><g
         transform="translate(0.0396969,0.31539541)"
         id="g5055"><g
           id="g5014"><path
             style="clip-rule:evenodd;fill:url(#linearGradient4622);fill-opacity:1;fill-rule:evenodd"
             inkscape:connector-curvature="0"
             id="path4505-4"
             d="m 1771.3493,485.48803 c 238.311,27.274 509.439,49.31701 538.384,223.30399 V 70.868021 c 0,-38.518 -31.512,-70.03300038 -70.029,-70.03300038 h -841.395 c -38.521,0 -70.036,31.51500038 -70.036,70.03300038 V 244.45102 c 10e-4,172.81101 218.635,215.35001 443.076,241.03701 z" /><path
             style="clip-rule:evenodd;fill:#ffffff;fill-rule:evenodd"
             inkscape:connector-curvature="0"
             id="path4507"
             d="m 1871.4073,239.05103 c 0,7.576 4.135,8.203 7.575,8.203 h 15.151 v 15.685 h -68.604 v -14.997 h 14.712 c 6.197,-0.689 6.887,-4.759 6.887,-8.203 v -66.722 c 0.684,-4.819 0.684,-10.951 -8.26,-10.951 h -14.024 v -15.688 h 58.713 l 76.954,69.913 c 0,0 0,-37.012 0,-45.276 0,-8.262 -4.136,-8.262 -7.575,-8.948 h -16.432 v -15.688 h 69.416 v 15.688 h -15.65 c -3.44,0 -4.818,4.126 -5.513,7.572 v 93.3 h -23.53 l -89.82,-80.072 c 0,0 0,47.925 0,56.184 z" /><path
             style="clip-rule:evenodd;fill:#ffffff;fill-rule:evenodd"
             inkscape:connector-curvature="0"
             id="path4509"
             d="m 2170.2983,167.03503 c -3.445,3.443 -45.029,51.262 -45.029,51.262 v 22.811 c 0,2.754 0.938,6.113 4.379,6.113 3.451,0 18.673,-0.505 18.673,-0.505 v 16.171 l -80.921,0.537 v -16.171 c 0,0 15.059,0 17.815,0 3.44,0 4.129,-3.799 4.129,-5.864 v -22.805 c 0,0 -43.949,-49.612 -44.634,-50.302 -1.378,-2.754 -5.513,-6.194 -13.083,-6.194 l -13.55,0.127 v -15.148 l 81.496,-0.166 v 15.148 l -8.188,0.166 c -5.639,0 -4.13,3.44 -1.373,6.884 l 24.062,28.234 25.754,-28.924 c 2.063,-2.065 4.168,-6.194 -2.067,-6.194 -5.508,0 -8.243,0 -8.243,0 v -15.148 l 66.568,-0.204 v 15.146 l -16.839,0.206 c -4.82,10e-4 -8.26,4.13 -8.949,4.82 z" /><path
             style="clip-rule:evenodd;fill:#ffffff;fill-rule:evenodd"
             inkscape:connector-curvature="0"
             id="path4511"
             d="m 1723.3753,139.19403 c 19.335,0 39.096,4.162 55.124,13.772 18.209,10.924 31.295,28.733 30.942,52.76 -0.315,21.025 -11.743,37.443 -27.445,48.055 -16.611,11.228 -37.921,16.391 -58.45,16.391 -15.287,0 -31.032,-2.391 -45.402,-8.023 -23.822,-9.336 -43.157,-27.648 -43.586,-56.252 -0.32,-21.782 9.865,-38.303 25.317,-49.165 17.577,-12.354 41.883,-17.538 63.5,-17.538 z m 46.81,65.664 c 0,-11.404 -2.222,-20.062 -7.565,-27.513 -8.978,-12.524 -24.897,-20.086 -40.105,-20.086 -17.68,0 -33.677,8.018 -42.371,22.083 -4.336,7.019 -6.859,15.165 -6.859,25.345 0,12.991 4.881,24.919 12.674,32.72 9.188,9.201 24.156,13.995 36.494,13.683 13.331,-0.689 24.715,-4.89 33.018,-11.738 9.279,-7.646 14.714,-18.727 14.714,-34.494 z" /><path
             style="clip-rule:evenodd;fill:#ffffff;fill-rule:evenodd"
             inkscape:connector-curvature="0"
             id="path4513"
             d="m 1585.4993,145.20603 h 16.526 v 40.268 h -15.485 c -4.406,-10.438 -12.359,-25.54 -53.536,-27.729 -28.215,-0.882 -41.359,7.057 -41.432,15.753 -0.057,6.604 8.916,8.254 14.03,9.043 21.905,3.381 53.246,4.024 74.898,11.03 18.431,6.01 29.333,16.439 29.607,34.491 0.157,10.283 -4.792,20.141 -16.017,27.627 -13.789,8.807 -35.159,13.569 -54.811,13.262 -15.669,-0.244 -30.533,-3.24 -43.972,-8.126 -5.508,-2.062 -13.252,-8.042 -13.252,-0.139 v 4.292 l -19.107,0.139 v -46.096 h 17.2 c 0.334,7 3.63,12.587 8.129,17.001 8.088,8.262 31.719,14.448 49.303,14.844 20.501,0.458 39.739,-5.483 39.739,-16.538 0,-5.291 -4.344,-10.525 -15.175,-11.705 -8.568,-1.27 -17.726,-2.228 -28.286,-3.397 -20.228,-2.239 -42.4,-4.936 -53.397,-10.083 -15.175,-7.101 -21.272,-18.458 -21.283,-30.565 -0.01,-11.93 7.461,-22.816 21.334,-29.266 15.187,-6.626 31.893,-9.86 46.905,-9.846 22.431,0.024 41.343,6.571 49.681,11.073 4.838,1.977 7.723,1.051 8.401,-5.333 z" /></g><g
           id="g5037"><path
             inkscape:connector-curvature="0"
             id="path4576-5"
             d="m 1328.2728,244.59155 v 670.50586 c 0,38.518 31.5123,70.03319 70.0293,70.03319 h 841.3946 c 38.521,0 70.0351,-31.51521 70.0351,-70.03319 V 708.93333 C 2280.7868,534.94634 2009.66,512.90264 1771.349,485.62864 1546.908,459.94164 1328.2738,417.40253 1328.2728,244.59155 Z"
             style="clip-rule:evenodd;fill:url(#linearGradient4702);fill-opacity:1;fill-rule:evenodd" /></g></g><g
         transform="matrix(0.99553618,0,0,0.99553618,3.2621735,139.59563)"
         id="text5304"
         style="font-style:normal;font-variant:normal;font-weight:normal;font-stretch:normal;font-size:163.20132446px;line-height:125%;font-family:'MYRIAD PRO';-inkscape-font-specification:'MYRIAD PRO';text-align:center;letter-spacing:0px;word-spacing:0px;text-anchor:middle;opacity:1;fill:#ffffff;fill-opacity:1;stroke:none;stroke-width:1.36001122px;stroke-linecap:butt;stroke-linejoin:miter;stroke-opacity:1"
         aria-label="MOVIES"><path
           inkscape:connector-curvature="0"
           id="path5308"
           style="font-style:normal;font-variant:normal;font-weight:normal;font-stretch:normal;font-family:Gotham;-inkscape-font-specification:Gotham;fill:#ffffff;stroke-width:1.33270693px"
           d="m 1674.9807,721.94242 c 33.8502,0 58.4544,-26.60181 58.4544,-59.07887 v -0.32641 c 0,-32.47706 -24.2908,-58.75247 -58.1409,-58.75247 -33.8503,0 -58.4544,26.60181 -58.4544,59.07888 v 0.3264 c 0,32.47706 24.2907,58.75247 58.1409,58.75247 z m 0.3135,-23.17458 c -19.4326,0 -33.2234,-16.32014 -33.2234,-35.90429 v -0.32641 c 0,-19.58416 13.4774,-35.57789 32.9099,-35.57789 19.4325,0 33.2233,16.32014 33.2233,35.9043 v 0.3264 c 0,19.58416 -13.4774,35.57789 -32.9098,35.57789 z" /><path
           sodipodi:nodetypes="cccccccc"
           inkscape:connector-curvature="0"
           id="path5310"
           style="font-style:normal;font-variant:normal;font-weight:normal;font-stretch:normal;font-family:Gotham;-inkscape-font-specification:Gotham;fill:#ffffff;stroke-width:1.33470941px"
           d="m 1805.4126,720.80002 h 28.0137 l 41.4668,-115.05694 h -26.0927 l -28.7649,87.0947 -28.765,-87.0947 h -26.7215 z" /><path
           inkscape:connector-curvature="0"
           id="path5312"
           style="font-style:normal;font-variant:normal;font-weight:normal;font-stretch:normal;font-family:Gotham;-inkscape-font-specification:Gotham;fill:#ffffff;stroke-width:1.36001122px"
           d="m 1916.5873,719.98401 h 25.133 V 605.74308 h -25.133 z" /><path
           sodipodi:nodetypes="ccccccccccccc"
           inkscape:connector-curvature="0"
           id="path5314"
           style="font-style:normal;font-variant:normal;font-weight:normal;font-stretch:normal;font-family:Gotham;-inkscape-font-specification:Gotham;fill:#ffffff;stroke-width:1.36001122px"
           d="m 1996.8161,719.98401 h 72.7837 v -22.35858 h -47.8139 v -23.9906 h 39.6538 v -22.35858 h -39.6538 v -23.17459 h 46.9979 v -22.35858 h -71.9677 z" /><path
           inkscape:connector-curvature="0"
           id="path5316"
           style="font-style:normal;font-variant:normal;font-weight:normal;font-stretch:normal;font-family:Gotham;-inkscape-font-specification:Gotham;fill:#ffffff;stroke-width:1.36001122px"
           d="m 2155.8351,721.61602 c 24.6434,0 41.9427,-12.7297 41.9427,-35.41469 v -0.3264 c 0,-19.91056 -13.0561,-28.23383 -36.2307,-34.27228 -19.7474,-5.05924 -24.6434,-7.50726 -24.6434,-15.01452 v -0.3264 c 0,-5.54885 5.0592,-9.95528 14.6881,-9.95528 9.6289,0 19.5842,4.24323 29.7027,11.26089 l 13.0561,-18.93135 c -11.5873,-9.30248 -25.7858,-14.52492 -42.4324,-14.52492 -23.3378,0 -39.9843,13.70891 -39.9843,34.43548 v 0.3264 c 0,22.68498 14.8513,29.04984 37.8627,34.92508 19.0946,4.89604 23.0114,8.16007 23.0114,14.52492 v 0.3264 c 0,6.69126 -6.2017,10.77129 -16.4833,10.77129 -13.0562,0 -23.8274,-5.38564 -34.1091,-13.87211 l -14.8513,17.78894 c 13.7089,12.2401 31.1714,18.27855 48.4708,18.27855 z" /><path
           sodipodi:nodetypes="cccccccccccccc"
           inkscape:connector-curvature="0"
           id="path5306"
           transform="translate(1320.7832,-6.654725)"
           d="m 131.23438,612.39844 v 114.24023 h 25.42382 v -70.19726 l 28.0293,47.77343 h 10.95312 l 28.0293,-47.77343 v 70.19726 h 25.42383 V 612.39844 h -27.94922 l -30.98047,52.95117 -30.98047,-52.95117 z"
           style="font-style:normal;font-variant:normal;font-weight:normal;font-stretch:normal;font-family:Gotham;-inkscape-font-specification:Gotham;fill:#ffffff;stroke-width:1.38139009px" /></g></g></g></svg>