<?xml version="1.0" encoding="utf-8"?>
<!-- Generator: Adobe Illustrator 16.0.0, SVG Export Plug-In . SVG Version: 6.00 Build 0)  -->
<!DOCTYPE svg PUBLIC "-//W3C//DTD SVG 1.1//EN" "http://www.w3.org/Graphics/SVG/1.1/DTD/svg11.dtd">
<svg version="1.1" id="Capa_1" xmlns="http://www.w3.org/2000/svg" xmlns:xlink="http://www.w3.org/1999/xlink" x="0px" y="0px"
	 width="300px" height="300px" viewBox="0 0 300 300" enable-background="new 0 0 300 300" xml:space="preserve">
<g>
	<g>
		<path fill="#3E1542" d="M298.834,149.989c0,82.21-66.631,148.863-148.838,148.863c-82.199,0-148.83-66.652-148.83-148.863
			c0-82.188,66.631-148.84,148.83-148.84C232.203,1.148,298.834,67.801,298.834,149.989z"/>
		<g>
			<g>
				<g>
					<polygon fill="#A53D32" points="100.172,133.055 106.086,127.074 100.149,125.356 100.126,115.28 65.147,115.28 44.369,109.31 
						38.466,115.28 38.466,133.055 60.006,133.055 60.006,195.034 79.032,195.034 84.934,189.052 79.032,164.397 79.032,133.055 
											"/>
					<path fill="#A53D32" d="M174.457,138.365l-0.023-14.34l-4.129,4.391c-0.625-0.706-1.271-1.4-1.979-2.048
						c-7.777-7.448-18.001-11.406-28.772-11.145c-10.769,0.228-20.776,4.674-28.236,12.464
						c-7.414,7.813-11.384,17.992-11.145,28.785c0.239,10.757,4.709,20.787,12.487,28.213c7.801,7.46,18.013,11.407,28.772,11.168
						c10.781-0.251,20.8-4.697,28.248-12.487c0.512-0.533,1.045-1.159,1.648-1.864c0.08-0.068,0.092-0.137,0.137-0.16l-13.68-13.111
						c-0.525,0.739-1.127,1.456-1.773,2.092c-3.947,4.198-9.269,6.54-15.002,6.665c-5.73,0.147-11.166-1.968-15.317-5.924
						c-4.163-3.936-6.518-9.305-6.664-15.046c-0.148-5.722,1.979-11.168,5.935-15.309c3.958-4.161,9.315-6.515,15.034-6.641
						c5.756-0.137,11.203,1.979,15.331,5.926c0.738,0.715,1.398,1.466,2.025,2.273l-3.664,3.913c2.582-0.012,17.471,0,18.676,0
						c0.887,0,1.385-0.353,1.693-0.797l0,0l5.811-5.855l-1.125-1.695L174.457,138.365z"/>
					<polygon fill="#A53D32" points="254.596,177.896 254.348,173.199 254.348,113.995 218.648,142.596 210.711,136.136 
						189.764,108.367 183.871,114.336 183.871,195.034 202.057,195.034 207.959,189.052 202.057,154.504 202.057,153.128 
						218.727,164.988 236.414,152.979 236.414,195.034 254.348,195.034 260.271,189.052 					"/>
				</g>
				<g>
					<polygon fill="#E8E7C8" points="224.563,136.626 189.764,108.367 189.764,189.052 207.959,189.052 207.959,147.156 
						224.641,159.007 242.316,147.01 242.316,189.052 260.271,189.052 260.271,108.025 					"/>
					<polygon fill="#E8E7C8" points="106.052,109.31 44.369,109.31 44.369,127.074 65.92,127.074 65.92,189.052 84.934,189.052 
						84.934,127.074 106.086,127.074 					"/>
					<path fill="#E8E7C8" d="M180.359,118.044l-4.129,4.4c-0.625-0.715-1.295-1.421-1.99-2.057
						c-7.777-7.449-17.992-11.408-28.772-11.145c-10.769,0.239-20.776,4.674-28.225,12.476c-7.428,7.813-11.408,17.99-11.145,28.771
						c0.228,10.758,4.686,20.801,12.475,28.202c7.802,7.472,18.001,11.419,28.771,11.18c10.771-0.238,20.801-4.696,28.25-12.475
						c0.512-0.535,1.033-1.161,1.648-1.877c0.08-0.069,0.104-0.137,0.148-0.16l-13.703-13.111c-0.525,0.75-1.115,1.468-1.754,2.104
						c-3.955,4.185-9.277,6.527-15.01,6.664c-5.73,0.125-11.177-1.967-15.317-5.926c-4.163-3.956-6.538-9.301-6.664-15.044
						c-0.148-5.731,1.978-11.167,5.935-15.307c3.959-4.175,9.315-6.528,15.034-6.642c5.745-0.147,11.192,1.968,15.331,5.914
						c0.727,0.728,1.398,1.478,2.023,2.286l-3.674,3.9c2.594-0.012,17.469,0,18.664,0c2.342,0,2.125-2.468,2.125-2.468
						L180.359,118.044z"/>
				</g>
			</g>
		</g>
	</g>
	<g>
		<g>
			<g>
				<path fill="#3E1542" d="M265.775,260.596h-3.072v-1.581h7.871v1.581h-3.082v8.12h-1.717V260.596z"/>
				<path fill="#3E1542" d="M272.373,259.015h1.828l2.936,4.571l2.967-4.571h1.797v9.701h-1.693v-6.973l-3.07,4.571h-0.047
					l-3.023-4.514v6.915h-1.693V259.015z"/>
			</g>
		</g>
	</g>
</g>
</svg>
