<?xml version="1.0" encoding="utf-8"?>
<!-- Generator: Adobe Illustrator 26.0.0, SVG Export Plug-In . SVG Version: 6.00 Build 0)  -->
<svg version="1.1" id="Layer_1" xmlns="http://www.w3.org/2000/svg" xmlns:xlink="http://www.w3.org/1999/xlink" x="0px" y="0px"
	 viewBox="0 0 13068.3 16307.3" style="enable-background:new 0 0 13068.3 16307.3;" xml:space="preserve">
<style type="text/css">
	.st0{display:none;}
	.st1{display:inline;fill:#1E1E1E;}
	.st2{fill:#E92726;}
</style>
<g id="BACKGROUND" class="st0">
	<rect x="6094.7" y="7713.2" class="st1" width="400" height="400"/>
</g>
<g>
	<g>
		<path class="st2" d="M4000.9,4329.9h137.8h1071.2c303.7,0,455.5,87.2,607.3,337.4l1251.2,1945.6h42.2v-2283h1124.6H8373h3691.6
			C11280.2,1821.9,8938.1,0,6171.5,0S1062.8,1819.1,278.3,4329.9H4000.9z"/>
	</g>
	<g>
		<path class="st2" d="M10917.5,5226.8v3646.6H9688.8V5226.8H8283v3646.6h-821c-303.7,0-449.9-87.2-607.3-337.4L5263.3,6154.6H5238
			v2718.8H4043.1V5226.8H2642.9v3646.6H1391.7V5226.8H73.1C25.3,5536,0,5850.9,0,6174.3c0,3407.7,2763.8,6171.5,6171.5,6171.5
			s6174.3-2763.8,6174.3-6171.5c0-323.3-25.3-638.2-73.1-947.5H10917.5z"/>
	</g>
	<g>
		<polygon class="st2" points="12694.4,13878.1 12694.4,13934.3 12612.8,13934.3 12612.8,14223.9 12539.7,14223.9 12539.7,13934.3 
			12458.2,13934.3 12458.2,13878.1 		"/>
	</g>
	<g>
		<polygon class="st2" points="12843.4,13878.1 12896.8,14114.2 12896.8,14114.2 12955.9,13878.1 13068.3,13878.1 13068.3,14223.9 
			12998,14223.9 12998,13956.8 12995.2,13956.8 12930.6,14223.9 12860.3,14223.9 12798.4,13956.8 12795.6,13956.8 12795.6,14223.9 
			12725.3,14223.9 12725.3,13878.1 		"/>
	</g>
	<g>
		<polygon class="st2" points="109.7,16267.9 109.7,13894.9 778.8,13894.9 1408.6,15536.9 1417,15536.9 1417,13894.9 
			1878.2,13894.9 1878.2,16267.9 1225.9,16267.9 579.2,14533.2 570.8,14533.2 570.8,16267.9 		"/>
	</g>
	<path class="st2" d="M2207.1,15081.4c0-627,0-1225.9,818.2-1225.9s818.2,598.9,818.2,1225.9c0,621.4,0,1225.9-818.2,1225.9
		C2207.1,16307.3,2207.1,15702.8,2207.1,15081.4 M3340.2,15081.4c0-607.3-36.6-871.6-314.9-871.6s-314.9,261.5-314.9,871.6
		s36.6,871.6,314.9,871.6C3303.6,15950.2,3340.2,15688.7,3340.2,15081.4"/>
	<g>
		<polygon class="st2" points="3981.2,13894.9 4498.6,13894.9 4864.1,15618.5 4872.5,15618.5 5285.8,13894.9 5775,13894.9 
			5148,16267.9 4566,16267.9 		"/>
	</g>
	<g>
		<polygon class="st2" points="5932.5,16267.9 5932.5,13894.9 7228.6,13894.9 7228.6,14260.4 6430.1,14260.4 6430.1,14845.3 
			7164,14845.3 7164,15208 6430.1,15208 6430.1,15902.4 7253.9,15902.4 7253.9,16267.9 		"/>
	</g>
	<g>
		<polygon class="st2" points="7512.6,16267.9 7512.6,13894.9 8010.3,13894.9 8010.3,15871.5 8752.5,15871.5 8752.5,16267.9 		"/>
	</g>
	<g>
		<path class="st2" d="M8673.8,16267.9l657.9-2373h655.1l643.9,2373h-523l-132.1-525.8H9298l-135,525.8H8673.8z M9629.7,14350.4
			h-5.6l-227.7,1026.2h472.3L9629.7,14350.4z"/>
	</g>
	<path class="st2" d="M11364.5,16307.3c-615.7,0-728.2-362.7-702.9-773.2h494.8c0,227.7,11.2,416.1,281.2,416.1
		c168.7,0,250.2-109.7,250.2-269.9c0-427.4-998.1-452.7-998.1-1158.4c0-371.1,177.1-666.4,781.6-666.4
		c483.6,0,722.6,216.5,688.8,714.1h-483.6c0-177.1-30.9-357.1-230.6-357.1c-160.3,0-255.9,90-255.9,253
		c0,449.9,998.1,410.5,998.1,1155.6C12191.1,16234.2,11741.3,16307.3,11364.5,16307.3"/>
</g>
</svg>
