<?xml version="1.0" encoding="UTF-8" standalone="no"?>
<!-- Created with sK1/UniConvertor (http://sk1project.org/) -->

<svg
   xmlns:dc="http://purl.org/dc/elements/1.1/"
   xmlns:cc="http://creativecommons.org/ns#"
   xmlns:rdf="http://www.w3.org/1999/02/22-rdf-syntax-ns#"
   xmlns:svg="http://www.w3.org/2000/svg"
   xmlns="http://www.w3.org/2000/svg"
   xmlns:sodipodi="http://sodipodi.sourceforge.net/DTD/sodipodi-0.dtd"
   xmlns:inkscape="http://www.inkscape.org/namespaces/inkscape"
   width="543.09399"
   height="237.96899"
   viewBox="0 0 434.4752 190.37519"
   id="svg2"
   version="1.1"
   inkscape:version="0.91 r13725"
   sodipodi:docname="USA Network 2005 Alt.svg"
   style="fill-rule:evenodd">
  <metadata
     id="metadata34">
    <rdf:RDF>
      <cc:Work
         rdf:about="">
        <dc:format>image/svg+xml</dc:format>
        <dc:type
           rdf:resource="http://purl.org/dc/dcmitype/StillImage" />
        <dc:title></dc:title>
      </cc:Work>
    </rdf:RDF>
  </metadata>
  <defs
     id="defs32" />
  <sodipodi:namedview
     pagecolor="#ffffff"
     bordercolor="#666666"
     borderopacity="1"
     objecttolerance="10"
     gridtolerance="10"
     guidetolerance="10"
     inkscape:pageopacity="0"
     inkscape:pageshadow="2"
     inkscape:window-width="1366"
     inkscape:window-height="705"
     id="namedview30"
     showgrid="false"
     fit-margin-top="0"
     fit-margin-left="0"
     fit-margin-right="0"
     fit-margin-bottom="0"
     inkscape:zoom="1"
     inkscape:cx="310.66578"
     inkscape:cy="153.51773"
     inkscape:window-x="-8"
     inkscape:window-y="-8"
     inkscape:window-maximized="1"
     inkscape:current-layer="svg2" />
  <path
     style="fill:#000000;fill-opacity:1;stroke:none"
     d="m 109.51778,1.949809e-4 53.49861,0 C 140.12556,21.500748 131.26389,55.632978 147.47778,83.655198 c 8.97,15.50611 24.84445,25.812212 45.70583,32.572212 18.69833,6.05583 35.94139,10.77916 35.94139,28.6 0,12.20194 -10.97056,21.06722 -25.72917,20.12472 -13.14805,-0.845 -28.02583,-7.98417 -43.05527,-21.59444 C 149.565,173.04824 121.68723,190.37434 81.224722,190.37434 29.296943,190.37434 0,159.49935 0,113.13991 L 0,1.949809e-4 l 55.780833,0 0,112.5980450191 c 0,16.31861 12.09,29.6725 26.870277,29.6725 l 0,0 c 14.776667,0 26.86667,-13.35389 26.86667,-29.6725 l 0,-112.5980450191 z"
     id="path10"
     inkscape:connector-curvature="0" />
  <path
     style="fill:#000000;fill-opacity:1;stroke:none"
     d="m 333.82501,1.919809e-4 c -30.72333,0 -56.47251,18.1333360191 -70.675,45.3249960191 -14.36861,-13.52722 -30.25361,-20.51389 -42.6,-20.55 -13.1625,-0.0361 -23.52501,9.45417 -23.52501,20.775 0,19.72751 20.07196,23.62473 41.15001,30.80001 16.72305,5.69111 30.35583,12.94111 40.225,29.349992 10.96693,18.22888 12.67527,41.82306 0.3,61.175 14.32889,14.63221 33.40417,23.5 55.125,23.5 18.03749,0 34.23723,-6.12085 47.425,-16.575 l 0,14.525 53.225,0 0,-186.774998 -53.225,0 0,15.199996 C 368.00446,6.187692 351.77224,1.919809e-4 333.82501,1.919809e-4 Z m 11.35,48.1749960191 c 22.34194,0 39.15,21.06834 39.15,47.02501 0,25.956652 -16.56611,46.999992 -39.15,46.999992 -22.58389,0 -39.15,-21.04334 -39.15,-46.999992 0,-25.95667 16.80806,-47.02501 39.15,-47.02501 z"
     id="path2993"
     inkscape:connector-curvature="0" />
</svg>
