<?xml version="1.0" encoding="utf-8"?>
<!-- Generator: Adobe Illustrator 26.0.1, SVG Export Plug-In . SVG Version: 6.00 Build 0)  -->
<svg version="1.1" id="Слой_1" xmlns="http://www.w3.org/2000/svg" xmlns:xlink="http://www.w3.org/1999/xlink" x="0px" y="0px"
	 width="500px" height="190.1px" viewBox="0 0 500 190.1" style="enable-background:new 0 0 500 190.1;" xml:space="preserve">
<style type="text/css">
	.st0{fill:#7D00E0;}
</style>
<g>
	<path class="st0" d="M477.9,63c-1.5-3.3-3.6-6.3-6.3-8.8c-5.3-4.9-12.5-6.3-19.6-7c-6.2-0.7-14.2-0.1-19.4-3.6
		c-2.1-1.5-3.4-3.9-3.2-6.5c0-2.9,1.2-5.7,3.4-7.5c5.9-5.5,13.9-5.9,20.3-4.2c4,0.9,7.8,2.6,11.1,4.9l9.3-24.9
		c-5.1-2.5-10.6-4.2-16.2-4.9c-15.7-1.8-34.5,2.4-46.8,16.7c-13.5,15.7-14.9,43.4,2.1,51.8c5.7,2.8,12.7,4.1,19.1,4.7
		c7.4,0.6,20.5,2,18.4,11.9c-2.4,11-18.5,11-27.3,9.2c-6.6-1.4-12.7-4.3-18-8.5c-0.4,8.6-2.3,19.4-8.4,28.2
		c8.4,6.2,18.4,9.9,28.8,10.7c22.5,1.8,37.7-9.3,44.2-17.4c7.6-9.4,11.4-19.3,11.1-31.9C480.6,71.4,479.7,67.1,477.9,63z"/>
	<polygon class="st0" points="263.4,93.8 193.4,49.8 193.4,165.7 223.5,160.3 223.4,104.4 293.8,148.6 293.8,31.6 263.4,37.2 	"/>
	<path class="st0" d="M394.9,82.6V12.9l-28.7,5.3v65.6c0,13-5.8,23.5-17.9,25.7c-12.1,2.2-17.7-6.1-17.7-19.1V24.8l-28.7,5.3v66.4
		c0,31,19.8,45.8,46.5,40.9C375.8,132.4,394.9,114.7,394.9,82.6z"/>
	<polygon class="st0" points="139.9,149.8 140,131.7 184.7,122.8 184.7,96.2 140,105 140.1,87.1 184.8,78.8 184.8,51.8 128.3,62.2 
		110.2,105.1 110,181.2 185.7,167.1 185.7,141.4 	"/>
	<path class="st0" d="M59,122.1L34.1,79.9L0,86.3c0,0,62.1,104.8,62.6,103.7L138,11.2l-37,6.4L59,122.1z"/>
	<path class="st0" d="M484.6,119.4h-1.9v-5.7h-1.5v-1.6h5v1.6h-1.6V119.4z"/>
	<path class="st0" d="M486.9,112.1h1.9l1.5,3.9l1.6-3.9h1.9l1.1,7.3h-1.9l-0.6-4.2l0,0l-1.8,4.2h-0.8l-1.7-4.2l0,0l-0.6,4.2h-1.9
		L486.9,112.1z"/>
	<path class="st0" d="M488,127.7c-6.6,0-12-5.4-12-12c0-6.6,5.4-12,12-12c6.6,0,12,5.4,12,12c0,0,0,0,0,0
		C500,122.4,494.6,127.7,488,127.7z M488,105.9c-5.5,0-9.9,4.4-9.9,9.8c0,5.5,4.4,9.9,9.8,9.9c5.5,0,9.9-4.4,9.9-9.8c0,0,0,0,0-0.1
		C497.8,110.4,493.4,106,488,105.9z"/>
</g>
</svg>
