<?xml version="1.0" encoding="utf-8"?>
<!-- Generator: Adobe Illustrator 23.0.3, SVG Export Plug-In . SVG Version: 6.00 Build 0)  -->
<svg version="1.1" id="Layer_1" xmlns="http://www.w3.org/2000/svg" xmlns:xlink="http://www.w3.org/1999/xlink" x="0px" y="0px"
	 viewBox="0 0 1000 915.6" style="enable-background:new 0 0 1000 915.6;" xml:space="preserve">
<style type="text/css">
	.st0{fill:#F9003E;}
	.st1{fill:#03084F;}
	.st2{fill:#FFFFFF;}
</style>
<path class="st0" d="M899.5,157.7l-98.1-19.1l-8.6-35.3l-87.5-21l-12.2-45.8L452.1,0l-241,36.5l-12.2,45.8l-87.5,21l-8.6,35.3
	L4.7,157.7c-2.2,21.7-4.7,53.4-4.7,90S4.7,390.1,34.9,481c18.3,54.7,35.3,95.1,61.2,137.5c17.1,27.9,35.2,55.5,65.7,89.8
	c86.9,97.9,199.7,163,282.8,207.3c5.3,0,9.7,0,15.1,0c83-44.3,195.7-109.4,282.8-207.3c30.4-34.3,48.5-61.9,65.7-89.8
	C834,576.1,851,535.7,869.3,481c30.3-90.8,34.9-196.6,34.9-233.3S901.6,179.4,899.5,157.7z"/>
<path class="st1" d="M775.8,184.8l-10.6-37.6l-91.8-23.4l-11.7-46.3l-210.8-31l-211,31l-11.7,46.3l-91.8,23.4l-10.6,37.6L48,201.1
	c-0.9,11.2-1.7,24.6-1.7,36.2c0,71.5,10.2,144.1,28.2,203.9c21.2,70.4,52.3,141,90.9,195.2C238,738.5,358.2,813.5,451,868.9
	c92.8-55.4,212.9-130.3,285.6-232.5c38.5-54.2,69.7-124.8,90.9-195.2c18-59.8,28.2-132.4,28.2-203.9c0-11.6-0.8-25-1.7-36.2
	L775.8,184.8z"/>
<g>
	<path class="st2" d="M413.3,101.2c-29.5,0-46.1,7.6-60.3,14.9l-0.3,436.1c-40-84.4-45.8-173.1-45.8-197.7v-211
		c0-10.5-8.2-19.6-25.1-13.5c-21.6,7.7-39.6,17.5-49.3,23.1c-1,16-2.8,52.7-2.8,96.6c0,59.4,6.3,133.6,13.2,187.1l-17.1,30.6
		c-6.7-15.4-13.2-33.2-18.1-52.1c-4-15.4-8.8-34.4-12-52.5c-11.8-68.4-11.7-136.2-12.2-149.6c-0.8-20.8-4.8-25.9-11.7-25.9
		c-6.8,0-37.6,21-63.1,46.4C110.1,357.8,129.4,482,221.6,597l43.6-63.2c35.5,100.4,70.5,200.3,168,277.6v-695
		C433.2,108.5,428,101.2,413.3,101.2z"/>
	<path class="st2" d="M780.4,284c0-51.9-75.1-104.5-151-141.7c-54-26.5-110.6-42.1-138.9-42.1c-6.7,0-20.3,2-20.3,13.8v697.3
		c134.8-71.2,264.4-237,264.4-314.7c0-54.7-27.9-86.1-48.8-101C736.6,363,780.4,325.4,780.4,284z M552,656.2V465.7
		c18.4-10.5,36.2-21,58.9-21s38,15.8,38,44.6C648.7,535.2,601.4,595.1,552,656.2z M550.2,388.2V187.7c65.7,21,137.9,60.3,137.9,91.2
		S653.2,347.2,550.2,388.2z"/>
</g>
<ellipse class="st2" cx="833.1" cy="581.7" rx="166.9" ry="167.6"/>
<polygon class="st1" points="911,521.1 877.8,618.4 844.3,521.1 729.5,521.1 720.5,550 753.5,550 753.5,652.9 786.5,652.9 
	786.5,550 817.9,550 856.5,652.9 899.1,652.9 949,521.1 "/>
</svg>
