<svg viewBox="0 0 600 600" width="800" height="800" xmlns="http://www.w3.org/2000/svg" fill="#fff" stroke="#fff"><g style="stroke-width:1.05103"><path style="color:#fff;fill:#fff;stroke-linecap:round;-inkscape-stroke:none" d="M571.77 260.62a42.041 42.041 0 0 1 30.283 10.874 42.041 42.041 0 0 1 2.845 59.389L394.756 562.18a42.041 42.041 0 0 1-59.389 2.845 42.041 42.041 0 0 1-2.846-59.386l210.145-231.3a42.041 42.041 0 0 1 29.104-13.72z" transform="matrix(.95173 0 0 .95116 13.901 12.169)"/><path style="color:#fff;fill:#fff;stroke-linecap:round;-inkscape-stroke:none" d="M574.432 260.57a42.041 42.041 0 0 1 42.04 42.041 42.041 42.041 0 0 1-42.04 42.041H26.785a42.041 42.041 0 0 1-42.04-42.04 42.041 42.041 0 0 1 42.04-42.042z" transform="matrix(.95173 0 0 .95116 13.901 12.169)"/><path style="color:#fff;fill:#fff;stroke-linecap:round;-inkscape-stroke:none" d="M365.65 29.32a42.041 42.041 0 0 1 29.106 13.723L604.898 274.34a42.041 42.041 0 0 1-2.845 59.389 42.041 42.041 0 0 1-59.387-2.846L332.521 99.586a42.041 42.041 0 0 1 2.846-59.389A42.041 42.041 0 0 1 365.65 29.32z" transform="matrix(.95173 0 0 .95116 13.901 12.169)"/></g></svg>